{"glyphs":{"0":{"ha":688,"x_min":0,"x_max":656,"o":"m 181 33 q 138 49 160 43 q 93 65 117 56 q 93 96 92 81 q 88 126 94 111 q 46 140 67 136 q 4 157 25 144 q 2 583 0 371 q 3 1013 4 796 q 43 1031 21 1025 q 88 1046 65 1036 l 93 1054 l 93 1164 l 99 1171 q 328 1250 213 1189 q 560 1260 444 1311 q 561 1233 563 1247 q 563 1207 560 1219 l 568 1199 q 609 1183 588 1190 q 651 1168 631 1176 q 653 1040 654 1104 q 654 908 651 975 q 653 604 651 753 q 649 306 656 456 q 609 293 629 300 q 568 278 589 286 l 563 268 l 563 160 q 555 156 557 160 q 547 149 553 151 q 369 91 458 124 q 190 33 279 58 l 181 33 l 181 33 m 183 61 l 183 140 l 178 146 q 147 135 163 136 q 118 126 132 133 l 111 118 l 111 88 l 118 79 q 147 69 132 72 q 174 57 161 65 l 183 61 m 92 153 q 90 200 89 176 q 89 244 92 224 q 58 256 74 253 q 29 267 43 260 l 19 264 q 19 217 21 240 q 22 174 18 193 q 53 162 38 165 q 83 149 68 158 l 92 153 m 299 210 q 318 217 308 215 q 336 224 328 219 q 299 236 317 232 l 292 232 q 292 219 293 225 q 294 210 290 214 l 299 210 m 372 233 q 402 245 388 240 q 428 253 417 250 q 321 253 375 281 q 345 245 332 250 q 372 233 358 240 m 92 275 q 90 322 88 300 q 88 367 93 344 q 56 378 71 375 q 26 389 40 382 l 19 383 q 21 338 24 360 q 25 292 18 315 q 56 281 40 285 q 86 268 71 276 l 92 275 m 301 271 q 330 282 315 279 q 357 290 344 285 l 364 299 l 364 1049 l 360 1054 q 324 1040 342 1043 q 292 1024 306 1038 q 292 647 293 833 q 294 271 290 460 l 301 271 m 456 272 q 455 322 451 297 q 449 369 458 346 q 415 379 431 372 q 383 386 400 386 l 383 299 l 390 290 q 419 279 404 283 q 447 271 433 275 l 456 272 m 92 393 q 90 441 88 417 q 88 489 93 465 q 26 510 50 500 l 19 504 l 19 421 l 26 413 q 55 402 40 406 q 83 390 69 399 l 92 393 m 456 394 q 454 442 451 419 q 451 486 457 464 q 419 498 435 492 q 390 510 404 504 l 383 506 q 383 458 385 482 q 386 414 382 435 q 417 402 403 406 q 447 390 432 399 l 456 394 m 92 515 q 91 563 88 539 q 86 610 94 588 q 56 620 71 617 q 29 631 40 624 l 19 628 l 19 542 q 31 529 26 532 q 83 513 57 526 l 92 515 m 456 515 q 455 563 451 539 q 449 610 458 588 q 415 620 431 613 q 383 628 400 628 l 383 542 l 390 532 q 419 523 404 525 q 447 513 433 521 l 456 515 m 92 636 l 92 719 l 86 731 q 49 742 67 735 q 19 750 32 750 l 19 663 l 26 654 q 55 644 40 647 q 83 632 69 640 l 92 636 m 456 636 l 456 719 q 447 732 444 732 l 442 735 q 415 742 428 736 q 390 753 403 747 l 383 747 q 383 700 385 724 q 386 656 382 676 q 417 644 403 647 q 447 632 432 640 l 456 636 m 92 756 q 91 805 88 781 q 86 851 94 829 q 56 862 71 858 q 29 872 40 865 l 19 869 l 19 782 q 31 772 25 774 q 55 766 42 771 q 83 754 68 761 l 92 756 m 456 756 q 455 805 451 781 q 449 851 458 829 q 420 861 435 856 q 392 872 406 867 l 383 869 l 383 782 l 390 774 q 419 765 404 767 q 447 754 433 763 l 456 756 m 92 878 q 91 927 88 903 q 86 974 94 951 q 49 985 67 978 q 19 992 32 992 l 19 904 q 31 894 25 896 q 57 885 44 892 q 83 874 69 878 l 92 878 m 456 881 q 454 926 451 904 q 451 972 457 949 q 419 983 435 981 q 390 993 404 985 l 383 989 q 383 942 385 965 q 386 897 382 919 q 417 886 403 890 q 447 874 432 882 l 456 881 m 100 989 q 128 1001 111 999 q 154 1011 144 1004 q 126 1019 140 1014 q 99 1029 111 1025 q 71 1019 85 1022 q 49 1010 57 1015 q 72 1001 58 1007 q 100 989 85 996 m 456 1000 l 456 1075 l 449 1085 q 415 1072 431 1076 q 383 1060 400 1068 l 383 1024 q 394 1013 390 1014 q 421 1006 407 1011 q 447 996 435 1000 l 456 1000 m 183 1029 l 183 1117 q 172 1128 176 1125 q 144 1135 158 1129 q 119 1144 129 1140 l 111 1142 l 111 1054 l 118 1046 q 147 1037 132 1039 q 174 1026 161 1035 l 183 1029 m 192 1142 q 219 1152 204 1150 q 244 1164 233 1154 q 208 1173 226 1165 q 174 1175 190 1181 q 144 1164 161 1168 l 140 1160 q 166 1151 154 1157 q 192 1142 178 1144 m 568 1146 q 608 1160 597 1160 q 590 1168 601 1165 q 574 1172 579 1171 l 564 1171 l 564 1151 l 568 1146 l 568 1146 m 282 1172 q 310 1182 296 1178 q 338 1192 325 1186 q 308 1201 322 1199 q 282 1210 293 1204 q 263 1203 271 1207 q 246 1199 254 1199 q 237 1194 242 1194 q 229 1192 232 1193 q 256 1182 243 1186 q 282 1172 268 1178 m 372 1203 q 401 1210 388 1206 q 425 1222 414 1215 q 397 1232 410 1229 q 371 1240 383 1235 q 342 1229 357 1233 q 321 1221 328 1225 q 347 1212 335 1218 q 372 1203 360 1206 m 463 1233 q 491 1242 476 1238 q 519 1250 506 1247 q 496 1259 508 1258 q 472 1268 483 1260 q 441 1262 457 1267 q 410 1250 425 1257 q 436 1242 424 1247 q 463 1233 449 1238 z "},"1":{"ha":657,"x_min":0,"x_max":625,"o":"m 268 63 q 224 79 246 72 q 181 96 203 86 l 181 347 q 222 365 199 360 q 265 381 244 369 q 272 480 271 431 q 272 578 272 529 q 270 678 271 628 q 272 778 269 728 l 265 783 q 201 763 233 774 q 136 740 169 751 q 4 760 68 717 l 0 767 l 0 893 q 85 924 38 910 q 176 956 132 938 q 181 1013 183 983 q 181 1074 178 1043 q 187 1077 185 1074 q 196 1085 189 1081 q 265 1106 235 1092 l 272 1115 l 272 1224 q 369 1260 318 1244 q 468 1289 419 1276 q 510 1276 489 1282 q 556 1258 532 1269 l 560 1251 l 560 1104 l 560 479 l 571 465 q 594 461 582 467 q 618 453 606 456 l 625 442 l 625 181 q 453 119 542 147 q 276 63 365 90 l 268 63 l 268 63 m 269 93 q 269 140 267 117 q 265 185 272 163 q 235 196 250 193 q 204 207 219 199 l 199 203 l 199 115 q 231 99 213 103 q 263 88 249 94 l 269 93 m 269 213 q 269 260 267 238 q 265 304 272 282 q 235 316 250 311 q 204 328 219 321 l 199 324 q 199 277 200 300 q 201 232 197 254 q 232 222 217 225 q 261 208 247 218 l 269 213 m 279 324 q 305 335 290 333 q 333 344 319 338 q 307 353 319 350 q 283 361 294 356 q 249 351 264 356 q 226 342 235 347 q 279 324 247 340 m 360 361 q 358 410 356 385 q 356 457 361 435 q 320 469 338 463 q 289 476 303 476 l 289 389 l 296 381 q 353 358 335 368 l 360 361 m 567 421 q 586 428 576 425 q 604 435 596 432 q 582 442 592 438 q 563 444 572 447 q 563 431 564 436 q 564 421 561 425 l 567 421 m 360 486 l 360 568 l 353 579 q 324 589 339 583 q 296 599 308 594 l 289 596 l 289 510 q 300 499 293 501 q 328 491 315 496 q 353 481 340 486 l 360 486 m 360 606 q 359 653 356 629 q 353 700 363 678 q 324 710 339 707 q 296 721 308 713 l 289 717 l 289 629 q 319 613 303 618 q 350 603 336 608 l 360 606 m 360 726 q 359 769 357 749 q 357 810 361 790 l 350 810 q 318 798 335 801 q 289 786 301 794 l 289 751 l 296 743 q 326 733 311 740 q 353 724 340 726 l 360 726 m 88 757 l 88 840 l 81 851 q 51 862 65 856 q 24 871 36 868 l 18 868 l 18 782 q 29 771 22 774 q 55 763 43 768 q 81 753 67 757 l 88 757 m 99 868 q 126 879 108 878 q 150 890 143 881 q 122 899 136 892 q 93 906 107 906 q 67 897 81 899 q 44 889 54 894 q 72 878 58 881 q 99 868 85 876 m 188 899 q 215 910 201 906 q 242 919 229 914 q 135 919 186 942 q 161 908 149 914 q 188 899 174 903 m 269 938 q 270 987 267 963 q 263 1035 274 1011 q 228 1044 244 1038 q 199 1051 211 1051 l 199 964 l 204 956 q 234 946 219 950 q 261 933 249 942 l 269 938 m 281 1051 q 307 1062 294 1060 q 333 1069 319 1064 q 310 1077 324 1076 q 288 1086 297 1078 q 265 1083 275 1089 q 244 1078 254 1078 q 233 1072 239 1072 q 226 1067 226 1071 q 279 1049 244 1067 l 281 1051 m 360 1089 q 358 1137 356 1113 q 356 1185 361 1161 q 324 1194 340 1188 q 299 1204 308 1200 l 289 1201 l 289 1115 l 296 1106 q 326 1097 311 1100 q 353 1086 340 1094 l 360 1089 m 371 1201 q 397 1212 379 1208 q 422 1224 414 1215 q 387 1233 404 1225 q 353 1235 369 1240 q 317 1221 339 1225 q 344 1211 331 1215 q 371 1201 357 1207 m 460 1232 q 487 1242 472 1239 q 513 1254 501 1244 q 484 1261 497 1254 q 460 1269 471 1268 q 442 1263 450 1268 q 425 1258 433 1258 q 415 1253 419 1254 q 407 1251 410 1253 q 434 1242 422 1247 q 460 1232 446 1238 z "},"2":{"ha":686,"x_min":0,"x_max":654,"o":"m 89 0 q 47 17 68 10 q 1 35 25 24 q 6 288 1 285 q 17 296 10 290 q 51 304 33 297 q 88 318 68 311 q 90 376 93 346 q 92 435 88 406 q 132 453 110 446 q 176 468 154 460 l 183 476 l 183 586 l 188 593 q 226 605 206 600 q 256 614 246 610 q 267 622 265 618 q 274 632 269 625 l 274 736 l 279 743 q 317 758 296 753 q 357 768 338 764 l 364 778 l 364 1047 l 357 1051 q 333 1043 346 1050 q 306 1036 319 1036 l 296 1032 l 289 1024 l 289 793 q 283 789 285 793 q 274 782 281 785 q 146 740 213 768 q 17 751 82 715 q 4 760 6 757 q 1 885 0 822 q 1 1011 3 947 q 46 1029 26 1024 q 85 1042 65 1035 q 91 1099 94 1071 q 92 1158 88 1128 l 96 1165 q 210 1197 154 1176 q 325 1247 267 1217 q 557 1257 443 1308 l 563 1250 l 563 1203 l 568 1193 q 608 1181 588 1188 q 651 1165 629 1174 q 653 980 654 1074 q 653 793 651 886 q 578 764 613 769 l 568 760 l 563 751 l 563 642 l 557 636 q 519 623 539 628 q 479 610 499 618 l 471 597 l 471 492 l 465 486 q 427 470 447 478 q 388 457 407 463 l 381 449 l 381 340 l 376 333 q 338 321 357 328 q 299 307 318 314 q 289 294 297 307 l 289 272 l 296 265 q 417 306 356 288 q 540 349 478 325 q 595 339 569 349 q 647 319 621 329 l 653 311 l 653 185 q 376 90 514 139 q 96 1 238 40 l 89 0 l 89 0 m 89 29 q 88 77 86 53 q 85 124 90 101 q 53 133 69 126 q 29 144 38 140 l 19 142 l 19 54 l 26 46 q 55 35 40 39 q 83 26 69 32 l 89 29 m 89 150 q 89 199 86 174 q 83 246 92 224 q 53 254 68 247 q 26 265 39 261 l 19 261 l 19 174 l 26 165 q 55 157 40 164 q 83 146 69 150 l 89 150 m 299 207 q 318 215 308 213 q 336 219 328 217 q 319 227 329 226 q 300 232 308 228 l 292 232 q 292 217 293 224 q 293 207 290 211 l 299 207 m 372 232 q 399 243 383 240 q 426 250 414 246 q 403 259 414 257 q 381 268 392 261 q 319 249 336 261 q 372 232 340 244 m 100 261 q 126 273 111 271 q 154 281 142 275 q 145 285 149 283 q 140 288 142 286 q 49 279 86 310 q 73 273 60 278 q 100 261 86 268 m 464 261 q 487 272 474 269 q 511 279 500 275 l 517 283 q 463 295 490 292 q 411 279 435 299 q 438 271 425 276 q 464 261 450 265 m 553 292 q 579 303 564 301 q 608 311 594 306 q 582 321 594 318 q 557 329 569 324 q 501 311 529 322 q 528 301 515 306 q 553 292 540 297 m 181 303 q 179 349 176 328 q 176 394 182 371 q 143 406 158 400 q 111 414 128 411 l 111 322 q 140 310 124 314 q 172 299 157 307 l 181 303 m 192 414 q 218 425 204 418 q 244 432 232 432 q 217 441 232 440 q 192 450 203 442 q 161 441 176 444 q 138 432 146 438 q 164 423 151 429 q 189 414 176 417 l 192 414 m 272 453 q 271 499 268 478 q 268 544 274 521 q 236 556 251 550 q 207 568 221 563 l 200 564 q 201 516 203 539 q 203 472 199 493 q 234 461 219 464 q 264 449 249 458 l 272 453 m 281 564 q 308 575 294 574 q 336 583 322 576 q 309 593 322 590 q 286 601 296 596 q 256 593 271 599 q 229 583 242 588 q 256 574 243 576 q 281 564 268 571 m 361 601 l 361 689 l 354 699 q 326 708 340 704 q 299 719 311 713 l 292 714 l 292 628 q 325 611 307 615 q 357 599 343 607 l 361 601 m 371 717 q 399 726 385 719 q 426 733 414 732 q 403 742 417 742 q 381 751 390 743 q 349 745 365 750 q 318 733 333 740 q 344 726 332 731 q 371 717 357 721 m 89 756 l 89 839 l 83 850 q 53 860 68 854 q 26 868 39 865 l 19 867 l 19 779 l 26 771 q 55 761 40 765 q 83 751 69 757 l 89 756 m 453 753 q 453 802 450 778 q 449 850 456 826 q 415 860 431 851 q 383 868 400 868 q 383 818 386 844 q 388 774 381 792 q 416 763 401 765 q 444 751 431 761 l 453 753 m 89 875 l 89 963 l 81 974 q 48 982 64 975 q 19 989 32 989 l 19 901 l 26 893 q 55 883 40 886 q 83 871 69 879 l 89 875 m 453 875 q 453 924 450 900 q 446 971 456 949 q 417 981 431 976 q 390 989 404 985 l 383 986 q 383 940 385 963 q 385 896 382 917 q 417 883 401 889 q 446 871 432 878 l 453 875 m 97 989 q 127 998 113 992 q 154 1007 142 1004 q 131 1015 144 1014 q 108 1024 118 1015 q 74 1016 92 1021 q 46 1007 57 1011 q 69 1000 56 1004 q 97 989 82 996 m 453 997 q 453 1038 451 1018 q 451 1078 454 1058 l 446 1081 q 417 1069 432 1075 q 390 1063 403 1064 q 383 1041 381 1053 q 383 1019 385 1029 q 413 1006 396 1010 q 444 993 429 1003 l 453 997 m 181 1026 q 179 1074 176 1050 q 176 1122 182 1099 q 143 1133 158 1125 q 111 1142 128 1142 q 111 1091 114 1117 q 115 1044 108 1065 q 144 1035 129 1038 q 172 1024 158 1033 l 181 1026 m 192 1139 q 219 1151 204 1147 q 244 1161 233 1154 q 208 1170 226 1163 q 174 1172 190 1178 q 156 1165 167 1167 q 138 1158 144 1163 q 165 1148 151 1150 q 192 1139 178 1146 m 568 1143 q 590 1153 579 1150 q 608 1158 600 1156 q 588 1165 597 1163 q 574 1172 578 1168 l 564 1169 q 564 1155 565 1163 q 567 1143 563 1147 l 568 1143 m 281 1169 q 308 1179 294 1175 q 336 1189 322 1183 q 229 1189 276 1211 q 253 1180 240 1185 q 281 1169 265 1175 m 371 1200 q 399 1209 385 1203 q 426 1219 414 1215 q 397 1228 411 1222 q 371 1238 382 1233 q 351 1231 360 1235 q 340 1226 343 1226 q 318 1219 336 1226 q 344 1210 332 1215 q 371 1200 357 1204 m 463 1231 q 490 1240 474 1235 q 514 1253 506 1244 q 487 1260 501 1254 q 463 1268 472 1267 q 443 1262 451 1267 q 426 1257 435 1257 q 417 1252 422 1253 q 410 1250 413 1251 q 436 1240 424 1244 q 463 1231 449 1235 z "},"3":{"ha":688,"x_min":0,"x_max":654,"o":"m 178 33 q 135 48 157 42 q 92 65 114 54 q 91 95 89 81 q 85 126 93 110 q 47 138 67 129 q 6 153 26 146 l 1 158 l 1 407 q 8 410 3 408 q 17 417 13 413 q 151 458 82 435 q 288 440 219 483 q 289 358 290 400 q 289 272 288 315 l 296 268 q 326 276 311 272 q 357 289 340 281 l 364 296 l 364 563 l 360 568 q 185 578 286 532 q 183 642 182 610 q 183 708 185 674 l 188 715 q 267 740 226 725 q 349 767 308 756 l 357 771 l 364 781 l 364 1046 l 360 1051 q 330 1045 344 1050 q 307 1038 315 1040 q 297 1032 299 1035 q 289 1022 294 1029 l 289 986 q 290 885 288 933 q 286 789 292 836 q 217 766 253 778 q 146 740 182 754 q 4 758 72 715 q 1 884 0 821 q 1 1011 3 947 l 8 1017 q 79 1039 47 1035 l 83 1042 q 92 1054 81 1042 l 92 1163 q 290 1235 190 1192 q 494 1281 392 1278 q 526 1269 508 1274 q 560 1257 543 1265 q 561 1231 563 1244 q 563 1206 560 1217 l 568 1196 q 609 1181 588 1186 q 651 1165 631 1175 q 653 980 654 1074 q 653 793 651 886 q 612 776 635 782 q 568 760 589 769 l 563 753 q 561 733 563 742 q 567 713 560 724 q 607 698 586 703 q 649 682 628 693 l 653 675 l 653 650 l 653 313 l 649 306 q 575 282 624 292 l 571 279 q 563 265 568 279 l 563 157 q 547 149 565 160 q 364 88 456 122 q 181 33 272 53 l 178 33 l 178 33 m 181 61 q 181 103 179 82 q 178 144 182 124 l 172 144 q 142 132 157 139 q 115 125 128 125 l 110 115 l 110 86 q 119 74 114 76 q 172 57 143 71 l 181 61 m 89 150 q 90 199 86 175 q 83 246 93 224 q 53 256 68 250 q 26 264 39 261 l 19 261 q 19 215 21 238 q 22 171 18 192 q 53 158 38 164 q 83 146 68 151 l 89 150 m 296 207 q 313 214 303 210 q 333 222 322 218 q 311 230 321 225 q 292 232 301 235 q 292 218 293 225 q 294 207 290 211 l 296 207 m 372 233 q 399 243 385 242 q 425 256 414 244 q 381 268 390 263 q 318 251 349 264 q 340 244 326 249 q 371 233 353 240 l 372 233 m 89 272 l 89 356 l 83 367 q 53 376 68 371 q 26 386 39 382 l 19 383 l 19 296 q 25 290 22 293 q 31 286 28 288 q 57 278 44 283 q 83 268 69 272 l 89 272 m 453 271 q 453 319 450 294 q 446 367 456 343 q 417 376 432 372 q 390 386 403 381 l 381 383 l 381 296 q 392 286 386 289 q 444 268 413 285 l 453 271 m 100 383 q 127 394 110 393 q 153 406 144 396 q 98 416 124 414 q 46 404 72 418 q 74 393 60 394 q 100 383 88 392 m 453 394 q 453 441 450 419 q 449 486 456 463 q 417 497 432 494 q 388 508 401 500 l 381 503 l 381 417 q 414 400 396 404 q 446 388 432 396 l 453 394 m 189 414 q 217 422 203 418 q 244 435 231 426 q 216 444 229 442 q 189 451 203 446 q 178 446 183 446 q 168 442 172 446 q 151 439 160 443 q 138 435 143 435 q 164 424 151 429 q 189 414 176 418 m 453 515 l 453 593 l 449 600 q 417 587 432 592 q 388 578 401 582 l 381 568 l 381 539 q 392 528 385 531 q 416 522 403 526 q 444 510 429 517 l 453 515 m 272 574 q 272 622 268 597 q 265 668 275 646 q 237 678 251 672 q 208 689 222 683 l 201 686 l 201 600 l 207 590 q 235 581 221 583 q 264 571 250 579 l 272 574 m 568 661 q 584 667 575 664 q 606 675 593 669 q 588 683 597 681 q 574 689 579 685 l 564 686 q 564 672 565 679 q 567 661 563 665 l 568 661 m 282 686 q 308 696 293 694 q 333 708 324 697 q 278 719 307 718 q 229 704 250 721 q 256 695 243 701 q 282 686 268 689 m 372 717 q 400 728 386 722 q 426 736 414 733 q 398 745 411 743 q 372 753 385 747 q 344 744 357 749 q 318 736 331 739 q 345 726 332 729 q 372 717 358 722 m 89 756 q 90 805 86 781 q 83 851 93 829 q 53 860 68 853 q 26 869 39 868 l 19 868 l 19 781 l 26 771 q 55 763 40 769 q 83 753 69 756 l 89 756 m 453 758 q 453 804 450 782 q 449 850 456 826 q 417 860 432 853 q 388 869 401 867 l 381 865 l 381 782 l 388 774 q 416 764 401 768 q 444 753 431 760 l 453 758 m 89 878 q 88 925 86 903 q 85 969 90 947 q 53 981 69 976 q 29 992 38 986 l 19 989 l 19 901 l 26 893 q 55 884 40 888 q 83 874 69 881 l 89 878 m 453 876 l 453 963 l 446 972 q 417 981 432 978 q 390 992 403 985 l 381 989 l 381 901 q 392 892 386 894 q 418 883 406 889 q 444 874 431 876 l 453 876 m 97 989 q 122 997 108 992 q 154 1008 136 1001 q 126 1017 140 1014 q 97 1026 111 1021 q 71 1016 85 1019 q 46 1008 57 1013 q 72 999 60 1004 q 97 989 85 993 m 453 997 l 453 1076 l 449 1083 q 388 1064 408 1068 l 381 1054 l 381 1024 q 392 1013 385 1015 q 418 1005 406 1011 q 444 993 431 999 l 453 997 m 181 1031 q 179 1076 176 1054 q 176 1122 182 1099 q 144 1131 160 1125 q 115 1142 129 1138 l 110 1138 l 110 1054 l 115 1046 q 144 1036 129 1040 q 172 1024 158 1032 l 181 1031 m 189 1139 q 217 1151 203 1147 q 244 1158 231 1154 q 138 1158 193 1185 q 164 1150 150 1153 q 189 1139 178 1147 m 568 1146 q 588 1152 579 1150 q 606 1158 597 1154 q 588 1166 597 1164 q 574 1172 579 1168 l 564 1169 q 564 1157 565 1164 q 567 1146 563 1150 l 568 1146 m 282 1169 q 307 1181 292 1179 q 335 1189 322 1182 q 229 1188 272 1218 q 253 1181 240 1186 q 282 1169 267 1176 m 372 1200 q 399 1212 385 1208 q 425 1222 414 1215 q 318 1219 358 1243 q 345 1210 332 1213 q 372 1200 358 1207 m 463 1231 q 490 1240 476 1236 q 517 1250 503 1244 q 410 1250 457 1275 q 436 1240 424 1244 q 463 1231 449 1236 z "},"4":{"ha":685,"x_min":0,"x_max":653,"o":"m 451 122 q 408 138 429 132 q 364 156 386 143 q 364 300 363 228 q 360 447 365 372 q 294 429 328 440 q 226 406 260 418 q 156 382 192 393 q 88 365 121 371 q 48 379 71 376 q 4 396 25 382 l 0 401 l 0 1129 l 4 1136 q 74 1158 39 1147 q 143 1183 108 1169 q 283 1167 213 1211 l 289 1160 l 289 758 l 289 635 l 296 629 q 326 640 311 635 q 357 653 342 646 l 364 664 l 364 1133 q 379 1142 361 1131 q 446 1163 413 1151 q 513 1185 479 1174 q 650 1167 582 1208 q 651 676 653 919 q 651 186 650 433 q 554 151 604 168 q 456 122 504 135 l 451 122 l 451 122 m 453 151 q 453 197 450 175 q 449 243 456 219 q 418 255 433 249 q 388 267 403 261 l 382 263 l 382 175 q 392 164 388 167 q 419 157 406 163 q 444 146 432 151 l 453 151 m 453 274 q 453 319 450 297 q 449 365 456 342 q 418 376 433 374 q 388 386 403 378 l 382 382 l 382 294 q 414 279 396 283 q 447 267 432 275 l 453 274 m 89 393 q 89 440 88 417 q 88 485 90 463 q 56 497 71 493 q 26 506 40 500 l 18 504 q 18 456 19 479 q 19 413 17 433 q 51 401 36 404 q 81 389 65 399 l 89 393 m 453 393 l 453 467 l 447 478 q 413 465 429 469 q 382 451 397 460 q 381 432 382 442 q 383 413 379 422 q 415 401 400 404 q 444 389 429 397 l 453 393 m 89 515 q 88 561 86 539 q 85 607 90 583 q 53 618 68 614 q 25 629 39 622 l 18 624 q 18 577 21 600 q 22 532 15 554 q 53 520 39 524 q 83 508 68 517 l 89 515 m 294 569 q 333 582 321 582 q 317 591 326 589 q 299 597 307 593 l 289 593 l 289 574 l 294 569 l 294 569 m 371 596 q 398 604 383 601 q 422 617 413 607 q 394 624 407 617 q 371 633 382 631 q 352 626 360 631 q 336 622 344 622 q 326 617 331 618 q 318 615 321 617 q 344 605 332 610 q 371 596 357 600 m 89 633 q 88 681 86 657 q 85 728 90 706 q 25 750 39 743 l 18 743 l 18 661 l 25 653 q 53 642 39 646 q 81 631 68 638 l 89 633 m 453 635 q 453 681 450 660 q 449 726 456 703 q 418 738 433 732 q 388 750 403 743 l 382 746 q 381 699 382 722 q 383 654 379 675 q 415 642 400 646 q 444 631 429 638 l 453 635 m 89 754 q 90 803 86 779 q 83 850 93 828 q 18 868 38 868 l 18 781 q 29 769 22 772 q 56 762 43 768 q 81 753 68 756 l 89 754 m 453 758 l 453 842 q 442 853 446 851 q 415 860 429 854 q 390 869 400 867 l 382 868 l 382 781 l 388 772 q 417 762 403 765 q 444 753 432 758 l 453 758 m 89 876 l 89 960 l 83 971 q 47 983 64 975 q 18 990 31 990 l 18 903 l 25 894 q 53 884 39 888 q 81 872 68 881 l 89 876 m 453 876 l 453 960 l 444 972 l 440 975 q 413 981 425 976 q 388 992 401 986 l 382 988 q 381 940 382 963 q 383 896 379 917 q 415 884 400 888 q 444 872 429 881 l 453 876 m 89 996 q 90 1045 86 1021 q 83 1092 93 1069 q 53 1102 68 1099 q 26 1111 39 1106 l 18 1110 l 18 1022 q 29 1013 24 1014 q 81 994 56 1007 l 89 996 m 453 996 q 453 1045 450 1021 q 447 1092 457 1069 q 417 1101 432 1096 q 390 1111 403 1107 l 382 1110 l 382 1022 l 388 1014 q 417 1005 403 1007 q 444 994 432 1003 l 453 996 m 99 1110 q 126 1118 113 1114 q 153 1129 139 1122 q 46 1129 94 1153 q 72 1119 60 1124 q 99 1110 85 1114 m 463 1110 q 490 1120 475 1118 q 514 1132 504 1122 q 478 1140 496 1132 q 444 1142 461 1149 q 431 1136 438 1139 q 414 1132 424 1133 l 410 1128 q 436 1119 424 1125 q 463 1110 449 1113 m 190 1140 q 217 1150 203 1149 q 242 1161 232 1151 q 215 1169 229 1164 q 190 1178 201 1175 q 161 1167 176 1169 q 138 1157 146 1164 q 164 1149 151 1156 q 190 1140 176 1143 m 551 1140 q 579 1149 565 1144 q 607 1160 593 1153 q 578 1169 592 1165 q 551 1178 564 1172 q 533 1171 542 1175 q 517 1167 524 1167 q 506 1162 511 1163 q 499 1160 501 1161 q 526 1149 514 1154 q 551 1140 538 1144 z "},"5":{"ha":688,"x_min":0,"x_max":654,"o":"m 89 0 q 47 16 68 13 q 1 32 25 19 l 1 164 q 133 210 64 189 q 269 257 203 231 q 274 315 276 285 q 275 375 271 344 q 315 391 292 386 q 360 407 338 396 l 367 415 l 367 564 l 357 568 q 181 504 267 547 q 4 517 94 463 q 2 821 0 668 q 1 1129 4 974 l 6 1135 q 174 1190 89 1164 q 347 1250 260 1217 q 499 1300 428 1269 q 649 1288 574 1331 l 653 1281 l 653 1154 q 647 1150 649 1154 q 638 1143 644 1146 q 469 1088 554 1118 q 299 1032 383 1058 q 290 892 286 961 q 292 753 294 824 l 299 749 q 364 769 331 758 q 429 790 397 779 q 560 771 494 814 l 564 764 l 564 717 l 571 707 q 649 682 611 697 l 653 675 l 653 426 q 651 426 654 428 q 638 418 647 424 q 604 408 622 415 q 568 394 586 400 q 564 336 561 367 q 564 276 567 306 q 523 260 546 264 q 479 244 500 256 l 472 235 q 469 124 472 126 q 458 115 465 121 l 449 115 q 269 53 357 86 q 93 0 182 21 l 89 0 l 89 0 m 92 31 q 90 77 88 56 q 88 121 93 99 q 53 133 68 125 q 22 142 38 142 q 22 92 25 117 q 26 46 19 68 q 55 36 40 40 q 83 24 69 32 l 92 31 m 103 140 q 128 151 114 147 q 154 158 143 154 q 126 170 140 164 q 97 176 111 176 q 72 167 85 169 q 49 158 58 164 q 76 149 63 151 q 103 140 89 147 m 192 169 q 218 180 203 179 q 246 189 233 181 q 140 188 183 218 q 164 181 151 186 q 192 169 176 176 m 283 200 q 310 212 296 208 q 335 222 325 215 q 229 219 278 243 q 256 208 243 211 q 283 200 269 206 m 364 239 q 363 288 360 264 q 357 335 367 313 q 328 344 343 339 q 300 353 314 349 l 294 350 q 294 303 296 326 q 296 260 292 281 q 328 247 313 253 q 357 235 343 242 l 364 239 m 375 350 q 398 361 385 358 q 422 368 411 364 l 428 372 q 399 381 413 375 q 372 390 385 388 q 344 379 357 385 q 318 371 331 374 q 375 350 354 360 m 456 390 q 455 438 451 414 q 449 486 458 463 q 420 494 435 489 q 392 506 406 500 l 383 503 l 383 415 q 394 406 389 406 q 415 399 401 404 q 447 388 428 394 l 456 390 m 92 511 q 91 560 88 536 q 85 608 94 585 q 55 615 69 610 q 29 625 40 621 l 22 622 q 22 576 24 599 q 24 531 21 553 q 85 507 56 521 l 92 511 m 456 511 l 456 590 l 451 597 q 421 585 436 590 q 390 578 406 581 l 383 568 l 383 538 l 390 529 q 419 519 404 522 q 447 507 433 515 l 456 511 m 92 636 l 92 719 l 85 726 q 55 737 69 733 q 29 747 40 740 l 22 744 l 22 653 q 51 641 35 643 q 83 629 68 639 l 92 636 m 571 660 q 590 667 581 665 q 608 672 600 668 q 590 680 600 678 q 575 686 581 682 l 567 683 q 567 671 568 676 q 568 660 565 665 l 571 660 m 299 690 q 317 696 308 694 q 335 703 326 697 q 317 710 326 708 q 303 717 308 713 l 294 714 q 294 701 296 707 q 296 690 292 694 l 299 690 m 372 714 q 400 724 386 722 q 428 733 414 726 q 319 733 371 760 q 347 724 335 726 q 372 714 360 721 m 464 744 q 490 755 478 753 q 517 764 503 757 q 411 763 464 794 q 439 753 426 760 q 464 744 451 747 m 92 753 q 91 802 88 778 q 85 850 94 826 q 55 858 69 851 q 29 867 40 864 l 22 865 q 22 817 24 840 q 24 774 21 793 q 55 760 40 767 q 85 749 69 754 l 92 753 m 92 878 l 92 960 l 85 969 q 55 979 69 975 q 29 989 40 983 l 22 986 l 22 896 q 51 883 35 885 q 83 871 68 881 l 92 878 m 92 996 q 91 1044 88 1019 q 85 1090 94 1068 q 55 1100 69 1097 q 29 1108 40 1103 l 22 1106 q 22 1059 24 1082 q 24 1014 21 1036 q 85 990 56 1004 l 92 996 m 103 1106 q 128 1119 114 1115 q 154 1126 143 1122 l 153 1129 q 125 1138 139 1132 q 100 1146 111 1143 q 71 1135 86 1138 q 46 1126 56 1132 q 74 1117 60 1124 q 103 1106 89 1111 m 194 1139 q 242 1154 221 1153 l 244 1158 q 228 1163 236 1161 q 214 1169 219 1165 q 175 1169 196 1176 q 140 1154 154 1163 q 192 1136 157 1154 l 194 1139 m 283 1168 q 309 1180 294 1178 q 338 1186 324 1182 q 313 1196 324 1193 q 292 1204 303 1199 q 260 1199 278 1203 q 232 1185 242 1194 q 283 1168 253 1182 m 375 1197 q 401 1209 386 1206 q 428 1217 415 1213 q 398 1228 413 1222 q 371 1235 383 1235 q 344 1225 357 1228 q 319 1217 331 1222 q 348 1208 335 1211 q 375 1197 361 1206 m 464 1229 q 490 1238 478 1236 q 517 1247 503 1240 q 411 1246 460 1279 q 464 1229 432 1244 m 556 1258 q 583 1270 568 1267 q 608 1281 597 1274 q 501 1278 549 1303 q 529 1268 515 1271 q 556 1258 543 1265 z "},"6":{"ha":685,"x_min":0,"x_max":651,"o":"m 176 33 q 133 49 154 44 q 89 67 113 53 q 89 96 88 81 q 83 126 90 111 q 44 138 64 131 q 4 153 24 146 l 0 160 l 0 769 q 35 788 13 782 q 76 799 57 793 l 81 800 l 89 813 l 89 922 q 130 938 107 933 q 174 956 153 943 l 181 964 l 181 1072 q 187 1076 185 1072 q 196 1083 189 1079 q 225 1092 210 1083 q 257 1100 240 1100 l 265 1104 l 272 1114 l 272 1222 l 276 1229 q 369 1260 322 1243 q 464 1290 417 1276 q 508 1276 485 1283 q 556 1260 532 1268 l 560 1253 l 560 1128 q 483 1099 521 1106 l 475 1094 l 468 1086 l 468 978 l 464 971 q 426 957 446 965 q 385 944 406 949 q 380 880 379 911 q 375 819 381 849 q 337 806 358 811 q 294 792 315 801 l 288 782 l 288 757 l 294 753 q 380 780 336 763 q 468 804 424 797 q 510 791 489 797 q 556 774 532 785 l 560 768 l 560 724 l 564 715 q 602 698 579 703 q 647 685 625 693 l 651 678 l 651 313 l 647 306 q 614 293 632 299 q 574 282 596 288 l 568 279 q 560 267 565 279 l 560 157 q 553 153 558 156 q 544 149 549 151 q 363 88 453 122 q 178 33 274 54 l 176 33 l 176 33 m 178 61 l 178 140 l 174 146 q 140 133 158 139 q 108 121 121 126 l 108 82 q 138 69 121 71 q 169 58 154 67 l 178 61 m 88 149 q 86 198 83 174 q 83 244 89 222 q 47 258 64 251 q 18 264 29 264 l 18 176 l 24 168 q 56 157 42 163 q 81 146 69 151 l 88 149 m 294 207 q 313 216 304 213 q 331 224 322 219 q 299 233 311 233 l 289 232 q 290 219 290 225 q 292 207 289 213 l 294 207 m 368 233 q 397 243 382 236 q 425 254 411 250 q 395 262 410 257 q 368 271 381 267 q 340 260 354 264 q 317 254 326 257 q 342 244 331 249 q 368 233 354 239 m 88 274 l 88 356 l 81 367 q 51 377 65 372 q 24 386 36 382 l 18 383 l 18 297 q 29 286 25 288 q 55 279 43 285 q 81 268 67 274 l 88 274 m 296 268 q 330 281 313 279 q 360 297 347 283 q 358 433 357 365 q 357 567 360 500 l 350 567 q 318 555 335 557 q 289 543 301 553 q 290 406 290 472 q 292 268 289 339 l 296 268 m 451 271 q 450 320 447 296 q 446 367 453 344 q 413 378 428 369 q 381 386 397 386 l 381 294 q 411 281 394 283 q 442 268 428 279 l 451 271 m 88 396 l 88 478 l 81 489 q 51 497 65 494 q 24 508 36 500 l 18 504 l 18 417 q 47 402 29 407 q 79 390 64 397 l 88 396 m 451 396 q 450 441 447 419 q 446 486 453 463 q 413 499 428 493 q 381 506 397 506 l 381 415 q 411 402 394 406 q 442 390 428 399 l 451 396 m 88 515 q 87 563 83 539 q 81 611 90 588 q 51 619 65 613 q 24 628 36 626 l 18 626 l 18 539 l 24 531 q 52 522 38 528 q 81 510 67 515 l 88 515 m 451 513 l 451 592 l 444 600 q 415 588 429 592 q 388 581 400 585 l 381 572 l 381 536 q 411 524 394 528 q 442 510 428 521 l 451 513 m 88 635 l 88 722 l 79 733 q 47 742 63 735 q 18 749 32 750 l 18 661 l 24 653 q 52 643 38 646 q 81 633 67 640 l 88 635 m 567 664 q 585 669 576 667 q 603 676 594 671 q 585 683 594 681 q 571 689 576 686 l 561 688 q 562 674 563 681 q 564 664 561 667 l 567 664 m 294 692 q 313 699 304 696 q 331 707 322 703 q 313 714 322 711 q 299 719 304 717 l 289 718 q 289 703 290 711 q 294 692 288 694 m 371 718 q 398 728 383 724 q 422 739 413 732 q 387 748 404 740 q 353 750 369 756 q 317 738 338 742 q 344 726 331 731 q 371 718 357 722 m 96 749 q 124 758 110 751 q 153 768 139 764 q 123 777 138 774 q 96 785 108 781 q 69 774 83 778 q 43 768 56 771 q 71 758 58 763 q 96 749 83 753 m 460 749 q 487 757 472 754 q 511 769 501 760 q 484 776 497 769 q 460 785 471 783 q 442 778 450 783 q 425 774 433 774 q 415 770 419 771 q 407 768 410 769 q 434 758 422 763 q 460 749 446 753 m 178 789 q 178 836 175 814 q 174 881 181 858 q 140 892 156 883 q 108 900 125 900 q 110 851 113 875 q 114 804 107 826 q 142 795 128 800 q 169 782 157 790 l 178 789 m 188 897 q 215 909 201 906 q 242 918 229 913 q 135 918 190 944 q 161 908 147 911 q 188 897 175 906 m 271 938 q 270 987 267 963 q 264 1033 274 1011 q 230 1043 246 1036 q 199 1050 214 1050 l 199 964 l 204 956 q 234 944 219 949 q 261 935 249 940 l 271 938 m 276 1050 q 305 1060 290 1054 q 333 1071 319 1067 q 303 1079 318 1076 q 276 1088 289 1082 q 249 1077 263 1081 q 225 1071 235 1074 q 251 1060 239 1065 q 276 1050 263 1056 m 360 1090 l 360 1172 l 353 1183 q 324 1194 339 1188 q 296 1203 308 1200 l 289 1201 l 289 1114 q 300 1103 293 1106 q 328 1095 315 1100 q 353 1086 340 1090 l 360 1090 m 371 1201 q 397 1212 379 1211 q 422 1222 414 1213 q 392 1231 407 1224 q 367 1238 378 1238 q 340 1228 353 1231 q 317 1221 326 1226 q 344 1211 331 1215 q 371 1201 357 1207 m 460 1232 q 487 1242 474 1238 q 514 1251 500 1246 q 485 1262 499 1260 q 460 1268 472 1264 q 447 1263 453 1264 q 438 1260 442 1263 q 422 1256 429 1261 q 407 1251 414 1251 q 434 1241 422 1246 q 460 1232 446 1236 z "},"7":{"ha":685,"x_min":0,"x_max":651,"o":"m 178 31 q 135 46 157 39 q 92 64 114 53 l 92 439 q 132 453 111 447 q 163 463 153 460 q 176 470 174 467 q 183 481 178 474 l 183 707 l 188 714 q 224 725 206 717 q 261 738 242 733 q 272 749 268 742 q 276 982 272 979 q 289 990 281 985 q 319 999 303 990 q 353 1010 335 1008 q 358 1014 356 1011 q 364 1019 361 1017 l 364 1046 l 357 1053 q 182 992 272 1035 q 4 999 94 950 l 0 1006 l 0 1132 q 216 1208 104 1172 q 438 1282 328 1243 q 544 1309 492 1304 q 644 1289 596 1314 l 651 1276 l 651 1033 q 647 1029 650 1032 q 636 1022 643 1026 q 567 1001 597 1015 l 560 992 l 560 761 q 524 744 547 749 q 479 731 500 740 l 471 718 l 471 492 l 467 485 q 427 472 446 475 q 388 458 408 468 l 379 446 l 379 97 l 375 90 q 282 60 329 78 q 188 31 235 42 l 178 31 l 178 31 m 181 58 l 181 144 q 171 156 174 154 q 142 163 157 157 q 118 174 128 169 l 110 171 l 110 83 l 115 75 q 144 66 129 68 q 172 56 158 64 l 181 58 m 181 179 l 181 263 q 171 278 174 275 q 138 285 154 278 q 110 293 121 293 l 110 206 l 115 197 q 144 187 129 190 q 172 175 158 183 l 181 179 m 181 300 q 181 348 178 324 q 174 396 183 372 q 145 404 160 399 q 118 415 131 410 l 110 413 l 110 325 l 115 317 q 144 308 129 310 q 172 297 158 306 l 181 300 m 190 413 q 217 424 204 421 q 242 433 229 426 q 138 431 186 464 q 164 422 151 429 q 190 413 176 415 m 271 451 q 270 501 267 476 q 264 549 274 525 q 234 556 249 550 q 207 565 219 561 l 201 563 q 201 515 203 539 q 203 471 199 492 q 264 447 235 461 l 271 451 m 271 574 q 269 620 267 599 q 265 665 272 642 q 210 688 236 676 l 201 685 l 201 597 l 207 589 q 236 580 222 583 q 264 569 250 576 l 271 574 m 282 685 q 308 695 290 692 q 333 707 325 699 q 279 717 306 715 q 226 704 253 719 q 254 693 240 697 q 282 685 268 689 m 363 724 l 363 807 l 356 818 q 320 830 338 822 q 290 838 303 838 l 290 751 q 301 740 294 743 q 328 731 315 738 q 353 721 340 724 l 363 724 m 363 844 q 362 892 358 868 q 356 940 365 917 q 326 949 340 946 q 299 960 311 953 l 290 957 l 290 869 q 296 864 293 867 q 301 860 299 861 q 325 853 313 858 q 353 842 338 849 l 363 844 m 371 957 q 398 965 385 961 q 425 978 411 969 q 318 978 367 1001 q 344 967 332 972 q 371 957 357 961 m 89 996 l 89 1079 l 83 1090 q 47 1103 64 1096 q 18 1110 31 1110 l 18 1022 l 25 1014 q 53 1004 39 1008 q 81 992 67 1000 l 89 996 m 453 999 l 453 1072 l 447 1082 q 413 1069 431 1071 q 382 1056 394 1067 q 381 1035 382 1044 q 383 1015 379 1026 q 415 1004 400 1008 q 444 992 429 1000 l 453 999 m 99 1107 q 153 1128 129 1121 q 46 1128 100 1156 q 99 1107 65 1122 m 190 1138 q 215 1149 200 1146 q 242 1157 231 1151 q 135 1157 196 1185 q 163 1149 149 1153 q 190 1138 176 1146 m 282 1168 q 308 1180 290 1179 q 333 1190 325 1181 q 303 1199 318 1192 q 278 1206 289 1206 q 251 1197 264 1199 q 226 1188 238 1194 q 254 1178 240 1181 q 282 1168 268 1176 m 371 1199 q 398 1210 385 1206 q 425 1218 411 1214 q 397 1228 410 1226 q 371 1236 383 1231 q 358 1231 364 1231 q 349 1228 353 1231 q 332 1224 340 1229 q 318 1218 324 1218 q 342 1210 329 1215 q 371 1199 356 1206 m 463 1229 q 490 1240 475 1238 q 515 1251 504 1242 q 460 1263 489 1261 q 410 1247 431 1264 q 436 1239 424 1244 q 463 1229 449 1233 m 554 1260 q 581 1271 568 1265 q 608 1279 594 1276 q 580 1288 593 1286 q 554 1297 567 1290 q 525 1287 539 1292 q 499 1279 511 1282 q 527 1269 514 1274 q 554 1260 540 1265 z "},"8":{"ha":688,"x_min":0,"x_max":654,"o":"m 181 31 q 138 47 160 40 q 93 65 117 54 q 93 93 92 78 q 88 125 94 108 q 47 139 67 135 q 4 154 26 143 q 2 340 0 246 q 1 528 4 435 q 42 544 19 539 q 88 560 65 550 l 93 568 l 93 600 l 88 608 q 42 625 63 618 q 4 636 21 632 q 2 822 0 729 q 3 963 4 915 q 6 1014 1 1011 q 18 1022 10 1017 q 47 1031 32 1022 q 79 1039 63 1039 l 88 1043 l 93 1051 l 93 1161 l 99 1168 q 328 1249 215 1189 q 560 1257 443 1310 q 561 1231 563 1244 q 563 1206 560 1217 l 568 1196 q 651 1168 621 1174 q 653 1092 654 1129 q 654 1015 651 1054 l 654 794 l 649 789 q 575 765 607 769 l 571 763 l 563 750 l 563 724 l 567 714 q 605 698 582 704 q 649 685 628 692 l 654 678 l 654 311 l 649 306 q 608 290 629 294 q 567 275 588 285 q 563 216 560 246 q 563 157 565 186 q 555 153 557 157 q 547 146 553 149 q 369 89 458 122 q 190 32 279 56 l 181 31 l 181 31 m 181 58 q 181 100 179 79 q 178 142 182 121 l 172 144 q 139 132 156 136 q 111 118 122 128 l 111 83 q 140 67 124 72 q 172 57 157 63 l 181 58 m 92 150 q 91 199 88 175 q 86 246 94 224 q 49 256 67 249 q 19 264 32 264 l 19 176 l 26 168 q 55 158 40 161 q 83 146 69 154 l 92 150 m 299 207 q 318 215 308 214 q 333 222 328 215 q 311 229 321 225 q 292 232 301 233 q 292 218 293 225 q 294 207 290 211 l 299 207 m 375 233 q 401 244 389 242 q 428 250 414 246 l 425 256 q 381 265 403 260 q 338 260 358 269 q 326 253 332 254 q 319 249 319 253 q 372 232 339 249 l 375 233 m 92 271 q 91 319 88 294 q 86 367 94 343 q 56 375 71 372 q 29 386 42 378 l 19 383 l 19 296 l 26 288 q 55 278 40 283 q 83 268 69 274 l 92 271 m 299 268 q 333 280 315 278 q 364 294 350 282 q 363 375 360 335 q 360 456 365 415 q 328 465 343 463 q 299 476 313 468 l 292 472 q 292 369 293 419 q 294 268 290 318 l 299 268 m 453 271 q 453 319 450 294 q 449 367 456 343 q 420 375 435 369 q 392 386 406 381 l 383 383 l 383 296 l 390 288 q 419 278 404 283 q 447 268 433 274 l 453 271 m 92 392 q 91 441 88 417 q 86 489 94 465 q 49 499 67 492 q 19 506 32 506 l 19 418 l 26 410 q 55 399 40 403 q 83 388 69 396 l 92 392 m 453 392 q 453 434 451 413 q 451 475 454 456 l 444 475 q 421 467 429 468 q 400 460 410 464 q 383 451 390 457 q 383 431 385 440 q 386 411 382 421 q 447 388 418 401 l 453 392 m 364 482 l 364 560 l 357 568 q 324 555 339 560 q 292 543 308 550 q 292 522 293 532 q 294 503 290 513 q 326 492 311 494 q 356 479 340 489 l 364 482 m 103 506 q 129 516 117 514 q 154 522 142 518 l 153 528 q 108 537 129 532 q 65 532 86 542 q 54 526 60 526 q 49 521 49 525 q 100 503 65 521 l 103 506 m 181 544 q 181 587 179 565 q 178 628 182 608 l 172 628 q 139 615 156 621 q 111 604 122 610 l 111 568 l 118 560 q 147 551 132 554 q 174 540 161 547 l 181 544 m 92 636 q 90 683 88 661 q 88 728 93 704 q 56 738 71 733 q 26 750 40 742 l 19 746 l 19 658 q 52 642 33 646 q 86 629 71 638 l 92 636 m 568 660 q 588 668 579 665 q 606 675 597 671 q 588 682 597 679 q 574 689 579 685 l 564 686 q 565 672 567 679 q 567 660 563 665 l 568 660 m 388 721 q 425 736 406 729 q 403 744 413 739 q 383 746 393 749 q 383 732 385 739 q 386 721 382 725 l 388 721 m 92 756 q 90 803 88 781 q 88 847 93 825 q 56 860 71 854 q 26 871 40 865 l 19 868 q 19 819 21 842 q 22 776 18 797 q 53 765 38 768 q 83 753 68 761 l 92 756 m 453 756 l 453 839 l 447 850 q 417 860 432 854 q 390 869 403 865 l 383 868 l 383 781 q 394 769 389 771 q 421 761 408 767 q 447 753 433 756 l 453 756 m 299 813 q 318 819 308 818 q 333 828 328 821 q 316 833 324 828 q 300 839 308 839 l 292 838 q 292 824 293 831 q 294 813 290 817 l 299 813 m 364 844 l 364 1046 l 360 1051 q 333 1042 349 1046 q 299 1032 318 1038 l 292 1024 l 292 871 l 299 863 q 327 853 313 856 q 356 843 342 850 l 364 844 m 92 876 q 91 924 88 900 q 86 971 94 949 q 51 982 67 975 q 19 989 36 989 l 19 901 l 26 893 q 55 882 40 886 q 83 874 69 878 l 92 876 m 453 878 l 453 961 l 447 971 q 417 981 432 978 q 390 990 403 983 l 383 986 l 383 900 q 413 885 396 890 q 444 874 429 879 l 453 878 m 99 989 q 127 999 113 992 q 154 1008 142 1006 q 126 1017 140 1011 q 99 1026 111 1022 q 71 1015 85 1019 q 46 1008 57 1011 q 72 999 60 1004 q 99 989 85 993 m 453 997 q 453 1040 451 1018 q 451 1081 454 1061 l 444 1081 q 411 1069 428 1072 q 383 1057 394 1065 l 383 1022 l 390 1013 q 419 1004 404 1011 q 447 993 433 997 l 453 997 m 181 1028 l 181 1111 l 174 1122 q 145 1132 160 1126 q 118 1142 131 1138 l 111 1139 l 111 1051 q 122 1042 117 1043 q 149 1034 136 1040 q 174 1024 161 1028 l 181 1028 m 192 1139 q 219 1150 201 1149 q 244 1161 236 1151 q 215 1169 229 1163 q 188 1176 200 1176 q 161 1167 174 1169 q 138 1158 149 1165 q 165 1150 151 1154 q 192 1139 178 1146 m 568 1143 q 584 1150 575 1146 q 606 1158 593 1154 q 588 1166 597 1164 q 574 1172 579 1168 l 564 1169 q 565 1156 567 1164 q 568 1143 563 1147 m 282 1169 q 309 1181 296 1176 q 336 1189 322 1185 q 307 1199 321 1197 q 282 1207 293 1201 q 269 1201 275 1201 q 260 1199 264 1201 q 243 1194 251 1200 q 229 1189 235 1189 q 256 1179 243 1185 q 282 1169 268 1174 m 372 1200 q 399 1210 385 1208 q 425 1222 414 1213 q 370 1233 399 1232 q 319 1218 342 1235 q 347 1210 335 1215 q 372 1200 360 1204 m 463 1231 q 491 1240 476 1233 q 519 1250 506 1247 q 490 1260 504 1257 q 463 1268 475 1263 q 435 1257 449 1261 q 410 1250 421 1253 q 436 1240 424 1244 q 463 1231 449 1236 z "},"9":{"ha":686,"x_min":0,"x_max":653,"o":"m 449 119 q 406 136 428 132 q 361 151 383 140 q 362 297 360 224 q 357 444 364 369 q 226 404 294 428 q 93 422 161 381 l 89 429 l 89 476 l 83 486 q 44 497 64 492 q 4 514 24 503 l 0 521 q 4 1010 0 1008 q 15 1018 8 1013 q 44 1027 29 1018 q 76 1036 60 1036 l 81 1039 l 89 1051 l 89 1160 q 92 1160 88 1158 q 104 1169 96 1163 q 329 1247 215 1188 q 557 1254 444 1306 q 558 1225 561 1240 q 564 1193 556 1210 q 604 1179 583 1185 q 647 1165 625 1174 l 651 1158 l 651 1097 q 651 637 650 864 q 647 181 653 410 q 552 147 603 165 q 453 119 501 129 l 449 119 l 449 119 m 450 147 q 451 197 447 172 q 444 243 454 221 q 415 251 429 246 q 388 261 400 257 l 381 260 q 381 211 382 235 q 383 168 379 188 q 415 155 400 161 q 444 143 429 149 l 450 147 m 450 272 l 450 354 l 444 364 q 415 374 429 369 q 388 382 400 378 l 381 381 l 381 289 q 411 277 394 279 q 442 265 428 275 l 450 272 m 450 392 q 450 432 449 413 q 449 472 451 451 l 444 474 q 415 463 429 465 q 388 456 400 461 l 381 449 q 381 428 382 438 q 383 408 379 418 q 444 385 415 399 l 450 392 m 178 419 l 178 499 l 174 506 q 140 492 158 494 q 108 479 121 490 q 109 458 111 468 q 111 439 107 449 q 172 415 143 429 l 178 419 m 88 511 l 88 594 l 81 606 q 51 615 65 610 q 24 625 36 621 l 18 622 l 18 536 q 29 525 21 528 q 55 517 43 522 q 81 507 67 511 l 88 511 m 294 568 q 313 576 304 575 q 332 581 322 576 q 314 588 322 586 q 299 594 306 590 l 289 592 q 290 578 292 585 q 292 568 289 572 l 294 568 m 371 592 q 397 603 379 601 q 422 614 414 604 q 368 626 396 622 q 318 610 340 629 q 371 592 339 608 m 88 629 q 86 678 83 654 q 83 725 89 701 q 47 738 64 731 q 18 744 29 744 l 18 657 l 24 649 q 81 626 63 636 l 88 629 m 296 626 q 324 638 308 635 q 353 649 340 642 l 360 656 q 358 852 357 753 q 357 1047 360 951 l 350 1047 q 318 1035 335 1038 q 289 1024 301 1033 q 290 823 293 924 q 294 626 288 722 l 296 626 m 450 632 q 451 680 447 656 q 444 726 454 704 q 415 736 429 733 q 388 744 400 739 l 381 743 q 381 694 382 718 q 383 650 379 671 q 444 626 415 640 l 450 632 m 88 753 l 88 836 l 81 847 q 51 857 65 851 q 24 867 36 863 l 18 864 l 18 778 q 29 767 21 769 q 55 758 43 764 q 81 749 67 753 l 88 753 m 450 751 q 450 799 447 775 q 446 847 453 824 q 413 858 428 850 q 381 867 397 867 l 381 775 q 411 762 394 765 q 442 749 428 758 l 450 751 m 88 874 l 88 960 l 79 971 q 47 979 63 972 q 18 986 32 986 l 18 899 l 24 890 q 52 879 38 883 q 81 871 67 875 l 88 874 m 450 875 q 450 921 447 899 q 446 967 453 943 q 413 980 428 974 q 381 986 397 986 l 381 894 q 411 883 394 886 q 442 871 428 879 l 450 875 m 96 986 q 124 996 110 989 q 153 1006 139 1003 q 123 1015 138 1010 q 96 1024 108 1019 q 69 1013 83 1017 q 43 1006 56 1010 q 71 996 58 1001 q 96 986 83 990 m 450 993 q 450 1035 449 1015 q 449 1078 451 1056 l 444 1079 q 415 1067 429 1071 q 388 1060 400 1064 l 381 1051 q 381 1031 382 1042 q 385 1013 381 1021 q 415 1003 400 1007 q 442 990 429 999 l 450 993 m 178 1024 q 178 1072 175 1047 q 174 1119 181 1096 q 140 1131 156 1122 q 108 1139 125 1139 l 108 1047 q 138 1034 121 1038 q 169 1021 154 1031 l 178 1024 m 188 1136 q 215 1147 201 1144 q 242 1157 229 1150 q 135 1157 190 1183 q 161 1147 147 1150 q 188 1136 175 1143 m 567 1143 q 585 1149 576 1147 q 603 1157 594 1151 q 585 1163 594 1161 q 571 1169 576 1165 l 563 1167 q 562 1153 563 1160 q 564 1143 561 1147 l 567 1143 m 279 1167 q 306 1178 293 1175 q 333 1186 319 1181 q 226 1185 272 1214 q 253 1177 240 1183 q 279 1167 265 1171 m 371 1197 q 398 1208 383 1204 q 422 1219 413 1213 q 317 1217 361 1240 q 344 1207 331 1211 q 371 1197 357 1203 m 460 1228 q 488 1238 474 1233 q 514 1247 501 1242 q 485 1257 499 1254 q 460 1265 472 1260 q 441 1258 449 1263 q 425 1254 433 1254 q 415 1249 419 1250 q 407 1247 410 1249 q 431 1240 418 1244 q 460 1228 444 1235 z "}," ":{"ha":694,"x_min":0,"x_max":0,"o":""},"!":{"ha":693,"x_min":0,"x_max":660,"o":"m 547 0 q 367 60 456 32 q 186 122 278 88 l 186 378 q 193 381 189 379 q 203 386 197 382 q 235 394 218 389 q 272 410 253 400 q 276 613 279 511 q 276 819 274 715 q 142 867 214 844 q 4 913 71 890 q 1 978 0 946 q 1 1044 3 1011 l 7 1051 q 91 1076 47 1071 q 178 1058 135 1081 l 182 1060 l 186 1067 l 186 1106 l 192 1113 q 229 1127 210 1124 q 269 1142 249 1131 l 276 1150 l 276 1199 l 281 1206 q 333 1222 307 1211 q 386 1236 358 1232 q 473 1205 429 1218 q 561 1175 517 1192 l 567 1168 l 567 326 l 578 314 q 614 305 596 313 q 653 292 632 297 l 660 281 q 656 32 660 35 q 643 24 651 29 q 597 10 619 21 q 551 0 574 0 l 547 0 l 547 0 m 549 26 q 549 76 546 51 q 543 122 551 100 q 512 133 526 128 q 485 143 497 139 l 479 139 l 479 50 q 508 35 492 38 q 540 24 525 33 l 549 26 m 460 57 q 459 106 456 82 q 453 154 463 131 q 419 165 435 157 q 386 172 403 172 l 386 83 l 393 74 q 422 65 407 68 q 450 54 436 61 l 460 57 m 367 89 q 365 136 363 114 q 363 182 368 158 q 331 193 346 190 q 301 204 315 196 l 294 200 l 294 113 q 327 95 308 100 q 360 83 346 90 l 367 89 m 275 118 q 274 167 271 143 q 268 215 278 192 q 238 224 253 218 q 211 232 224 229 l 204 231 q 204 183 206 206 q 206 139 203 160 q 238 126 222 132 q 268 114 253 119 l 275 118 m 549 149 q 549 198 546 174 q 543 246 551 222 q 512 254 526 249 q 485 263 497 260 l 479 261 q 478 213 481 236 q 481 169 476 190 q 512 157 497 163 q 543 144 526 151 l 549 149 m 460 181 q 458 226 456 204 q 456 272 461 249 q 422 283 438 278 q 393 296 407 289 l 386 292 q 386 244 388 267 q 389 200 385 221 q 420 188 406 192 q 450 175 435 183 l 460 181 m 367 210 q 367 258 365 235 q 364 303 368 281 q 330 316 346 310 q 299 325 314 322 l 294 318 l 294 235 q 306 224 299 226 q 358 206 326 222 l 367 210 m 275 242 l 275 325 l 268 336 q 238 346 253 340 q 211 356 224 351 l 204 353 l 204 265 q 215 254 211 256 q 242 247 231 253 q 268 236 254 242 l 275 242 m 560 261 q 586 273 571 271 q 615 281 601 275 q 590 290 601 288 q 568 299 579 292 q 535 292 553 296 q 507 279 518 289 q 560 261 533 275 m 460 300 l 460 389 q 449 400 453 399 q 420 407 435 401 q 396 417 406 413 l 386 414 l 386 326 l 393 318 q 422 309 407 311 q 450 299 436 307 l 460 300 m 367 332 q 367 381 363 356 q 360 428 371 406 q 294 446 314 446 l 294 358 q 306 347 297 350 q 332 338 319 344 q 358 329 344 332 l 367 332 m 268 358 q 274 369 276 363 q 275 382 272 376 l 268 386 q 249 378 258 379 q 231 374 239 378 q 250 365 240 368 q 268 358 260 363 m 460 426 l 460 510 l 450 521 q 393 540 418 526 l 386 536 q 386 488 388 511 q 389 443 385 464 q 420 431 406 435 q 450 419 435 428 l 460 426 m 367 453 q 365 501 363 476 q 363 549 368 525 q 301 571 319 561 l 294 564 l 294 481 l 301 472 q 330 462 315 465 q 358 450 344 458 l 367 453 m 460 544 q 459 594 456 569 q 453 640 463 618 q 423 650 438 644 q 396 661 408 656 l 386 658 l 386 571 l 393 561 q 422 552 407 554 q 450 542 436 550 l 460 544 m 367 575 q 367 624 363 600 q 360 671 371 649 q 326 683 342 678 q 294 689 311 689 l 294 601 q 306 590 299 593 q 358 572 333 586 l 367 575 m 460 667 q 459 716 456 692 q 453 764 463 740 q 417 774 435 767 q 386 782 400 782 l 386 693 l 393 685 q 422 674 407 678 q 450 663 436 671 l 460 667 m 367 699 l 367 782 l 360 792 q 324 805 342 797 q 294 813 307 813 l 294 724 l 301 715 q 330 705 315 708 q 358 693 344 701 l 367 699 m 460 788 q 459 837 456 813 q 453 885 463 861 q 423 893 438 888 q 396 904 408 899 l 386 901 l 386 814 q 397 804 392 806 q 424 796 410 801 q 450 786 438 790 l 460 788 m 367 819 q 367 868 363 843 q 360 915 371 893 q 331 925 346 922 q 303 935 317 928 l 294 933 l 294 846 q 306 835 299 838 q 330 828 317 833 q 358 817 343 824 l 367 819 m 275 850 q 274 899 271 874 q 268 946 278 924 q 238 956 253 953 q 211 965 224 958 l 204 961 l 204 874 q 234 859 217 864 q 265 847 251 854 l 275 850 m 185 881 q 184 929 181 904 q 178 978 188 954 q 144 988 160 981 q 113 994 128 994 l 113 907 l 118 897 q 148 888 133 892 q 175 878 163 883 l 185 881 m 92 913 q 90 960 88 938 q 88 1006 93 982 q 56 1015 71 1013 q 26 1026 40 1018 l 19 1022 l 19 935 q 52 919 33 924 q 86 907 71 915 l 92 913 m 460 911 l 460 999 q 449 1010 453 1008 q 416 1018 432 1011 q 386 1025 400 1025 l 386 938 l 393 928 q 422 919 407 922 q 450 907 436 915 l 460 911 m 367 942 q 367 990 363 965 q 360 1039 371 1015 q 324 1049 342 1042 q 294 1056 307 1056 l 294 968 q 306 957 301 958 q 332 949 319 956 q 358 938 344 942 l 367 942 m 275 972 l 275 1056 l 268 1067 q 239 1078 253 1074 q 211 1086 225 1083 l 204 1085 q 204 1036 206 1060 q 206 992 203 1013 q 238 980 222 985 q 268 968 253 975 l 275 972 m 185 1003 q 181 1026 178 1029 q 158 1018 168 1019 q 139 1014 147 1017 q 159 1007 150 1011 q 175 999 168 1003 l 185 1003 m 101 1022 q 128 1034 115 1029 q 154 1044 140 1039 q 125 1054 139 1051 q 99 1063 111 1057 q 72 1051 86 1056 q 49 1043 57 1047 q 75 1035 63 1042 q 101 1022 88 1028 m 460 1035 q 458 1081 456 1058 q 456 1126 461 1103 q 422 1138 438 1132 q 393 1150 407 1143 l 386 1146 q 386 1098 388 1121 q 389 1054 385 1075 q 420 1042 406 1046 q 450 1029 435 1038 l 460 1035 m 367 1063 q 367 1112 363 1088 q 360 1158 371 1136 q 331 1169 346 1165 q 303 1179 317 1174 l 294 1176 l 294 1089 l 301 1079 q 330 1072 315 1075 q 358 1060 344 1068 l 367 1063 m 275 1096 q 274 1107 272 1101 q 272 1118 275 1113 l 265 1118 q 247 1110 256 1114 q 231 1104 239 1106 q 265 1092 251 1100 l 275 1096 m 468 1146 q 494 1156 479 1156 q 522 1165 508 1157 q 415 1164 461 1196 q 468 1146 443 1160 m 375 1176 q 403 1188 390 1183 q 431 1196 417 1192 q 402 1206 415 1204 q 375 1214 389 1208 q 364 1208 369 1208 q 353 1206 358 1208 q 338 1201 346 1207 q 322 1196 329 1196 q 350 1187 338 1192 q 375 1176 363 1182 z "},"#":{"ha":693,"x_min":0,"x_max":661,"o":"m 457 31 q 278 90 368 63 q 97 153 189 118 q 94 208 93 182 q 94 265 96 235 q 82 281 90 276 q 44 289 63 282 q 7 304 26 296 l 3 311 l 3 557 l 7 564 q 146 581 76 608 q 217 556 182 568 q 288 533 251 544 l 292 526 l 292 299 q 306 283 294 288 q 331 277 317 282 q 363 265 344 272 l 367 268 q 369 402 371 335 q 369 540 367 469 q 356 556 365 550 q 272 581 315 567 q 189 613 228 594 q 188 676 186 643 q 186 742 189 708 l 193 749 q 276 772 233 767 q 360 753 318 778 q 368 899 367 829 q 365 1036 369 969 q 332 1048 349 1046 q 299 1060 315 1050 l 294 1058 q 292 973 290 1017 q 292 908 293 929 q 276 878 292 888 q 140 867 210 839 q 4 915 71 897 q 2 1042 0 979 q 3 1172 4 1106 q 43 1186 22 1182 q 86 1201 64 1190 l 94 1214 l 94 1263 q 101 1266 96 1264 q 110 1271 106 1268 q 335 1254 222 1310 q 563 1175 450 1197 l 567 1168 l 567 1063 l 571 1054 l 575 1049 q 614 1036 593 1042 q 654 1021 635 1031 l 660 1014 l 660 724 q 659 678 657 699 q 654 638 661 658 q 615 626 635 633 q 574 610 594 618 l 567 601 l 567 571 l 574 561 q 607 551 589 557 q 643 540 625 544 q 653 535 650 538 q 657 531 656 532 q 658 344 660 439 q 660 156 657 249 q 653 151 657 153 q 643 146 649 150 q 610 138 628 143 q 574 122 593 132 l 567 114 l 567 65 q 517 43 547 53 q 460 31 486 33 l 457 31 l 457 31 m 460 57 l 460 144 q 454 150 457 147 q 449 156 451 153 q 420 163 435 157 q 396 174 406 169 l 386 171 l 386 83 l 393 75 q 422 65 407 68 q 450 54 436 63 l 460 57 m 367 89 q 367 136 364 114 q 363 182 369 158 q 331 194 346 190 q 301 204 315 197 l 294 200 l 294 111 q 327 96 307 99 q 360 83 347 93 l 367 89 m 275 121 q 274 167 271 144 q 271 213 276 189 q 235 225 253 218 q 204 232 217 232 l 204 144 l 211 136 q 244 124 231 129 q 268 114 258 119 l 275 121 m 185 149 q 184 198 181 174 q 178 246 188 222 q 142 256 160 249 q 113 263 125 263 l 113 175 l 118 167 q 148 156 133 160 q 175 144 163 153 l 185 149 m 550 149 q 549 198 546 174 q 543 246 551 222 q 513 254 528 249 q 486 263 499 260 l 479 261 q 479 213 481 236 q 481 169 478 190 q 513 156 497 163 q 543 144 528 150 l 550 149 m 460 182 l 460 265 l 450 276 q 421 284 435 279 q 393 296 407 289 l 386 292 q 386 244 388 267 q 389 200 385 221 q 420 188 406 192 q 450 175 435 183 l 460 182 m 358 206 q 367 213 369 204 q 367 226 365 222 l 360 235 q 339 226 350 228 q 324 219 328 224 q 342 214 333 221 q 358 206 350 207 m 286 232 q 313 242 299 240 q 339 254 328 244 q 294 268 304 261 q 231 250 260 264 q 258 241 246 246 q 283 232 269 236 l 286 232 m 185 272 q 183 319 181 296 q 181 364 186 342 q 149 376 164 371 q 118 389 133 382 l 113 383 l 113 296 q 124 285 117 288 q 150 278 138 283 q 175 268 163 272 l 185 272 m 550 272 l 550 356 l 543 367 q 513 376 528 371 q 486 386 499 382 l 479 383 l 479 296 q 485 290 482 293 q 490 285 488 288 q 517 278 504 283 q 543 268 529 272 l 550 272 m 92 300 q 92 349 89 325 q 86 397 96 374 q 56 407 71 404 q 29 417 42 410 l 19 414 l 19 326 q 31 317 25 318 q 83 299 57 313 l 92 300 m 460 300 q 459 349 456 325 q 453 397 463 374 q 423 406 438 400 q 396 417 408 411 l 386 414 l 386 326 l 393 318 q 422 309 407 311 q 450 299 436 307 l 460 300 m 185 396 q 183 442 181 419 q 181 488 186 464 q 149 497 164 494 q 118 510 133 500 l 113 504 l 113 417 q 144 401 126 406 q 178 389 163 397 l 185 396 m 544 389 q 549 435 550 413 q 550 481 547 458 l 543 490 q 513 498 528 496 q 486 510 499 500 l 479 504 q 479 457 481 481 q 481 413 478 433 q 513 400 497 406 q 543 389 528 394 l 544 389 m 92 424 q 92 472 89 447 q 86 521 96 497 q 50 530 67 522 q 19 538 33 538 l 19 450 q 31 439 24 442 q 58 430 46 436 q 83 419 69 424 l 92 424 m 460 424 q 459 472 456 447 q 453 521 463 497 q 417 530 435 522 q 386 538 400 538 l 386 450 l 393 440 q 422 431 407 435 q 450 419 436 428 l 460 424 m 193 507 q 219 517 207 511 q 246 522 232 522 l 249 526 q 142 529 194 549 l 139 524 q 165 516 153 521 q 192 507 178 511 l 193 507 m 560 507 q 588 517 574 515 q 613 529 603 519 q 569 542 582 531 q 538 535 554 540 q 504 524 522 531 q 532 516 519 521 q 557 507 544 511 l 560 507 m 101 536 q 131 548 117 543 q 156 556 144 553 q 128 566 144 561 q 99 575 113 571 q 68 563 81 568 q 49 556 56 558 q 72 548 58 553 q 101 536 85 543 m 460 544 q 459 592 456 568 q 453 640 463 617 q 423 649 438 643 q 396 661 408 656 l 386 658 l 386 571 q 399 560 392 563 q 424 552 413 557 q 450 542 436 547 l 460 544 m 367 575 q 367 624 364 600 q 360 671 371 649 q 331 681 346 678 q 303 692 317 685 l 294 689 l 294 601 q 306 590 299 594 q 330 584 317 589 q 358 572 343 579 l 367 575 m 275 606 q 274 655 271 631 q 268 703 278 679 q 238 712 253 708 q 211 722 224 715 l 204 718 l 204 631 q 234 615 217 618 q 265 604 251 611 l 275 606 m 550 636 q 549 685 546 661 q 543 733 551 710 q 513 742 528 739 q 486 753 499 744 l 479 749 l 479 661 q 508 645 492 650 q 540 635 525 640 l 550 636 m 460 667 q 459 716 456 692 q 453 764 463 740 q 417 774 435 767 q 386 782 400 782 l 386 693 l 393 685 q 422 674 407 678 q 450 664 436 671 l 460 667 m 367 697 q 367 710 365 704 q 365 719 368 715 l 358 722 q 340 715 347 717 q 324 710 332 713 q 342 701 333 707 q 358 693 350 696 l 367 697 m 283 719 q 313 729 297 724 q 340 740 328 735 q 310 749 325 746 q 283 757 296 753 q 265 750 274 754 q 249 746 257 746 q 238 742 243 743 q 231 740 233 742 q 258 729 246 735 q 283 719 269 724 m 550 760 q 549 808 546 783 q 543 857 551 833 q 513 864 528 857 q 486 874 499 871 l 479 871 l 479 783 l 486 775 q 515 767 500 774 q 543 754 529 760 l 550 760 m 460 790 q 458 837 456 814 q 456 882 461 860 q 422 894 438 889 q 393 907 407 899 l 386 901 q 386 854 388 878 q 389 810 385 831 q 420 798 406 801 q 450 786 435 794 l 460 790 m 185 881 q 184 929 181 904 q 178 976 188 954 q 147 987 163 981 q 121 996 131 993 l 113 994 l 113 907 l 118 897 q 148 888 133 892 q 175 878 163 885 l 185 881 m 550 881 q 549 929 546 904 q 543 976 551 954 q 513 987 528 983 q 486 996 499 990 l 479 992 l 479 904 q 508 890 492 894 q 540 878 525 885 l 550 881 m 92 913 q 92 960 89 938 q 88 1006 94 982 q 56 1017 71 1013 q 26 1028 40 1021 l 19 1022 q 21 976 24 997 q 25 931 18 954 q 56 918 40 922 q 86 907 71 914 l 92 913 m 460 911 q 459 959 456 935 q 453 1008 463 983 q 419 1018 435 1011 q 386 1025 403 1025 l 386 938 l 393 928 q 422 918 407 922 q 450 908 436 914 l 460 911 m 557 994 q 582 1002 568 997 q 615 1014 596 1007 q 585 1023 600 1019 q 557 1032 571 1026 q 531 1021 544 1025 q 504 1014 517 1017 q 532 1004 519 1010 q 557 994 544 999 m 185 1006 l 185 1089 q 172 1101 178 1097 l 163 1101 q 140 1110 150 1107 q 118 1119 129 1114 l 113 1115 q 113 1067 114 1090 q 115 1022 111 1043 q 146 1010 131 1014 q 175 999 161 1007 l 185 1006 m 92 1032 q 92 1080 89 1056 q 88 1129 94 1104 q 56 1138 71 1131 q 26 1149 40 1144 l 19 1143 l 19 1060 l 26 1051 q 55 1041 40 1044 q 83 1029 69 1038 l 92 1032 m 460 1035 q 458 1081 456 1058 q 456 1126 461 1103 q 422 1138 438 1132 q 393 1150 407 1143 l 386 1146 l 386 1058 l 393 1049 q 422 1041 408 1046 q 450 1029 436 1036 l 460 1035 m 367 1067 l 367 1150 l 360 1158 q 331 1169 346 1165 q 303 1179 317 1174 l 294 1176 l 294 1089 q 306 1078 299 1082 q 358 1060 326 1076 l 367 1067 m 275 1096 l 275 1179 l 268 1189 q 238 1200 253 1194 q 211 1210 224 1206 l 204 1208 l 204 1119 l 211 1111 q 240 1101 225 1104 q 268 1090 256 1099 l 275 1096 m 185 1124 l 185 1213 q 174 1222 179 1219 q 145 1230 160 1224 q 121 1240 131 1236 l 113 1238 l 113 1150 l 118 1142 q 148 1132 133 1135 q 175 1122 163 1129 l 185 1124 m 468 1146 q 494 1157 479 1154 q 522 1165 508 1160 q 496 1175 508 1172 q 472 1183 483 1178 q 442 1174 456 1181 q 413 1165 428 1168 q 441 1157 428 1160 q 468 1146 454 1154 m 92 1157 q 88 1181 85 1183 q 49 1165 53 1167 q 83 1153 67 1160 l 92 1157 m 376 1176 q 403 1188 390 1186 q 431 1196 417 1189 q 402 1206 415 1203 q 376 1214 389 1210 q 349 1205 363 1210 q 324 1196 335 1200 q 350 1186 336 1189 q 376 1176 364 1183 m 286 1208 q 313 1219 299 1215 q 339 1229 328 1222 q 231 1226 268 1249 q 259 1216 246 1218 q 286 1208 272 1214 m 193 1238 q 221 1248 206 1246 q 246 1260 236 1250 q 191 1272 219 1271 q 142 1256 163 1272 q 167 1247 156 1253 q 193 1238 179 1242 z "},"$":{"ha":688,"x_min":0,"x_max":656,"o":"m 544 0 q 454 32 499 19 q 364 63 410 44 q 365 247 361 154 q 357 431 369 339 q 181 486 269 457 q 4 549 93 515 q 1 917 0 733 q 1 1289 3 1101 q 143 1308 72 1335 q 215 1283 179 1294 q 286 1261 250 1272 l 290 1254 l 290 1010 l 290 657 q 319 644 300 647 q 356 632 339 640 l 363 633 q 364 838 365 735 q 364 1044 363 940 q 396 1058 379 1050 q 430 1070 413 1065 q 464 1076 447 1075 q 497 1071 481 1078 q 574 1044 536 1057 q 650 1018 611 1032 l 656 1013 l 656 32 q 618 20 636 26 q 581 6 600 14 l 565 0 l 544 0 l 544 0 m 546 31 q 546 77 543 56 q 542 122 549 99 q 510 132 525 128 q 481 144 494 136 l 474 140 l 474 53 q 506 36 489 40 q 539 24 524 32 l 546 31 m 454 58 q 453 108 450 83 q 447 154 457 132 q 419 164 433 158 q 392 174 404 169 l 383 171 q 384 123 386 146 q 386 79 382 100 q 418 67 403 72 q 447 56 433 61 l 454 58 m 546 149 q 547 197 543 174 q 539 244 550 221 q 509 256 524 251 q 483 264 494 260 l 474 261 l 474 174 q 479 168 476 171 q 485 164 482 165 q 508 158 494 163 q 538 146 521 153 l 546 149 m 454 179 q 453 228 450 203 q 447 275 457 253 q 419 285 433 279 q 392 294 404 290 l 383 293 l 383 206 l 392 197 q 420 188 406 190 q 447 176 435 185 l 454 179 m 546 274 q 546 319 543 297 q 542 365 549 342 q 510 376 525 374 q 481 386 494 378 l 474 382 l 474 294 q 506 279 489 283 q 539 267 524 275 l 546 274 m 454 301 q 453 350 450 325 q 447 397 457 375 q 419 406 433 400 q 392 415 404 411 l 383 413 q 384 365 386 388 q 386 321 382 342 q 418 309 403 315 q 447 297 433 303 l 454 301 m 546 393 l 546 476 l 539 488 q 509 497 524 493 q 483 507 494 501 l 474 504 q 474 458 475 481 q 476 413 472 435 q 507 401 492 404 q 538 389 522 399 l 546 393 m 454 424 l 454 507 l 447 518 q 419 528 433 522 q 392 538 404 533 l 383 535 l 383 447 q 396 438 389 440 q 422 429 410 435 q 447 419 435 424 l 454 424 m 363 453 q 361 501 358 476 q 357 549 364 525 q 328 557 343 551 q 301 568 314 563 l 292 565 l 292 479 l 299 469 q 328 460 314 464 q 356 450 343 457 l 363 453 m 272 483 q 273 531 269 507 q 265 579 276 556 q 237 588 251 585 q 210 599 222 592 l 201 597 l 201 508 q 211 497 207 500 q 264 481 232 496 l 272 483 m 546 515 q 546 563 543 540 q 542 608 549 585 q 510 619 525 615 q 481 629 494 622 l 474 625 q 474 578 476 600 q 478 533 471 556 q 509 521 494 525 q 539 508 524 517 l 546 515 m 181 514 q 181 562 178 538 q 174 610 185 586 q 145 618 160 615 q 117 629 131 621 l 111 625 l 111 538 q 140 523 124 528 q 172 511 157 518 l 181 514 m 89 542 l 89 629 l 83 640 q 53 649 68 646 q 26 660 39 651 l 19 656 l 19 568 q 52 551 33 556 q 86 539 71 547 l 89 542 m 454 544 q 453 592 450 568 q 447 640 457 617 q 419 649 433 646 q 392 657 404 653 l 383 656 q 384 608 386 631 q 386 564 382 585 q 418 551 403 557 q 447 539 433 546 l 454 544 m 356 571 q 363 578 365 571 q 363 590 360 586 l 356 599 q 335 590 346 593 q 321 583 325 588 q 339 578 331 585 q 356 571 347 572 m 282 597 q 309 606 294 603 q 333 618 324 608 q 306 625 319 618 q 282 633 293 632 q 263 627 271 632 q 246 622 254 622 q 229 617 244 621 q 256 606 243 611 q 282 597 268 601 m 181 636 q 181 684 178 660 q 174 732 185 708 q 145 740 160 733 q 117 750 131 747 l 111 747 l 111 660 l 117 651 q 147 642 132 649 q 174 632 161 636 l 181 636 m 546 636 l 546 719 l 539 729 q 503 742 521 735 q 474 750 486 750 l 474 663 l 481 653 q 509 642 494 646 q 538 632 524 639 l 546 636 m 89 665 l 89 750 l 83 760 q 53 770 68 765 q 26 782 39 775 l 19 778 q 19 730 21 753 q 22 686 18 707 q 53 674 38 678 q 83 663 68 669 l 89 665 m 454 665 l 454 750 l 447 760 q 419 771 433 765 q 392 781 404 776 l 383 778 l 383 690 q 396 679 390 681 q 422 672 410 678 q 447 663 435 667 l 454 665 m 181 756 q 181 805 178 781 q 174 851 185 829 q 145 862 160 858 q 117 871 131 865 l 111 868 l 111 781 q 140 765 124 769 q 172 753 157 760 l 181 756 m 546 756 q 547 805 543 781 q 539 851 550 829 q 506 864 521 858 q 474 869 490 869 l 474 782 q 485 771 481 772 q 511 763 499 769 q 538 753 524 757 l 546 756 m 89 786 l 89 874 l 81 885 q 49 893 64 886 q 19 900 33 900 l 19 813 l 26 804 q 55 793 40 797 q 83 783 69 789 l 89 786 m 454 786 q 453 835 450 811 q 447 883 457 860 q 419 892 433 889 q 392 903 404 894 l 383 897 l 383 810 q 414 795 397 800 q 446 783 431 790 l 454 786 m 181 878 l 181 961 l 174 972 q 117 992 149 983 l 111 989 q 111 942 113 965 q 114 897 110 919 q 144 886 129 892 q 174 874 160 881 l 181 878 m 546 878 l 546 961 l 539 972 q 503 984 521 976 q 474 992 486 992 l 474 904 l 481 896 q 509 885 494 889 q 538 874 524 882 l 546 878 m 89 908 l 89 992 l 83 1003 q 50 1014 64 1008 q 26 1025 36 1019 l 19 1019 l 19 933 l 26 925 q 83 904 58 915 l 89 908 m 454 908 l 454 996 l 447 1006 q 419 1013 433 1007 q 392 1022 404 1019 l 383 1019 q 384 973 386 996 q 386 928 382 950 q 418 917 403 921 q 447 904 433 913 l 454 908 m 554 989 q 608 1010 585 1003 q 503 1010 557 1036 q 554 989 522 1004 m 181 1001 q 181 1047 178 1025 q 176 1093 183 1069 q 143 1106 158 1097 q 111 1114 128 1114 l 111 1022 q 140 1008 124 1011 q 172 996 157 1006 l 181 1001 m 465 1019 q 492 1032 475 1031 q 518 1042 510 1033 q 463 1053 492 1050 q 413 1038 435 1057 q 440 1031 426 1036 q 465 1019 453 1025 m 89 1029 q 89 1077 86 1053 q 86 1125 92 1101 q 54 1135 71 1128 q 29 1144 38 1142 l 19 1143 l 19 1056 l 26 1046 q 55 1037 40 1040 q 83 1026 69 1033 l 89 1029 m 181 1121 q 181 1170 178 1146 q 174 1217 185 1194 q 145 1225 160 1219 q 117 1235 131 1231 l 111 1232 q 111 1185 113 1208 q 114 1140 110 1161 q 144 1128 129 1133 q 174 1117 160 1122 l 181 1121 m 89 1151 q 90 1201 86 1176 q 83 1247 93 1225 q 54 1255 68 1250 q 26 1267 40 1260 l 19 1263 q 19 1215 21 1239 q 22 1171 18 1192 q 53 1159 38 1163 q 83 1147 68 1156 l 89 1151 m 194 1235 q 221 1244 207 1239 q 246 1251 235 1250 q 198 1267 222 1263 q 150 1256 174 1271 q 135 1251 135 1249 q 163 1244 149 1247 q 192 1232 178 1240 l 194 1235 m 100 1263 q 126 1274 111 1271 q 154 1282 142 1276 q 131 1291 142 1289 q 108 1300 119 1293 q 47 1281 83 1300 q 72 1274 58 1279 q 100 1263 85 1269 z "},"%":{"ha":692,"x_min":-1,"x_max":660,"o":"m 364 63 q 185 124 275 94 q 4 185 96 154 q 2 251 0 217 q 1 321 4 286 q 135 342 68 364 q 203 320 169 331 q 269 299 236 310 l 276 310 l 276 349 q 317 366 294 360 q 363 382 340 372 l 369 390 l 369 544 l 363 553 q 185 611 274 583 q 6 674 97 639 l 1 681 l 1 1296 q 18 1304 -1 1293 q 63 1319 40 1308 q 110 1331 85 1329 q 122 1325 115 1328 q 136 1319 129 1322 q 396 1233 269 1275 q 653 1146 522 1192 l 658 1138 l 658 1010 q 479 999 568 957 q 389 1036 435 1021 q 299 1063 343 1051 l 294 1061 q 292 926 290 993 q 292 788 293 858 l 299 779 q 429 734 363 754 q 563 689 496 714 l 567 682 l 567 574 l 574 564 q 614 551 593 558 q 657 536 635 544 q 658 410 660 472 q 658 281 657 347 q 617 264 640 268 q 574 249 594 260 l 567 239 l 567 190 q 553 179 567 189 q 511 167 533 169 q 476 151 489 165 l 476 103 q 457 88 474 97 q 413 74 435 83 q 369 63 392 65 l 364 63 l 364 63 m 367 94 l 367 178 l 360 186 q 331 197 346 193 q 303 206 317 200 l 294 204 l 294 117 q 306 106 299 110 q 358 88 326 104 l 367 94 m 274 122 q 274 169 271 147 q 269 215 276 192 q 236 228 251 219 q 204 235 221 236 l 204 143 q 234 131 217 133 q 265 118 251 128 l 274 122 m 182 151 q 181 200 178 175 q 178 249 183 225 q 147 258 163 251 q 121 268 131 264 l 113 265 l 113 178 l 118 169 q 148 159 133 163 q 175 149 163 156 l 182 151 m 92 185 q 91 231 88 208 q 88 276 94 254 q 56 288 71 285 q 26 299 40 290 l 19 294 l 19 206 q 52 190 33 194 q 86 178 71 186 l 92 185 m 457 179 q 456 229 453 204 q 453 276 458 254 q 417 290 435 283 q 386 296 399 296 l 386 208 l 393 200 q 422 190 407 193 q 450 178 436 186 l 457 179 m 367 213 q 367 262 364 238 q 360 310 371 286 q 324 319 342 313 q 294 326 307 326 l 294 239 l 301 231 q 330 220 315 224 q 358 208 344 217 l 367 213 m 274 242 q 274 254 272 247 q 272 265 275 261 l 268 268 q 249 260 251 260 q 242 259 246 261 q 231 254 238 257 q 250 247 240 250 q 268 239 260 244 l 274 242 m 190 265 q 220 275 206 268 q 249 286 235 282 q 219 294 233 289 q 190 303 204 299 q 139 286 176 294 q 165 275 153 281 q 190 265 178 269 m 550 272 q 548 321 546 296 q 544 369 550 346 q 510 381 526 372 q 479 389 494 389 l 479 296 q 508 284 492 289 q 540 269 525 279 l 550 272 m 101 296 q 128 306 115 303 q 154 317 140 310 q 126 326 139 321 q 99 333 113 331 q 72 323 86 326 q 51 314 58 319 q 75 305 63 308 q 99 296 88 301 l 101 296 m 457 306 l 457 389 l 450 400 q 420 410 435 404 q 393 419 406 415 l 386 417 l 386 329 q 397 318 393 319 q 424 311 411 317 q 450 301 436 306 l 457 306 m 367 336 q 366 349 365 342 q 363 360 367 356 q 341 351 353 351 q 322 343 329 350 q 340 340 332 344 q 358 331 349 335 l 367 336 m 550 397 q 548 444 546 422 q 544 490 550 465 q 510 502 526 493 q 479 510 494 511 l 479 417 q 508 405 492 407 q 540 393 525 403 l 550 397 m 457 426 l 457 514 l 449 525 q 417 533 432 526 q 386 540 401 540 l 386 453 l 393 443 q 422 432 407 436 q 450 424 436 428 l 457 426 m 557 510 q 585 518 571 515 q 610 531 600 521 q 583 538 597 532 q 557 547 569 544 q 539 540 547 544 q 522 536 531 536 q 513 531 518 532 q 504 529 508 531 q 532 519 519 524 q 557 510 544 514 m 457 550 q 456 598 453 574 q 450 646 460 622 q 420 654 435 647 q 393 663 406 661 l 386 661 l 386 574 l 393 564 q 422 556 407 563 q 450 544 436 549 l 457 550 m 367 579 q 367 626 364 604 q 363 671 369 649 q 331 683 346 678 q 301 696 315 689 l 294 692 q 294 644 296 667 q 296 600 292 621 q 328 588 313 592 q 358 575 343 585 l 367 579 m 274 610 q 274 657 271 635 q 269 703 276 679 q 236 715 251 707 q 204 724 221 724 l 204 632 q 234 617 217 619 q 265 606 251 615 l 274 610 m 182 639 q 181 688 178 664 q 178 735 183 713 q 148 744 163 739 q 121 756 133 750 l 113 753 l 113 665 l 118 657 q 148 647 133 651 q 175 636 163 643 l 182 639 m 467 661 q 494 673 479 671 q 522 681 508 675 q 516 683 519 682 q 507 688 513 685 q 415 678 456 710 q 467 661 438 676 m 92 669 q 92 719 88 694 q 86 767 96 743 q 55 776 71 769 q 29 786 39 782 l 19 783 l 19 696 l 26 688 q 55 678 40 681 q 83 667 69 675 l 92 669 m 376 692 q 401 703 386 701 q 431 711 417 704 q 404 721 417 718 q 379 729 392 724 q 349 720 365 725 q 322 710 332 715 q 347 703 333 708 q 376 692 361 699 m 283 722 q 311 733 297 731 q 338 742 325 735 q 231 742 282 768 q 257 731 243 735 q 283 722 271 728 m 182 763 q 181 811 178 786 q 175 858 185 836 q 146 866 160 861 q 118 878 132 871 l 113 874 q 113 826 114 849 q 114 782 111 803 q 146 769 131 775 q 175 757 161 764 l 182 763 m 92 793 l 92 875 l 86 888 q 49 899 67 892 q 19 907 32 907 l 19 819 l 26 810 q 55 800 40 804 q 83 788 69 796 l 92 793 m 182 885 l 182 968 l 175 979 q 147 990 161 983 q 118 999 132 996 l 113 997 l 113 908 l 118 900 q 148 891 133 893 q 175 881 163 889 l 182 885 m 92 914 q 92 962 88 938 q 86 1010 96 986 q 56 1019 71 1015 q 29 1029 42 1022 l 19 1028 l 19 939 q 31 928 24 931 q 83 911 49 925 l 92 914 m 182 1003 q 181 1052 178 1028 q 178 1100 183 1076 q 142 1113 160 1106 q 113 1119 125 1119 l 113 1032 l 118 1022 q 175 1001 156 1011 l 182 1003 m 550 1006 q 549 1055 546 1031 q 543 1101 551 1079 q 513 1111 528 1106 q 485 1119 499 1117 l 479 1118 q 479 1069 481 1093 q 481 1025 478 1046 q 513 1013 497 1018 q 543 1001 528 1007 l 550 1006 m 92 1036 q 92 1085 88 1061 q 86 1132 96 1110 q 49 1143 67 1136 q 19 1150 32 1150 l 19 1063 l 26 1054 q 55 1044 40 1047 q 83 1032 69 1040 l 92 1036 m 457 1036 q 456 1085 453 1061 q 450 1132 460 1110 q 393 1153 414 1140 l 386 1149 q 386 1100 388 1124 q 389 1056 385 1076 q 450 1032 421 1046 l 457 1036 m 367 1067 l 367 1150 l 360 1161 q 324 1174 342 1165 q 294 1182 307 1182 l 294 1093 l 301 1085 q 330 1074 315 1078 q 358 1063 344 1071 l 367 1067 m 274 1100 q 274 1147 271 1125 q 269 1192 276 1168 q 236 1203 251 1194 q 204 1213 221 1213 q 204 1163 207 1188 q 208 1115 201 1138 q 238 1106 224 1110 q 265 1093 253 1101 l 274 1100 m 560 1118 q 585 1131 571 1128 q 613 1138 600 1133 l 610 1142 q 583 1149 597 1143 q 557 1157 569 1156 q 528 1146 543 1149 q 503 1138 513 1143 q 533 1128 518 1135 q 560 1118 547 1122 m 182 1129 l 182 1213 l 175 1222 q 147 1233 161 1228 q 118 1243 132 1239 l 113 1240 l 113 1153 q 122 1142 118 1144 q 150 1134 138 1139 q 175 1125 163 1129 l 182 1129 m 469 1150 q 518 1165 496 1164 l 522 1169 q 473 1183 497 1176 q 426 1172 449 1189 q 410 1168 407 1165 q 440 1160 425 1163 q 467 1149 454 1157 l 469 1150 m 92 1161 l 92 1244 l 86 1254 q 56 1263 71 1260 q 29 1274 42 1267 l 19 1271 l 19 1183 q 31 1172 26 1174 q 83 1156 54 1169 l 92 1161 m 376 1179 q 400 1190 385 1188 q 428 1199 415 1192 q 405 1208 415 1207 q 383 1215 394 1210 q 322 1196 357 1215 q 376 1179 347 1193 m 286 1210 q 312 1220 297 1217 q 338 1229 326 1224 q 308 1241 322 1235 q 281 1247 293 1247 q 255 1238 268 1240 q 231 1229 242 1235 q 258 1219 244 1222 q 286 1210 272 1217 m 193 1240 q 220 1251 203 1250 q 246 1263 238 1251 q 216 1271 231 1264 q 189 1278 201 1278 q 163 1269 176 1269 q 140 1258 149 1268 q 162 1252 149 1257 q 193 1240 175 1247 m 101 1271 q 129 1281 115 1279 q 156 1290 143 1283 q 49 1289 92 1319 q 75 1280 63 1286 q 101 1271 88 1274 z "},"&":{"ha":688,"x_min":0,"x_max":654,"o":"m 269 88 q 183 119 226 106 q 94 149 139 133 q 92 337 90 244 q 92 525 93 429 l 99 532 q 169 554 140 550 q 176 559 174 556 q 182 569 178 563 l 182 736 l 186 742 q 226 758 206 753 q 269 774 247 763 q 272 861 275 817 q 274 953 269 906 q 280 956 275 954 q 289 961 285 957 q 323 970 306 963 q 358 985 340 978 l 365 994 l 365 1025 l 358 1033 q 183 1092 269 1063 q 4 1151 96 1122 l 0 1157 l 0 1285 q 6 1288 4 1285 q 15 1296 8 1292 q 239 1279 126 1336 q 465 1200 354 1222 q 560 1169 514 1183 q 647 1138 606 1156 l 654 1129 l 654 885 q 649 881 653 883 q 639 874 646 878 q 608 865 624 874 q 574 854 592 856 q 563 842 569 851 l 563 672 l 557 665 q 521 653 539 663 q 483 642 503 644 q 477 636 479 639 q 469 626 475 633 l 469 460 l 465 453 q 427 440 446 444 q 388 425 408 435 l 381 417 l 381 122 q 374 119 379 121 q 365 114 369 117 q 329 104 347 113 q 290 88 311 96 l 269 88 l 269 88 m 271 118 q 271 165 268 143 q 267 210 274 188 q 235 221 250 218 q 206 232 219 224 l 200 228 l 200 140 q 232 124 214 129 q 264 113 250 119 l 271 118 m 179 147 q 178 196 175 172 q 174 243 182 219 q 144 253 158 249 q 115 261 129 258 l 110 258 q 110 210 111 233 q 113 167 108 188 q 143 154 128 160 q 174 143 158 149 l 179 147 m 271 239 q 271 286 269 263 q 269 331 272 310 q 238 342 253 339 q 208 353 222 346 l 200 350 q 200 303 201 326 q 201 258 199 279 q 233 247 218 250 q 263 235 247 244 l 271 239 m 179 269 l 179 353 l 174 364 q 144 374 158 368 q 115 383 129 379 l 110 381 l 110 293 q 119 283 115 285 q 147 275 135 281 q 174 265 160 269 l 179 269 m 271 361 q 271 408 268 386 q 267 453 274 431 q 235 465 250 461 q 206 475 219 468 l 200 471 q 200 424 203 446 q 203 379 197 401 q 235 367 219 371 q 264 354 250 363 l 271 361 m 179 392 q 178 439 175 417 q 175 485 182 461 q 140 497 157 490 q 110 504 122 504 l 110 417 l 115 407 q 145 397 131 403 q 174 386 160 392 l 179 392 m 364 453 l 364 536 l 354 547 q 325 555 339 550 q 297 567 311 560 l 290 563 q 291 515 293 539 q 293 471 289 492 q 325 459 310 463 q 354 447 340 456 l 364 453 m 271 479 q 271 528 268 504 q 267 576 274 553 q 206 597 233 585 l 200 592 l 200 508 l 206 499 q 234 489 219 492 q 263 478 249 486 l 271 479 m 179 513 q 179 524 178 519 q 178 535 181 529 q 154 528 165 532 q 133 524 143 525 q 154 515 143 518 q 174 508 165 513 l 179 513 m 364 572 q 363 620 360 596 q 357 668 367 644 q 327 676 342 671 q 300 688 313 682 l 290 685 l 290 597 l 297 589 q 327 580 313 582 q 354 569 342 578 l 364 572 m 271 603 q 272 651 268 626 q 264 699 275 675 q 235 708 250 704 q 208 718 221 711 l 200 717 l 200 629 q 210 617 204 619 q 263 600 233 614 l 271 603 m 449 660 q 453 706 456 683 q 453 751 451 728 l 446 760 q 413 771 426 767 q 390 778 399 775 l 383 775 q 383 727 385 750 q 385 683 382 704 q 417 671 401 676 q 446 660 432 665 l 449 660 m 364 694 q 363 743 360 719 q 357 790 367 767 q 322 801 339 793 q 290 808 304 808 l 290 721 l 297 711 q 327 701 313 704 q 354 690 342 697 l 364 694 m 271 724 q 270 738 269 731 q 267 749 271 744 q 244 742 251 739 q 235 738 239 739 q 228 736 231 738 q 246 728 238 733 q 263 721 254 724 l 271 724 m 453 786 l 453 868 l 446 881 q 417 890 432 885 q 390 900 403 896 l 383 897 l 383 810 q 394 799 388 803 q 421 792 408 797 q 446 782 433 786 l 453 786 m 364 814 q 363 863 360 839 q 357 911 367 888 q 327 919 342 914 q 300 931 313 925 l 290 928 l 290 840 q 303 829 297 831 q 329 822 315 828 q 354 813 343 817 l 364 814 m 544 875 q 545 924 542 900 q 539 972 549 949 q 505 983 521 978 q 472 989 489 989 l 472 901 q 483 892 478 893 q 510 883 497 889 q 536 874 522 876 l 544 875 m 453 907 q 453 955 450 931 q 446 1003 456 979 q 417 1011 432 1008 q 390 1022 403 1014 l 383 1018 l 383 931 q 413 915 396 921 q 444 904 429 910 l 453 907 m 364 936 q 363 949 361 943 q 361 958 364 954 l 354 961 q 334 953 344 956 q 319 946 324 950 q 338 940 329 947 q 354 932 347 933 l 364 936 m 544 999 l 544 1081 l 539 1093 q 503 1105 521 1097 q 472 1113 486 1113 l 472 1025 l 479 1015 q 508 1006 493 1010 q 536 994 522 1003 l 544 999 m 453 1029 q 453 1077 450 1053 q 446 1125 456 1101 q 417 1133 432 1126 q 390 1143 403 1140 l 383 1140 l 383 1053 l 390 1043 q 419 1035 404 1042 q 446 1025 433 1029 l 453 1029 m 364 1060 q 363 1106 360 1083 q 358 1151 365 1128 q 328 1163 343 1157 q 297 1175 313 1168 l 290 1171 q 291 1123 293 1146 q 293 1079 289 1100 q 325 1067 310 1071 q 354 1054 340 1063 l 364 1060 m 271 1088 q 272 1136 268 1113 q 264 1185 275 1160 q 235 1194 250 1190 q 208 1204 221 1199 l 200 1201 l 200 1114 l 206 1106 q 234 1097 219 1100 q 263 1086 249 1094 l 271 1088 m 553 1110 q 583 1122 568 1117 q 608 1129 597 1126 q 501 1129 556 1157 q 526 1122 513 1126 q 553 1110 539 1117 m 179 1118 q 178 1167 175 1143 q 174 1215 182 1192 q 144 1225 158 1219 q 115 1235 129 1231 l 110 1231 l 110 1143 q 139 1128 122 1131 q 171 1117 156 1126 l 179 1118 m 464 1140 q 491 1152 474 1150 q 517 1161 508 1154 q 463 1174 490 1169 q 411 1157 435 1178 q 464 1140 428 1156 m 90 1149 q 90 1198 86 1174 q 83 1244 93 1222 q 49 1256 65 1249 q 18 1263 33 1263 l 18 1175 l 25 1167 q 53 1156 39 1160 q 82 1147 68 1153 l 90 1149 m 372 1171 q 398 1182 383 1181 q 425 1190 413 1183 q 368 1208 401 1204 q 341 1198 354 1201 q 319 1188 328 1194 q 372 1171 346 1185 m 281 1201 q 308 1212 294 1208 q 335 1221 321 1215 q 306 1231 319 1229 q 281 1239 293 1233 q 268 1233 274 1233 q 258 1231 263 1233 q 242 1226 250 1232 q 228 1221 233 1221 q 254 1210 242 1215 q 281 1201 267 1206 m 190 1232 q 217 1242 200 1239 q 243 1254 235 1246 q 215 1260 229 1257 q 190 1269 201 1264 q 174 1265 179 1261 q 136 1251 158 1256 q 163 1241 150 1244 q 190 1232 176 1238 m 99 1263 q 126 1272 111 1271 q 151 1285 142 1274 q 124 1292 138 1286 q 99 1300 110 1299 q 70 1289 86 1292 q 46 1279 54 1286 q 73 1272 60 1278 q 99 1263 86 1265 z "},"(":{"ha":689,"x_min":0,"x_max":657,"o":"m 544 0 q 457 30 501 17 q 369 61 413 43 q 367 244 363 151 q 360 428 372 336 q 230 472 296 451 q 96 518 164 492 l 92 525 l 92 631 l 88 639 q 49 655 71 650 q 4 669 26 660 l 0 676 l 0 1168 l 4 1175 q 42 1187 22 1181 q 73 1197 63 1193 q 85 1205 83 1201 q 92 1215 88 1208 l 92 1258 l 96 1265 q 328 1257 211 1319 q 563 1175 447 1196 l 567 1168 l 567 1125 l 567 1056 l 575 1047 q 611 1035 593 1042 q 650 1024 629 1029 l 657 1013 l 657 33 q 605 11 631 21 q 550 0 579 1 l 544 0 l 544 0 m 547 26 q 546 76 543 51 q 542 124 549 100 q 508 133 524 126 q 476 140 492 140 l 476 53 l 483 44 q 512 35 497 38 q 540 24 526 32 l 547 26 m 457 58 q 456 106 453 82 q 450 154 460 131 q 416 165 432 157 q 383 172 400 172 l 383 83 l 390 75 q 420 65 406 68 q 449 56 435 61 l 457 58 m 547 149 q 547 198 543 174 q 540 246 550 222 q 511 253 525 249 q 483 265 497 258 l 476 261 q 476 213 478 236 q 479 169 475 190 q 510 157 494 163 q 540 144 525 151 l 547 149 m 457 178 q 456 227 453 203 q 453 275 458 251 q 390 296 411 288 l 383 292 q 385 244 386 267 q 386 200 383 221 q 418 188 403 192 q 449 175 433 183 l 457 178 m 547 271 q 546 319 543 294 q 542 367 549 344 q 512 375 526 369 q 485 386 497 381 l 476 383 l 476 296 l 483 288 q 512 278 497 283 q 540 268 526 274 l 547 271 m 457 301 q 456 350 453 325 q 450 397 460 375 q 420 407 435 401 q 393 417 406 413 l 383 415 l 383 328 q 396 317 389 319 q 417 310 404 315 q 449 299 431 306 l 457 301 m 547 393 q 547 442 543 418 q 540 490 550 467 q 510 498 525 493 q 483 510 496 503 l 476 504 q 476 458 478 481 q 479 413 475 435 q 510 400 494 406 q 540 389 525 394 l 547 393 m 457 424 q 456 473 453 449 q 450 521 460 497 q 415 531 432 524 q 383 538 397 538 l 383 450 l 390 442 q 420 431 406 435 q 449 419 435 428 l 457 424 m 364 453 q 364 501 361 476 q 360 550 367 525 q 326 560 342 551 q 294 569 311 569 l 294 476 q 324 464 307 468 q 356 450 340 460 l 364 453 m 272 486 l 272 569 l 265 579 q 236 590 251 585 q 208 600 221 596 l 203 597 l 203 510 q 213 499 207 500 q 240 491 228 496 q 265 481 253 486 l 272 486 m 182 517 q 181 563 178 540 q 178 608 183 585 q 146 619 161 614 q 115 632 131 625 l 110 628 l 110 540 q 121 529 115 531 q 174 511 149 525 l 182 517 m 547 517 l 547 600 l 540 610 q 510 621 525 615 q 483 631 496 626 l 476 628 l 476 540 q 488 529 483 531 q 514 522 501 528 q 540 511 526 517 l 547 517 m 457 544 q 456 594 453 569 q 450 642 460 618 q 420 651 435 647 q 393 661 406 654 l 383 660 l 383 571 q 396 560 390 561 q 449 543 417 558 l 457 544 m 364 578 q 364 589 363 583 q 363 600 365 594 l 356 600 q 338 592 346 596 q 321 586 329 588 q 339 581 331 585 q 356 574 347 576 l 364 578 m 283 597 q 310 608 293 607 q 336 619 328 608 q 281 631 310 628 q 231 615 253 635 q 283 597 258 611 m 182 639 q 181 686 178 664 q 178 731 183 708 q 146 742 161 738 q 115 753 131 746 l 110 749 l 110 661 q 142 644 124 649 q 175 632 161 640 l 182 639 m 364 636 q 364 836 361 736 q 360 1036 367 936 q 326 1048 342 1042 q 294 1056 311 1054 q 294 856 296 956 q 296 657 292 757 q 328 644 313 650 q 358 632 343 639 l 364 636 m 547 635 q 546 684 543 660 q 542 731 549 708 q 506 744 524 738 q 476 751 489 751 l 476 664 l 483 654 q 512 644 497 649 q 540 632 526 639 l 547 635 m 89 668 q 90 717 86 693 q 83 764 93 742 q 53 772 68 767 q 26 782 39 778 l 19 781 q 20 731 22 754 q 22 688 18 708 q 83 664 53 674 l 89 668 m 457 668 q 456 717 453 693 q 450 764 460 742 q 415 774 432 767 q 383 782 397 782 l 383 694 l 390 685 q 420 674 406 678 q 449 664 435 671 l 457 668 m 182 760 q 181 806 178 783 q 178 851 183 829 q 146 864 161 858 q 115 876 131 869 l 110 872 q 110 824 111 847 q 113 781 108 801 q 143 768 128 771 q 174 756 158 765 l 182 760 m 547 760 l 547 843 l 540 854 q 510 865 525 860 q 483 874 496 869 l 476 872 l 476 783 q 488 774 482 775 q 514 765 501 771 q 540 756 526 760 l 547 760 m 89 793 l 89 876 l 83 885 q 53 895 68 892 q 26 904 39 899 l 19 901 l 19 810 q 49 798 32 800 q 82 786 67 796 l 89 793 m 457 793 l 457 876 l 450 885 q 420 894 435 892 q 393 904 406 897 l 383 901 l 383 814 q 396 804 389 807 q 419 798 406 803 q 449 786 432 793 l 457 793 m 182 881 q 182 930 178 906 q 175 978 186 954 q 142 988 157 981 q 110 994 126 994 l 110 907 l 115 897 q 145 888 131 892 q 174 878 160 883 l 182 881 m 547 881 l 547 968 l 538 979 q 506 988 521 982 q 476 994 490 994 l 476 907 l 483 897 q 512 888 497 892 q 540 878 526 883 l 547 881 m 89 911 q 90 960 86 935 q 83 1008 93 985 q 53 1017 68 1011 q 26 1025 39 1022 l 19 1024 q 20 976 22 999 q 22 931 18 953 q 53 919 39 925 q 83 907 68 913 l 89 911 m 457 911 l 457 1000 q 446 1011 450 1008 q 413 1019 429 1013 q 383 1025 397 1025 l 383 938 l 390 929 q 420 919 406 922 q 449 907 435 915 l 457 911 m 556 994 q 584 1005 569 999 q 613 1014 599 1011 q 583 1022 597 1017 q 556 1032 568 1028 q 528 1021 542 1025 q 503 1014 514 1017 q 529 1005 517 1010 q 556 994 542 1000 m 182 1001 l 182 1089 l 174 1100 q 144 1108 158 1101 q 115 1121 129 1115 l 110 1115 l 110 1028 l 115 1018 q 174 1000 151 1011 l 182 1001 m 89 1032 q 89 1081 86 1057 q 86 1129 92 1106 q 51 1140 67 1132 q 19 1149 36 1149 l 19 1056 q 49 1042 32 1044 q 82 1029 67 1040 l 89 1032 m 457 1035 q 456 1081 453 1058 q 453 1126 458 1103 q 420 1138 435 1132 q 390 1151 406 1144 l 383 1146 q 385 1099 386 1122 q 386 1054 383 1075 q 418 1043 403 1046 q 449 1029 433 1040 l 457 1035 m 364 1068 l 364 1151 l 358 1160 q 328 1169 343 1165 q 301 1179 314 1174 l 294 1176 l 294 1085 q 324 1073 307 1075 q 356 1061 340 1071 l 364 1068 m 272 1093 q 271 1142 268 1118 q 268 1190 274 1167 q 237 1200 253 1193 q 210 1210 221 1207 l 203 1208 l 203 1121 l 208 1111 q 238 1101 224 1106 q 265 1092 253 1097 l 272 1093 m 182 1125 q 182 1173 178 1149 q 175 1221 186 1197 q 144 1231 161 1224 q 118 1240 128 1238 l 110 1239 l 110 1151 l 115 1142 q 145 1131 131 1135 q 174 1122 160 1128 l 182 1125 m 465 1146 q 490 1157 476 1157 q 518 1165 506 1157 q 413 1164 461 1200 q 437 1158 424 1163 q 465 1146 450 1153 m 89 1157 q 89 1168 88 1163 q 88 1179 90 1174 l 82 1179 q 63 1172 71 1175 q 46 1165 54 1168 q 64 1159 56 1163 q 82 1153 72 1156 l 89 1157 m 374 1176 q 401 1188 388 1183 q 428 1197 414 1192 q 399 1208 413 1206 q 374 1215 386 1210 q 361 1209 367 1210 q 351 1206 356 1208 q 335 1202 343 1207 q 321 1197 326 1197 q 347 1187 335 1192 q 374 1176 360 1182 m 283 1208 q 310 1218 296 1214 q 336 1229 325 1222 q 229 1228 272 1250 q 256 1217 243 1221 q 283 1208 269 1213 m 190 1239 q 219 1248 204 1246 q 243 1261 233 1250 q 217 1268 231 1263 q 190 1275 203 1274 q 166 1266 178 1269 q 143 1261 154 1263 l 139 1256 q 165 1248 153 1254 q 190 1239 178 1242 z "},")":{"ha":692,"x_min":0,"x_max":658,"o":"m 456 32 q 275 94 364 68 q 94 157 186 119 q 92 216 89 186 q 88 278 96 246 q 47 292 68 288 q 4 308 26 296 q 2 738 0 524 q 1 1171 4 953 l 7 1178 q 46 1190 26 1185 q 86 1204 65 1196 l 92 1214 l 92 1261 l 97 1268 q 328 1260 213 1321 q 563 1178 447 1199 l 567 1171 l 567 1061 q 582 1049 567 1057 q 621 1037 604 1042 q 654 1024 638 1032 l 658 1018 l 658 157 q 617 142 638 144 q 575 128 597 139 l 567 115 l 567 67 q 550 58 568 71 q 506 43 529 54 q 460 32 482 32 l 456 32 l 456 32 m 457 60 q 456 109 453 85 q 450 157 460 133 q 393 174 410 172 l 386 172 q 386 124 388 147 q 389 81 385 101 q 450 57 419 67 l 457 60 m 367 93 l 367 176 l 360 185 q 330 196 346 192 q 301 207 314 200 l 294 203 q 294 155 296 178 q 296 111 292 132 q 328 99 313 103 q 358 88 343 94 l 367 93 m 275 122 l 275 206 l 268 217 q 233 228 250 221 q 203 236 215 236 l 203 149 l 208 140 q 238 129 224 133 q 265 117 253 125 l 275 122 m 182 153 q 182 200 181 176 q 181 244 183 224 q 118 267 149 258 l 113 265 q 113 217 114 240 q 115 172 111 193 q 146 160 131 164 q 175 149 161 156 l 182 153 m 550 153 q 549 200 547 176 q 547 244 550 224 q 515 257 531 253 q 485 267 499 261 l 476 265 q 476 217 478 240 q 479 172 475 193 q 510 161 494 164 q 540 149 525 158 l 550 153 m 457 183 l 457 267 l 450 278 q 420 288 435 282 q 393 297 406 293 l 386 294 l 386 207 q 397 197 392 199 q 424 189 411 194 q 450 179 436 183 l 457 183 m 367 214 q 365 233 361 236 l 358 236 q 340 229 347 231 q 325 225 333 228 l 322 221 q 358 210 329 221 l 367 214 m 283 233 q 338 254 314 247 q 231 254 286 281 q 283 233 256 247 m 550 276 q 548 322 546 300 q 544 368 550 344 q 513 380 528 376 q 483 390 497 383 l 476 385 q 476 339 479 361 q 481 293 474 317 q 513 281 497 285 q 543 269 528 278 l 550 276 m 182 274 q 183 322 179 297 q 175 371 186 347 q 147 378 161 376 q 118 390 132 381 l 113 385 l 113 297 q 142 283 125 288 q 174 271 158 278 l 182 274 m 367 276 q 367 658 364 468 q 360 1040 371 849 q 326 1051 343 1044 q 294 1060 308 1057 l 294 300 l 301 290 q 330 281 315 285 q 358 271 344 276 l 367 276 m 90 301 l 90 390 l 83 401 q 53 410 68 407 q 26 421 39 413 l 19 417 l 19 328 q 52 313 33 317 q 86 300 71 308 l 90 301 m 457 304 q 456 353 453 329 q 450 401 460 378 q 420 410 435 407 q 393 418 406 413 l 386 417 q 386 369 388 392 q 389 324 385 346 q 450 300 419 310 l 457 304 m 182 397 q 183 445 179 421 q 175 493 186 469 q 147 501 161 494 q 118 511 132 508 l 113 508 l 113 421 l 118 411 q 148 403 133 410 q 175 392 163 397 l 182 397 m 550 394 q 548 442 546 418 q 544 492 550 467 q 483 513 510 500 l 476 506 l 476 422 l 483 414 q 512 403 497 407 q 540 392 526 400 l 550 394 m 90 428 l 90 511 l 83 521 q 53 531 68 526 q 26 544 39 536 l 19 539 q 20 491 22 514 q 22 447 18 468 q 53 435 39 439 q 83 422 68 431 l 90 428 m 457 428 l 457 511 l 450 521 q 420 532 435 526 q 393 542 406 538 l 386 539 l 386 451 q 397 440 390 443 q 424 433 411 438 q 450 422 436 428 l 457 428 m 182 518 q 183 566 179 542 q 175 614 186 590 q 147 624 161 618 q 118 633 132 631 l 113 629 l 113 542 q 142 526 125 529 q 174 515 158 522 l 182 518 m 550 518 q 549 566 546 542 q 543 614 551 590 q 513 623 528 619 q 485 633 499 626 l 476 632 l 476 544 q 488 532 483 533 q 540 515 514 529 l 550 518 m 90 549 l 90 636 l 82 646 q 49 656 64 649 q 19 663 33 663 l 19 574 l 26 565 q 55 554 40 558 q 83 546 69 550 l 90 549 m 457 549 q 456 597 453 572 q 450 644 460 621 q 420 653 435 650 q 393 665 406 656 l 386 660 l 386 572 q 417 556 400 561 q 449 546 433 551 l 457 549 m 182 640 l 182 724 l 175 735 q 146 747 160 742 q 118 754 132 751 l 113 753 q 113 703 114 726 q 115 660 111 681 q 146 647 131 653 q 175 636 161 642 l 182 640 m 550 640 l 550 724 l 543 735 q 506 747 524 739 q 476 754 489 754 l 476 667 l 483 658 q 512 647 497 651 q 540 636 526 643 l 550 640 m 90 671 l 90 754 l 83 765 q 26 788 49 775 l 19 782 l 19 694 l 26 686 q 83 667 58 678 l 90 671 m 457 671 l 457 758 l 450 767 q 420 776 435 769 q 393 785 406 782 l 386 782 q 386 735 388 758 q 389 690 385 711 q 420 678 406 682 q 450 667 435 675 l 457 671 m 182 763 q 182 810 179 788 q 178 856 185 832 q 144 869 160 860 q 113 878 128 878 l 113 785 q 142 771 125 774 q 174 758 158 768 l 182 763 m 550 761 q 549 810 546 785 q 543 857 551 835 q 513 867 528 864 q 485 878 499 871 l 476 875 l 476 788 q 488 776 482 778 q 540 758 508 775 l 550 761 m 90 796 q 89 843 86 821 q 86 889 92 865 q 55 898 71 892 q 29 908 39 904 l 19 906 l 19 818 l 26 810 q 55 799 40 803 q 83 789 69 796 l 90 796 m 457 792 q 456 840 453 815 q 450 889 460 865 q 420 898 435 894 q 393 908 406 901 l 386 903 l 386 815 q 417 801 400 806 q 449 789 433 796 l 457 792 m 182 883 q 183 933 179 908 q 175 981 186 957 q 147 989 161 983 q 118 997 132 994 l 113 996 q 113 948 114 971 q 115 903 111 925 q 146 892 131 897 q 175 879 161 886 l 182 883 m 550 883 q 549 933 546 908 q 543 981 551 957 q 506 990 524 983 q 476 997 489 997 l 476 910 q 488 899 483 900 q 514 890 501 897 q 540 879 526 883 l 550 883 m 90 914 q 90 963 86 939 q 83 1011 93 988 q 51 1020 65 1015 q 26 1031 38 1025 l 19 1026 q 20 978 22 1001 q 22 935 18 956 q 53 922 39 926 q 83 910 68 918 l 90 914 m 457 914 l 457 997 l 450 1010 q 424 1019 439 1015 q 393 1029 410 1024 l 386 1026 q 386 978 388 1001 q 389 935 385 956 q 420 922 406 928 q 450 910 435 917 l 457 914 m 557 996 q 586 1008 569 1006 q 613 1018 603 1011 q 583 1026 597 1021 q 556 1036 568 1032 q 527 1026 542 1029 q 504 1015 513 1022 q 557 996 524 1011 m 182 1007 l 182 1090 l 175 1101 q 147 1112 161 1106 q 118 1121 132 1118 l 113 1118 l 113 1031 l 118 1022 q 148 1013 133 1015 q 175 1003 163 1011 l 182 1007 m 90 1036 q 89 1084 86 1060 q 86 1132 92 1108 q 55 1142 71 1135 q 29 1151 39 1149 l 19 1150 l 19 1061 l 26 1053 q 55 1043 40 1047 q 83 1033 69 1039 l 90 1036 m 457 1038 q 456 1083 453 1061 q 453 1129 458 1106 q 419 1143 435 1135 q 386 1151 403 1151 l 386 1060 q 417 1045 400 1047 q 449 1033 433 1043 l 457 1038 m 367 1071 l 367 1154 q 361 1160 364 1157 q 356 1164 358 1163 q 328 1173 342 1167 q 303 1183 314 1179 l 294 1181 l 294 1093 l 301 1083 q 330 1074 315 1076 q 358 1064 344 1071 l 367 1071 m 275 1099 q 274 1146 271 1124 q 269 1190 276 1168 q 239 1203 254 1199 q 208 1214 224 1207 l 203 1210 q 202 1162 204 1185 q 206 1117 200 1139 q 238 1104 222 1108 q 268 1093 253 1100 l 275 1099 m 182 1128 q 183 1177 179 1153 q 175 1224 186 1201 q 146 1234 160 1229 q 118 1242 132 1239 l 113 1239 q 113 1192 114 1215 q 115 1147 111 1168 q 146 1135 131 1140 q 175 1124 161 1129 l 182 1128 m 468 1150 q 495 1159 478 1156 q 521 1171 513 1163 q 493 1178 507 1175 q 468 1186 479 1182 q 450 1183 456 1179 q 413 1169 436 1174 q 441 1158 428 1163 q 468 1150 454 1154 m 90 1157 q 89 1169 88 1163 q 88 1181 90 1175 l 83 1183 q 53 1171 74 1175 l 49 1167 q 67 1162 58 1168 q 83 1154 75 1156 l 90 1157 m 374 1181 q 402 1190 388 1183 q 431 1200 417 1196 q 401 1208 415 1203 q 374 1217 386 1214 q 355 1211 364 1215 q 338 1207 346 1207 q 328 1202 333 1203 q 321 1200 324 1201 q 347 1190 335 1194 q 374 1181 360 1185 m 286 1211 q 313 1222 299 1215 q 338 1229 326 1229 l 336 1233 q 308 1240 321 1233 q 283 1249 294 1246 q 253 1238 268 1240 q 229 1229 238 1235 q 256 1220 243 1226 q 281 1211 268 1214 l 286 1211 m 192 1242 q 220 1251 206 1244 q 249 1260 235 1257 q 221 1269 236 1268 q 193 1279 206 1271 q 163 1268 178 1271 q 139 1260 149 1265 q 161 1253 149 1257 q 192 1242 174 1249 z "},"*":{"ha":693,"x_min":-1,"x_max":660,"o":"m 454 32 q 276 93 365 65 q 94 156 186 121 q 92 210 90 183 q 92 267 93 238 l 83 281 q 44 292 65 286 q 4 310 22 297 q 2 495 0 401 q 1 685 4 589 q 18 693 -1 682 q 88 718 47 699 q 91 736 92 725 q 92 757 90 747 l 86 765 q 47 778 67 772 q 6 794 26 783 l 1 801 l 1 1169 l 6 1176 q 43 1190 25 1183 q 82 1200 61 1196 q 92 1211 85 1201 l 92 1260 l 97 1267 q 328 1258 211 1318 q 444 1208 386 1228 q 563 1176 503 1188 l 567 1169 l 567 1143 l 567 1058 l 575 1049 q 614 1038 594 1042 q 654 1022 633 1033 l 658 1017 l 658 643 q 615 629 638 636 q 571 611 593 622 q 567 593 567 604 q 567 572 568 582 l 574 564 q 614 550 593 556 q 657 533 635 544 q 658 346 660 440 q 658 158 657 251 q 618 141 642 146 q 574 125 594 136 l 567 115 l 567 68 q 562 64 565 67 q 551 57 558 61 q 506 42 529 56 q 460 32 482 29 l 454 32 l 454 32 m 457 61 q 456 108 453 86 q 453 153 458 131 q 424 164 438 158 q 397 174 410 169 l 386 174 l 386 81 q 417 69 400 72 q 449 57 433 65 l 457 61 m 365 88 q 364 137 361 113 q 360 183 367 161 q 324 197 342 190 q 294 203 307 203 l 294 115 l 301 107 q 330 97 315 101 q 358 86 344 92 l 365 88 m 275 119 l 275 208 q 264 219 268 217 q 231 228 247 221 q 203 235 215 235 l 203 146 l 208 139 q 238 127 224 131 q 265 115 253 124 l 275 119 m 182 149 q 182 198 179 174 q 178 246 185 222 q 144 256 160 250 q 113 265 128 263 l 113 174 q 142 161 125 165 q 174 146 158 157 l 182 149 m 550 151 q 549 200 546 175 q 543 247 551 225 q 506 258 524 250 q 476 265 489 265 l 476 178 l 483 169 q 512 158 497 163 q 540 146 526 154 l 550 151 m 457 179 q 456 228 453 204 q 453 276 458 253 q 419 288 435 279 q 386 296 403 296 l 386 203 q 417 192 400 196 q 449 178 433 188 l 457 179 m 365 213 q 364 224 363 218 q 363 235 365 229 q 339 228 350 232 q 318 224 328 225 q 338 215 328 218 q 358 208 349 213 l 365 213 m 286 235 q 313 245 300 243 q 339 251 325 247 q 315 260 328 260 q 292 269 301 261 q 269 267 281 272 q 249 261 258 261 q 237 255 243 256 q 231 250 231 254 q 283 232 249 250 l 286 235 m 182 276 l 182 360 l 175 369 q 147 378 161 375 q 118 388 132 381 l 113 386 l 113 293 q 142 281 125 283 q 174 269 158 279 l 182 276 m 365 274 q 364 351 361 314 q 360 428 367 389 q 326 441 342 435 q 294 447 311 447 l 294 299 l 301 289 q 330 281 315 285 q 358 269 344 276 l 365 274 m 550 272 q 549 321 546 296 q 543 369 551 346 q 513 378 528 372 q 485 388 499 383 l 476 386 l 476 299 l 483 289 q 512 281 497 285 q 540 269 526 276 l 550 272 m 90 306 q 89 351 86 329 q 86 397 92 374 q 51 410 67 404 q 19 417 36 417 l 19 329 l 26 319 q 55 311 40 314 q 83 300 69 308 l 90 306 m 457 306 q 456 351 453 329 q 453 397 458 374 q 419 410 435 401 q 386 417 403 418 l 386 325 q 417 313 400 315 q 449 300 433 310 l 457 306 m 182 393 q 182 441 179 417 q 178 490 185 465 q 144 501 160 496 q 113 510 128 507 l 113 417 q 142 404 125 408 q 174 390 158 400 l 182 393 m 550 394 q 549 444 546 419 q 543 492 551 468 q 506 502 524 494 q 476 510 489 510 l 476 421 l 483 413 q 512 402 497 406 q 540 390 526 399 l 550 394 m 90 425 q 90 474 86 450 q 83 522 93 499 q 53 531 68 525 q 26 539 39 536 l 19 538 q 20 490 22 513 q 22 446 18 467 q 53 433 39 439 q 83 421 68 428 l 90 425 m 457 424 q 456 472 453 447 q 453 521 458 497 q 419 531 435 524 q 386 539 403 538 l 386 447 q 417 435 400 439 q 449 421 433 432 l 457 424 m 365 457 q 365 505 361 481 q 358 553 368 529 q 328 562 343 554 q 301 571 314 569 l 294 568 l 294 481 l 301 471 q 330 463 315 469 q 358 451 344 457 l 365 457 m 560 510 q 587 519 575 518 q 613 526 599 521 q 590 535 603 535 q 567 544 576 536 q 543 541 554 547 q 522 535 532 535 q 511 530 518 531 q 504 524 504 529 q 558 507 521 524 l 560 510 m 182 521 l 182 604 l 175 611 q 147 622 161 618 q 118 632 132 626 l 113 631 l 113 538 q 142 525 125 528 q 174 514 158 522 l 182 521 m 90 546 q 89 595 86 571 q 86 643 92 619 q 56 652 71 646 q 29 663 42 658 l 19 661 l 19 572 l 26 564 q 55 554 40 558 q 83 544 69 550 l 90 546 m 457 550 l 457 635 l 450 643 q 420 652 435 649 q 393 663 406 656 l 386 661 l 386 568 q 417 556 400 558 q 449 544 433 554 l 457 550 m 365 579 q 364 626 361 604 q 360 671 367 649 q 326 685 342 678 q 294 692 311 692 l 294 604 l 301 594 q 330 585 315 588 q 358 575 344 583 l 365 579 m 275 608 q 274 656 271 632 q 268 704 278 681 q 234 715 250 707 q 203 722 218 722 l 203 635 l 208 625 q 238 614 224 618 q 265 606 253 610 l 275 608 m 182 638 q 183 688 179 663 q 175 735 186 713 q 147 743 161 738 q 118 753 132 749 l 113 751 q 113 702 114 725 q 114 658 111 679 q 146 646 131 651 q 175 635 161 640 l 182 638 m 550 640 q 548 688 546 665 q 544 733 550 710 q 513 743 528 739 q 483 754 497 747 l 476 751 l 476 663 q 510 647 492 651 q 543 635 528 642 l 550 640 m 90 667 q 89 680 88 674 q 88 692 90 686 l 83 693 q 64 685 74 686 q 46 681 54 685 q 65 672 56 675 q 83 665 75 669 l 90 667 m 457 669 q 456 719 453 694 q 450 765 460 743 q 420 775 435 769 q 393 783 406 781 l 386 782 q 386 733 388 756 q 389 689 385 710 q 450 665 419 675 l 457 669 m 365 700 q 363 711 363 706 q 363 722 364 717 q 340 717 350 722 q 321 711 331 711 q 340 703 331 706 q 358 696 349 700 l 365 700 m 275 731 q 274 778 271 756 q 269 824 276 800 q 239 835 254 829 q 208 847 224 840 l 203 843 l 203 754 l 208 746 q 238 738 224 743 q 265 726 251 733 l 275 731 m 182 761 q 182 809 181 786 q 181 854 183 832 q 149 865 164 863 q 118 875 133 868 l 113 874 q 113 824 115 849 q 117 778 110 800 q 145 769 131 772 q 174 757 160 765 l 182 761 m 550 761 q 548 808 546 786 q 544 854 550 831 q 513 865 528 860 q 483 878 497 871 l 476 874 q 476 826 478 849 q 479 782 475 803 q 510 770 494 774 q 540 757 525 767 l 550 761 m 90 792 l 90 875 l 83 886 q 53 897 68 892 q 26 907 39 903 l 19 904 l 19 817 l 26 808 q 55 799 40 801 q 83 788 69 796 l 90 792 m 457 794 l 457 878 l 450 886 q 420 897 435 893 q 393 907 406 901 l 386 904 l 386 811 q 417 799 400 801 q 449 788 433 797 l 457 794 m 283 843 q 308 853 293 851 q 336 863 324 856 q 313 872 324 871 q 292 879 301 872 q 259 873 275 882 q 229 863 243 864 q 256 854 243 857 q 283 843 269 851 m 182 885 q 182 931 179 908 q 178 978 185 953 q 144 990 160 983 q 113 996 128 996 l 113 904 q 142 892 125 896 q 174 879 158 888 l 182 885 m 365 882 q 363 922 363 903 q 365 961 364 942 q 365 1000 365 981 q 358 1040 364 1019 q 328 1049 343 1043 q 301 1058 314 1054 l 294 1056 l 294 907 q 324 892 307 897 q 356 879 340 886 l 365 882 m 550 882 q 549 931 546 907 q 543 979 551 956 q 508 989 524 982 q 476 996 493 996 l 476 908 l 483 900 q 512 889 497 893 q 540 879 526 885 l 550 882 m 90 911 q 89 960 86 935 q 86 1007 92 985 q 19 1026 44 1025 l 19 939 l 26 931 q 83 908 58 919 l 90 911 m 457 913 q 456 962 453 938 q 450 1010 460 986 q 420 1018 435 1013 q 393 1026 406 1024 l 386 1025 q 386 977 388 1000 q 389 932 385 954 q 422 919 407 925 q 450 908 436 914 l 457 913 m 556 996 q 584 1006 569 1000 q 613 1017 599 1013 q 583 1025 597 1019 q 556 1035 568 1031 q 528 1023 542 1026 q 503 1017 514 1019 q 530 1006 518 1011 q 556 996 542 1001 m 182 1007 q 182 1054 179 1032 q 178 1100 185 1076 q 144 1111 160 1103 q 113 1119 128 1119 q 113 1069 115 1094 q 117 1022 110 1044 q 145 1014 131 1018 q 174 1001 160 1010 l 182 1007 m 90 1036 l 90 1119 l 83 1129 q 53 1140 68 1135 q 26 1150 39 1146 l 19 1149 l 19 1060 q 31 1049 26 1050 q 58 1042 46 1047 q 83 1032 69 1036 l 90 1036 m 457 1036 q 457 1083 456 1061 q 454 1129 458 1106 q 422 1140 438 1136 q 393 1150 407 1143 l 386 1149 l 386 1056 q 418 1044 403 1047 q 449 1032 433 1042 l 457 1036 m 365 1067 l 365 1150 l 358 1161 q 328 1172 343 1165 q 301 1181 314 1178 l 294 1179 l 294 1090 l 301 1082 q 330 1073 315 1075 q 358 1063 344 1071 l 365 1067 m 275 1096 l 275 1183 l 264 1194 q 235 1202 250 1196 q 211 1211 221 1208 l 203 1210 l 203 1122 l 208 1113 q 238 1103 224 1107 q 265 1093 253 1100 l 275 1096 m 182 1129 q 182 1175 179 1153 q 178 1221 185 1197 q 149 1231 163 1225 q 122 1240 136 1238 l 113 1240 l 113 1149 q 142 1135 125 1139 q 174 1124 158 1132 l 182 1129 m 465 1149 q 493 1159 479 1157 q 521 1168 507 1161 q 492 1178 506 1174 q 465 1186 478 1182 q 438 1176 453 1182 q 413 1168 424 1171 q 440 1158 426 1161 q 465 1149 454 1154 m 90 1158 q 89 1171 88 1165 q 88 1181 90 1176 l 82 1181 q 63 1174 71 1178 q 46 1168 54 1169 q 65 1160 56 1164 q 82 1156 74 1157 l 90 1158 m 376 1179 q 403 1190 388 1186 q 428 1200 418 1193 q 398 1208 413 1203 q 372 1215 383 1214 q 344 1206 357 1211 q 321 1199 332 1200 q 349 1188 335 1190 q 376 1179 363 1185 m 283 1210 q 310 1219 296 1217 q 336 1232 325 1221 q 281 1242 310 1242 q 231 1226 251 1243 q 257 1219 244 1225 q 283 1210 269 1213 m 192 1240 q 219 1249 204 1246 q 244 1263 233 1251 q 216 1269 229 1263 q 192 1276 203 1275 q 172 1271 181 1275 q 156 1267 164 1267 q 146 1262 150 1263 q 139 1260 142 1261 q 165 1249 153 1254 q 192 1240 178 1244 z "},"@":{"ha":693,"x_min":0,"x_max":660,"o":"m 550 0 q 278 94 413 51 q 4 186 143 136 q 2 312 0 249 q 3 439 4 375 q 44 457 21 450 q 88 472 67 464 q 93 499 96 485 q 94 529 90 514 l 99 536 q 138 549 118 546 q 178 563 157 551 l 186 575 l 186 624 q 203 632 182 617 q 272 657 233 639 q 276 684 279 669 q 276 714 274 699 q 318 732 294 725 q 363 747 342 739 l 369 756 l 369 1032 l 363 1040 q 330 1050 347 1043 q 296 1060 313 1057 q 294 976 293 1019 q 294 889 296 932 q 259 873 278 881 q 221 860 240 865 q 181 857 201 856 q 143 869 161 858 q 76 892 110 882 q 7 915 42 901 l 3 922 l 3 957 l 3 1172 q 45 1188 24 1183 q 90 1206 67 1193 q 93 1233 96 1218 q 94 1263 90 1247 q 148 1285 118 1274 q 207 1297 178 1296 q 385 1237 292 1267 q 567 1175 478 1207 q 568 1119 569 1146 q 569 1063 567 1092 l 574 1054 q 612 1038 589 1043 q 657 1024 635 1033 q 658 835 660 928 q 660 646 657 742 q 654 642 658 644 q 643 635 650 640 q 609 626 626 635 q 574 613 592 618 q 569 584 567 599 q 569 556 572 569 q 533 538 554 546 q 488 525 513 531 q 482 519 485 522 q 476 514 479 517 l 476 465 l 468 457 q 397 435 432 442 q 391 430 393 433 q 383 419 389 426 l 383 371 q 377 367 379 371 q 369 360 375 363 q 335 352 353 360 q 299 339 317 344 q 299 289 288 315 q 399 257 347 274 q 500 222 450 240 q 578 196 540 210 q 653 172 615 182 l 660 160 l 660 35 q 609 15 635 25 q 557 1 583 6 l 550 0 l 550 0 m 550 29 q 548 77 546 53 q 544 125 550 101 q 513 135 529 128 q 488 144 497 142 l 479 143 l 479 54 l 486 46 q 515 35 500 39 q 543 26 529 32 l 550 29 m 460 61 q 458 108 456 86 q 456 153 461 131 q 422 165 438 161 q 393 175 407 168 l 386 172 l 386 83 q 419 67 401 71 q 453 54 438 63 l 460 61 m 367 90 q 367 140 364 115 q 360 186 371 164 q 331 196 346 190 q 303 204 317 201 l 296 203 q 296 153 297 176 q 299 110 294 131 q 331 97 315 103 q 360 86 346 92 l 367 90 m 275 121 q 274 169 271 144 q 268 217 278 194 q 236 226 250 221 q 211 236 222 231 l 204 232 q 204 185 206 208 q 207 140 203 161 q 238 128 224 133 q 268 115 253 122 l 275 121 m 557 143 q 587 152 572 146 q 615 163 601 158 q 585 171 600 165 q 557 181 571 176 q 506 163 540 171 q 532 152 519 157 q 557 143 544 147 m 185 149 q 183 198 181 174 q 181 246 186 222 q 144 258 160 253 q 118 268 129 263 l 113 264 q 113 216 114 239 q 115 172 111 193 q 146 159 131 163 q 175 147 161 156 l 185 149 m 465 174 q 493 183 479 179 q 522 192 507 188 l 521 196 q 493 203 507 197 q 468 211 479 208 q 419 196 442 197 l 417 192 q 442 182 431 186 q 465 174 454 178 m 92 181 q 92 229 89 204 q 88 276 94 254 q 54 288 69 279 q 22 296 39 296 l 22 204 q 51 191 35 194 q 83 178 68 188 l 92 181 m 378 203 q 401 213 388 210 q 426 219 414 215 l 429 224 q 321 222 374 249 q 352 213 338 217 q 378 203 367 208 m 286 232 q 313 245 297 243 q 340 253 328 247 q 317 261 328 260 q 294 269 306 263 q 262 265 279 268 q 232 250 244 261 q 257 244 243 249 q 286 232 271 239 m 185 272 q 184 322 181 297 q 178 369 188 346 q 148 378 163 375 q 121 389 133 382 l 113 386 l 113 299 q 124 288 115 290 q 150 281 136 286 q 175 269 164 275 l 185 272 m 92 306 q 92 351 89 329 q 88 397 94 374 q 54 410 69 404 q 22 417 39 417 l 22 325 q 51 313 35 317 q 83 300 68 308 l 92 306 m 275 363 q 274 410 271 386 q 269 460 276 435 q 234 471 251 465 q 204 479 217 476 l 204 390 l 211 382 q 240 372 225 376 q 268 360 254 367 l 275 363 m 185 396 q 184 444 181 419 q 178 492 188 468 q 142 502 160 494 q 113 510 125 510 l 113 421 l 118 413 q 148 402 133 406 q 175 390 163 399 l 185 396 m 83 421 q 92 428 94 419 q 92 440 90 438 l 86 450 q 64 441 75 443 q 49 435 53 439 q 67 430 58 436 q 83 421 75 424 m 367 454 q 367 503 364 479 q 363 551 369 528 q 328 563 344 554 q 296 571 313 571 l 296 479 q 326 465 310 468 q 358 453 343 463 l 367 454 m 275 488 l 275 571 l 268 582 q 238 592 253 586 q 211 601 224 599 l 204 600 l 204 511 q 215 500 211 501 q 242 493 231 499 q 268 483 254 488 l 275 488 m 185 518 q 183 531 182 524 q 181 543 185 539 q 159 533 171 535 q 142 525 147 531 q 175 514 144 525 l 185 518 m 460 547 q 459 595 456 571 q 453 643 463 619 q 386 661 411 661 l 386 572 l 393 564 q 422 555 407 557 q 450 544 436 553 l 460 547 m 367 579 q 367 626 364 604 q 363 672 369 649 q 328 685 344 678 q 296 692 313 692 l 296 600 q 326 588 310 592 q 358 575 343 583 l 367 579 m 275 608 l 275 631 l 268 632 q 249 625 258 629 q 231 619 239 621 q 250 611 240 614 q 268 604 260 608 l 275 608 m 550 639 q 549 688 546 664 q 543 736 551 713 q 513 744 528 742 q 486 756 497 747 l 479 751 q 479 703 481 726 q 481 660 478 679 q 513 646 497 650 q 543 635 528 642 l 550 639 m 460 669 l 460 753 l 453 764 q 417 776 435 768 q 386 783 400 783 l 386 696 l 393 688 q 422 677 407 681 q 450 665 436 674 l 460 669 m 358 696 q 367 703 369 694 q 367 715 365 713 l 360 724 q 339 716 350 718 q 324 710 328 714 q 342 704 333 711 q 358 696 350 697 m 550 761 l 550 846 l 543 857 q 513 867 528 861 q 486 876 497 872 l 479 874 l 479 786 l 486 778 q 515 768 500 772 q 543 757 529 764 l 550 761 m 460 790 q 459 840 456 815 q 453 888 463 864 q 423 897 438 893 q 396 907 408 900 l 386 904 l 386 817 q 397 806 393 807 q 422 799 408 804 q 450 788 435 794 l 460 790 m 185 883 l 185 971 q 179 976 182 974 q 174 982 176 979 q 141 990 157 983 q 113 997 125 997 l 113 908 l 118 900 q 148 890 133 894 q 175 878 163 886 l 185 883 m 550 883 l 550 971 l 540 982 q 508 990 524 983 q 479 997 492 997 l 479 908 l 486 900 q 515 890 500 894 q 543 878 529 886 l 550 883 m 92 913 q 92 962 89 938 q 86 1010 96 986 q 56 1018 71 1013 q 29 1028 42 1024 l 22 1025 q 22 977 24 1000 q 25 933 21 954 q 56 921 40 926 q 86 908 71 915 l 92 913 m 460 913 q 459 962 456 938 q 453 1010 463 986 q 417 1020 435 1013 q 386 1028 400 1028 l 386 939 l 393 931 q 422 921 407 925 q 450 908 436 917 l 460 913 m 557 997 q 587 1006 572 1000 q 615 1014 601 1013 q 592 1023 606 1022 q 569 1032 579 1024 q 535 1024 553 1029 q 506 1014 517 1018 q 557 997 528 1008 m 185 1004 q 184 1052 181 1028 q 178 1100 188 1076 q 148 1110 163 1106 q 121 1119 133 1114 l 113 1118 q 113 1069 114 1093 q 115 1025 111 1046 q 146 1014 131 1017 q 175 1001 161 1011 l 185 1004 m 92 1039 l 92 1122 l 86 1131 q 56 1141 71 1135 q 29 1151 42 1147 l 22 1149 l 22 1056 q 51 1044 35 1046 q 83 1032 68 1042 l 92 1039 m 460 1039 l 460 1122 l 453 1131 q 396 1151 418 1142 l 386 1149 l 386 1060 q 397 1049 393 1050 q 450 1032 418 1047 l 460 1039 m 367 1069 l 367 1153 l 360 1161 q 331 1172 346 1168 q 303 1181 317 1176 l 296 1179 l 296 1086 q 326 1074 310 1076 q 358 1063 343 1072 l 367 1069 m 275 1096 q 274 1144 271 1119 q 269 1192 276 1169 q 240 1202 256 1196 q 213 1213 224 1208 l 204 1210 l 204 1122 l 211 1113 q 240 1103 225 1106 q 268 1093 254 1100 l 275 1096 m 185 1129 q 183 1175 181 1153 q 181 1221 186 1197 q 149 1233 164 1229 q 118 1243 133 1236 l 113 1239 l 113 1151 q 144 1134 126 1139 q 178 1122 163 1129 l 185 1129 m 468 1149 q 496 1159 482 1157 q 522 1168 510 1161 q 415 1165 463 1199 q 442 1158 429 1164 q 468 1149 454 1151 m 92 1156 l 92 1176 l 86 1181 q 68 1174 79 1174 q 49 1168 57 1174 q 68 1160 58 1163 q 86 1153 78 1157 l 92 1156 m 376 1179 q 403 1188 390 1183 q 431 1199 417 1192 q 402 1208 415 1203 q 376 1217 389 1213 q 364 1211 369 1211 q 354 1208 358 1211 q 338 1204 346 1210 q 324 1199 329 1199 q 350 1188 338 1193 q 376 1179 363 1183 m 283 1210 q 313 1219 297 1213 q 340 1229 328 1225 q 309 1239 324 1235 q 283 1246 294 1243 q 265 1240 274 1244 q 249 1236 257 1236 q 238 1231 243 1232 q 231 1229 233 1231 q 252 1222 239 1226 q 283 1210 265 1217 m 193 1240 q 219 1249 207 1246 q 246 1260 232 1253 q 218 1269 232 1267 q 192 1278 204 1272 q 163 1267 178 1271 q 139 1258 149 1263 q 165 1249 153 1256 q 192 1240 178 1243 l 193 1240 z "},"A":{"ha":689,"x_min":0,"x_max":657,"o":"m 544 0 q 457 31 501 17 q 369 61 413 46 q 367 238 365 150 q 367 417 368 325 l 363 426 q 334 438 350 436 q 301 450 318 440 l 292 449 q 290 303 289 374 q 289 158 290 233 l 286 151 q 242 137 264 143 q 197 121 221 131 q 102 149 150 131 q 4 182 54 168 l 0 189 l 0 1044 l 4 1051 q 56 1072 29 1065 q 85 1081 83 1078 q 92 1092 88 1085 l 92 1126 l 92 1140 q 131 1158 108 1153 q 175 1171 154 1164 q 181 1201 183 1186 q 182 1232 178 1215 q 197 1240 174 1224 q 332 1251 263 1279 q 469 1206 400 1224 l 475 1199 l 475 1089 l 481 1081 q 519 1067 499 1074 q 560 1051 540 1061 l 564 1044 l 564 940 q 578 925 567 929 q 653 900 607 918 l 657 894 l 657 33 q 547 0 594 6 l 544 0 l 544 0 m 547 28 q 546 76 543 51 q 543 124 549 100 q 508 135 524 126 q 476 143 493 143 q 476 92 479 118 q 481 47 474 65 q 510 36 494 38 q 538 25 525 35 l 547 28 m 456 58 q 454 106 451 82 q 450 154 457 131 q 419 164 435 157 q 393 174 403 171 l 383 172 l 383 83 l 390 75 q 420 65 406 68 q 449 56 435 61 l 456 58 m 181 149 l 181 238 l 172 249 q 138 257 154 250 q 110 264 122 264 l 110 175 l 115 167 q 174 144 163 151 l 181 149 m 547 149 q 547 199 543 174 q 540 247 550 224 q 510 256 525 251 q 483 264 496 261 l 476 261 q 476 213 478 236 q 479 169 475 190 q 510 157 494 163 q 540 144 525 151 l 547 149 m 89 181 q 89 228 88 204 q 88 272 90 251 q 49 288 65 282 q 18 294 32 293 l 18 207 l 24 199 q 53 188 39 192 q 82 175 68 183 l 89 181 m 456 181 q 455 229 451 204 q 449 276 458 254 q 419 286 433 283 q 390 296 404 289 l 383 292 q 384 244 386 268 q 386 200 382 221 q 418 188 403 192 q 449 175 433 183 l 456 181 m 181 272 l 181 356 l 174 367 q 144 378 158 372 q 115 386 129 383 l 110 385 l 110 296 q 121 286 115 289 q 147 278 135 283 q 174 268 160 272 l 181 272 m 547 271 q 546 319 543 294 q 543 367 549 344 q 508 378 524 371 q 476 386 493 386 l 476 294 q 506 281 489 283 q 538 268 522 278 l 547 271 m 89 306 l 89 389 l 83 399 q 53 408 68 404 q 26 417 39 413 l 18 415 l 18 328 q 29 317 24 318 q 52 310 39 315 q 82 299 65 306 l 89 306 m 456 303 l 456 386 l 449 399 q 419 408 433 403 q 390 417 404 414 l 383 415 l 383 328 l 390 318 q 420 310 406 314 q 449 299 435 306 l 456 303 m 181 393 l 181 481 l 172 492 q 138 500 154 493 q 110 507 122 507 l 110 419 l 115 411 q 145 401 131 404 q 174 389 160 397 l 181 393 m 547 393 l 547 481 l 540 490 q 483 507 504 503 l 476 506 q 476 458 478 481 q 479 413 475 435 q 510 401 494 406 q 540 389 525 397 l 547 393 m 89 424 l 89 513 q 79 522 85 521 q 47 532 63 525 q 18 539 31 539 l 18 450 l 24 442 q 53 431 39 435 q 82 419 68 428 l 89 424 m 456 424 l 456 513 l 446 522 q 413 532 429 525 q 383 539 397 539 l 383 450 l 390 442 q 420 431 406 435 q 449 419 435 428 l 456 424 m 364 456 q 364 502 363 479 q 363 547 365 525 q 292 569 325 565 l 292 481 l 299 472 q 328 462 313 465 q 356 450 343 458 l 364 456 m 272 486 l 272 569 l 265 579 q 208 600 236 593 l 203 597 l 203 510 l 208 500 q 238 492 224 499 q 265 481 253 486 l 272 486 m 181 517 q 180 565 176 540 q 174 613 183 590 q 144 621 158 614 q 115 632 129 628 l 110 628 l 110 540 l 115 532 q 145 523 131 529 q 174 513 160 517 l 181 517 m 547 517 l 547 604 l 540 613 q 510 622 525 614 q 483 631 496 629 l 476 628 q 476 581 478 604 q 479 536 475 557 q 510 524 494 528 q 540 513 525 521 l 547 517 m 89 550 l 89 632 l 83 642 q 53 651 68 647 q 26 661 39 656 l 18 660 q 18 611 19 635 q 19 567 17 588 l 29 560 q 82 543 51 557 l 89 550 m 456 547 l 456 631 l 449 642 q 419 652 433 646 q 390 661 404 658 l 383 660 l 383 571 q 396 560 389 563 q 422 553 410 558 q 449 543 435 547 l 456 547 m 356 574 q 365 580 367 571 q 364 593 363 589 l 358 603 q 338 594 347 597 q 321 586 329 590 q 339 581 331 585 q 356 574 347 576 m 283 597 q 306 608 293 606 q 332 615 319 611 l 336 619 q 282 631 310 628 q 231 615 254 635 q 257 608 244 613 q 283 597 269 603 m 181 636 q 179 685 176 661 q 175 733 182 710 q 144 744 161 738 q 118 753 128 750 l 110 751 l 110 664 l 115 654 q 145 644 131 647 q 174 635 160 640 l 181 636 m 364 636 q 364 776 361 708 q 360 914 367 843 q 328 926 344 919 q 299 936 313 932 l 292 932 l 292 664 q 303 653 296 656 q 331 644 318 650 q 356 635 343 638 l 364 636 m 547 639 q 546 686 543 664 q 543 732 549 708 q 508 744 524 738 q 476 751 493 751 l 476 660 q 506 647 489 650 q 538 635 522 643 l 547 639 m 89 669 q 89 717 86 694 q 86 763 92 739 q 54 774 69 771 q 24 785 39 776 l 18 781 l 18 692 q 50 676 32 681 q 83 664 68 671 l 89 669 m 456 668 l 456 756 l 446 767 q 413 775 429 768 q 383 782 397 782 l 383 694 l 390 686 q 420 675 406 679 q 449 664 435 671 l 456 668 m 181 760 q 179 807 178 783 q 178 851 181 831 q 146 864 161 860 q 115 876 131 868 l 110 872 l 110 785 l 115 775 q 145 767 131 774 q 174 756 160 760 l 181 760 m 547 760 l 547 843 l 540 854 q 511 866 525 861 q 483 874 497 871 l 476 872 l 476 785 l 483 775 q 512 767 497 774 q 540 756 526 760 l 547 760 m 89 790 q 89 838 86 815 q 86 883 92 860 q 54 894 69 889 q 24 907 39 900 l 18 903 q 18 855 19 878 q 19 810 17 832 q 51 799 36 803 q 82 786 67 796 l 89 790 m 456 790 l 456 874 l 449 885 q 416 896 431 890 q 390 907 401 901 l 383 903 l 383 815 l 390 806 q 420 797 406 804 q 449 786 435 790 l 456 790 m 557 872 q 581 883 568 881 q 607 890 594 886 l 610 894 q 556 905 583 901 q 504 890 528 908 q 532 882 519 888 q 557 872 544 876 m 181 881 q 179 930 176 906 q 175 978 182 954 q 142 988 157 981 q 110 994 126 994 l 110 907 l 115 897 q 145 889 131 892 q 174 878 160 886 l 181 881 m 89 911 q 90 960 86 936 q 83 1008 93 985 q 18 1025 38 1025 l 18 938 l 24 929 q 53 919 39 922 q 82 910 68 915 l 89 911 m 456 911 q 454 960 451 936 q 450 1008 457 985 q 419 1017 435 1011 q 393 1028 403 1024 l 383 1025 l 383 938 l 390 929 q 420 919 406 922 q 449 910 435 915 l 456 911 m 364 944 q 364 991 361 969 q 360 1038 367 1013 q 328 1047 344 1044 q 299 1058 313 1050 l 292 1054 l 292 967 q 325 950 307 954 q 358 938 343 946 l 364 944 m 272 972 q 272 1022 268 997 q 265 1069 275 1046 q 232 1081 246 1076 q 208 1088 218 1085 l 203 1085 q 202 1037 203 1060 q 204 993 201 1014 q 236 981 221 986 q 265 968 251 975 l 272 972 m 181 1004 q 180 1052 176 1028 q 174 1100 183 1076 q 115 1121 142 1106 l 110 1115 q 110 1068 111 1092 q 113 1024 108 1044 q 143 1011 128 1017 q 174 1000 158 1006 l 181 1004 m 463 1025 q 492 1035 478 1029 q 521 1044 507 1042 q 491 1054 506 1049 q 463 1064 476 1060 q 436 1052 450 1056 q 410 1044 422 1049 q 432 1037 419 1042 q 463 1025 444 1032 m 89 1035 q 86 1058 88 1046 q 67 1051 75 1051 q 50 1047 58 1050 l 46 1043 q 65 1038 57 1044 q 82 1031 74 1032 l 89 1035 m 364 1065 q 364 1111 361 1089 q 360 1157 367 1133 q 328 1169 344 1164 q 299 1182 313 1175 l 292 1178 q 292 1129 293 1153 q 294 1085 290 1106 q 326 1074 311 1076 q 356 1061 340 1071 l 364 1065 m 272 1096 q 271 1143 268 1121 q 268 1188 274 1165 q 234 1202 250 1193 q 203 1211 218 1211 l 203 1118 q 232 1103 215 1106 q 264 1092 249 1100 l 272 1096 m 181 1126 l 181 1146 q 139 1133 149 1146 q 156 1129 147 1133 q 174 1122 165 1125 l 181 1126 m 374 1178 q 399 1189 385 1188 q 428 1197 414 1190 q 401 1206 414 1203 q 378 1215 389 1210 q 348 1207 363 1213 q 321 1197 333 1201 q 347 1187 335 1190 q 374 1178 360 1183 m 282 1208 q 309 1218 296 1215 q 336 1228 322 1221 q 229 1228 281 1253 q 256 1217 243 1221 q 282 1208 268 1214 z "},"B":{"ha":681,"x_min":0,"x_max":649,"o":"m 450 35 q 228 110 340 75 q 4 186 117 144 q 2 731 0 460 q 3 1279 4 1003 q 275 1258 139 1332 q 551 1163 413 1185 l 557 1151 l 557 1100 l 557 1046 l 567 1038 q 604 1026 586 1031 q 644 1011 622 1021 l 649 1004 l 649 638 q 614 623 633 629 q 571 611 594 617 q 565 606 567 608 q 557 596 563 603 l 557 571 l 563 561 q 601 547 579 551 q 644 532 622 542 l 649 525 l 649 163 l 644 156 q 608 140 626 146 q 571 132 590 135 q 565 126 567 129 q 557 117 563 124 q 553 67 557 69 q 543 58 550 64 q 499 46 521 57 q 451 35 476 35 l 450 35 l 450 35 m 450 63 q 449 111 446 88 q 443 158 453 135 q 415 165 429 161 q 388 176 401 169 l 381 174 q 381 126 382 149 q 383 82 379 103 q 415 69 400 75 q 443 58 429 64 l 450 63 m 361 93 q 360 139 357 117 q 357 183 363 161 q 296 207 326 197 l 290 203 q 290 156 292 178 q 292 113 289 133 q 324 101 308 104 q 353 89 339 99 l 361 93 m 271 121 q 269 169 267 144 q 267 215 272 193 q 233 227 249 219 q 201 235 217 235 l 201 144 q 231 131 214 135 q 261 118 247 128 l 271 121 m 179 153 l 179 235 l 174 246 q 144 256 158 251 q 117 265 129 261 l 111 264 l 111 176 q 121 167 117 168 q 144 160 131 165 q 174 149 157 156 l 179 153 m 540 151 q 540 199 538 175 q 536 246 543 224 q 503 257 518 249 q 471 265 488 265 q 472 216 475 242 q 476 171 469 190 q 505 160 490 163 q 532 149 519 158 l 540 151 m 92 182 q 91 230 88 206 q 85 276 94 254 q 56 286 71 283 q 29 296 40 289 l 19 293 l 19 207 q 31 197 25 200 q 56 191 43 196 q 83 179 69 186 l 92 182 m 450 182 q 449 230 446 206 q 446 276 451 254 q 415 285 431 279 q 389 296 399 292 l 381 293 l 381 207 l 388 199 q 416 189 401 192 q 443 179 431 186 l 450 182 m 361 214 q 357 238 357 236 q 339 231 349 235 q 318 222 329 226 q 336 216 328 219 q 353 210 344 213 l 361 214 m 282 233 q 308 244 290 243 q 333 256 325 244 q 303 263 318 257 q 278 269 289 269 q 251 260 264 263 q 228 253 238 257 q 255 243 242 244 q 282 233 268 242 m 179 272 l 179 358 l 171 369 q 138 378 154 371 q 111 385 122 385 l 111 299 l 117 289 q 146 280 132 283 q 174 268 160 276 l 179 272 m 361 274 q 360 410 357 344 q 354 547 364 476 q 326 556 340 553 q 299 567 311 560 l 290 564 l 290 296 q 322 281 304 285 q 354 268 340 276 l 361 274 m 540 272 q 541 320 538 296 q 535 367 544 344 q 501 378 515 374 q 478 385 486 382 l 471 382 q 471 335 472 358 q 474 292 469 313 q 535 268 504 278 l 540 272 m 92 303 q 91 351 88 326 q 85 399 94 375 q 49 408 67 401 q 19 415 32 415 l 19 328 l 26 319 q 55 310 40 314 q 83 299 69 306 l 92 303 m 450 303 q 449 351 446 326 q 443 399 453 375 q 415 406 429 404 q 388 417 400 408 l 381 413 q 381 365 382 388 q 383 322 379 343 q 415 310 400 314 q 443 299 429 306 l 450 303 m 179 393 l 179 475 l 174 486 q 144 496 158 490 q 117 506 129 501 l 111 503 l 111 417 q 121 406 117 408 q 148 399 136 404 q 174 389 160 393 l 179 393 m 540 392 q 540 439 538 415 q 536 486 543 463 q 503 497 518 489 q 471 506 488 506 l 471 415 q 501 402 485 406 q 532 389 518 399 l 540 392 m 92 426 l 92 508 l 85 517 q 56 526 71 522 q 29 536 40 531 l 19 533 l 19 447 q 31 436 24 439 q 83 419 57 433 l 92 426 m 450 424 l 450 506 l 443 517 q 415 526 429 521 q 388 536 400 532 l 381 533 l 381 447 q 392 436 385 439 q 443 419 407 435 l 450 424 m 551 503 q 578 514 561 513 q 603 525 594 515 q 574 533 589 526 q 547 540 560 540 q 522 531 535 533 q 497 522 508 528 q 526 513 513 515 q 551 503 539 511 m 179 510 l 179 596 l 174 607 q 144 615 158 613 q 117 626 129 618 l 111 622 l 111 536 q 143 520 125 524 q 175 508 161 517 l 179 510 m 92 544 q 90 590 88 568 q 88 636 93 613 q 56 645 71 642 q 26 657 40 649 l 19 653 l 19 567 q 52 550 33 554 q 85 538 71 546 l 92 544 m 450 543 l 450 629 l 440 639 q 409 647 425 640 q 381 654 393 654 l 381 568 l 388 560 q 416 549 401 553 q 443 538 431 546 l 450 543 m 361 572 q 360 621 357 597 q 354 667 364 644 q 319 678 336 671 q 290 685 303 685 l 290 599 l 296 590 q 325 580 311 583 q 353 568 339 576 l 361 572 m 271 603 l 271 685 l 264 696 q 238 706 251 701 q 208 715 224 711 l 201 713 l 201 626 l 208 618 q 237 609 222 615 q 264 599 251 603 l 271 603 m 179 633 l 179 715 l 174 725 q 144 735 158 731 q 117 747 129 740 l 111 743 l 111 657 l 117 647 q 146 640 132 646 q 174 629 160 633 l 179 633 m 540 636 q 540 681 538 660 q 536 725 543 703 q 503 738 518 729 q 471 746 488 746 q 472 697 475 721 q 476 650 469 672 q 505 640 490 644 q 532 629 519 636 l 540 636 m 92 665 l 92 747 l 85 756 q 56 767 71 763 q 29 776 40 771 l 19 774 q 19 726 21 749 q 22 682 18 703 l 31 676 q 83 660 54 672 l 92 665 m 450 664 l 450 746 l 443 756 q 415 767 429 761 q 388 776 400 772 l 381 774 l 381 688 q 392 676 386 678 q 418 669 406 674 q 443 660 431 664 l 450 664 m 353 689 q 362 697 364 688 q 361 708 360 706 l 354 718 q 335 709 344 713 q 318 701 326 706 q 336 696 328 700 q 353 689 344 692 m 282 713 q 304 724 290 721 q 329 731 318 726 l 333 735 q 279 747 307 743 q 229 731 251 750 q 256 723 243 728 q 282 713 268 718 m 361 754 q 360 890 357 825 q 354 1026 364 956 q 326 1036 340 1032 q 299 1046 311 1040 l 290 1043 l 290 776 q 323 760 303 763 q 354 747 343 757 l 361 754 m 179 753 q 179 800 176 776 q 175 847 182 824 q 145 856 161 850 q 119 867 129 863 l 111 864 l 111 778 l 117 769 q 146 759 132 763 q 174 750 160 756 l 179 753 m 540 754 q 540 800 538 778 q 536 844 543 822 q 508 855 521 849 q 482 864 494 861 l 471 864 l 471 774 q 501 761 485 765 q 532 750 518 757 l 540 754 m 92 785 q 90 831 88 808 q 88 875 93 853 q 56 886 71 883 q 26 897 40 889 l 19 892 l 19 806 q 52 790 33 794 q 85 778 71 786 l 92 785 m 450 781 l 450 867 l 443 876 q 415 886 429 883 q 388 897 400 889 l 381 892 l 381 806 q 413 790 394 794 q 446 778 431 786 l 450 781 m 179 872 q 179 919 178 897 q 178 964 181 942 q 147 976 161 972 q 117 988 132 979 l 111 983 q 111 935 113 958 q 113 892 110 913 q 174 868 144 882 l 179 872 m 540 872 l 540 956 l 535 965 q 506 977 519 972 q 478 985 492 982 l 471 983 l 471 897 l 478 888 q 506 879 492 886 q 535 868 521 872 l 540 872 m 92 903 q 90 949 88 926 q 88 994 93 971 q 56 1006 71 1000 q 26 1017 40 1011 l 19 1013 q 19 966 21 989 q 22 922 18 943 q 53 911 38 914 q 83 899 68 908 l 92 903 m 450 903 l 450 985 l 443 996 q 408 1008 422 1003 q 388 1017 394 1014 l 381 1013 l 381 926 l 388 918 q 416 910 401 917 q 443 899 431 903 l 450 903 m 551 983 q 574 993 561 990 q 599 1000 588 996 l 603 1004 q 550 1016 578 1013 q 500 1000 522 1019 q 526 993 514 999 q 551 983 539 988 m 179 992 q 179 1040 176 1015 q 175 1086 182 1064 q 142 1097 157 1090 q 111 1104 126 1104 l 111 1017 l 117 1008 q 146 1000 132 1003 q 174 989 160 997 l 179 992 m 92 1024 q 90 1070 88 1049 q 88 1115 93 1092 q 56 1126 71 1122 q 26 1136 40 1129 l 19 1132 l 19 1046 q 53 1029 32 1032 q 85 1017 74 1026 l 92 1024 m 450 1022 q 449 1070 446 1046 q 446 1117 451 1094 q 415 1126 431 1119 q 389 1136 399 1132 l 381 1133 l 381 1047 l 388 1039 q 416 1029 401 1032 q 443 1019 431 1026 l 450 1022 m 361 1054 q 360 1100 357 1078 q 357 1144 363 1122 q 326 1156 340 1153 q 296 1167 311 1158 l 290 1163 l 290 1076 q 322 1060 304 1064 q 354 1047 340 1056 l 361 1054 m 271 1082 q 270 1131 267 1107 q 264 1178 274 1156 q 235 1187 249 1182 q 208 1194 221 1192 l 201 1192 q 201 1145 203 1168 q 203 1101 200 1122 q 264 1078 235 1092 l 271 1082 m 179 1113 q 180 1161 176 1136 q 174 1208 183 1186 q 144 1215 158 1211 q 117 1226 131 1219 l 111 1222 q 111 1176 113 1199 q 113 1132 110 1153 q 174 1108 143 1118 l 179 1113 m 458 1133 q 487 1144 472 1138 q 515 1154 501 1150 q 485 1162 500 1157 q 458 1171 471 1167 q 406 1154 442 1163 q 433 1144 421 1149 q 458 1133 444 1139 m 92 1144 q 90 1191 88 1169 q 88 1236 93 1213 q 56 1245 71 1240 q 26 1257 40 1250 l 19 1253 q 19 1206 21 1229 q 22 1163 18 1183 q 53 1151 38 1154 q 83 1139 68 1147 l 92 1144 m 369 1163 q 395 1174 381 1171 q 422 1185 410 1176 q 394 1193 407 1190 q 368 1201 381 1196 q 340 1190 354 1194 q 318 1182 326 1186 q 340 1174 328 1179 q 369 1163 353 1169 m 283 1194 q 309 1204 296 1201 q 331 1214 322 1207 q 225 1213 276 1239 q 282 1192 256 1206 l 283 1194 m 190 1222 q 217 1235 201 1232 q 244 1243 232 1238 q 221 1251 232 1249 q 200 1260 210 1253 q 167 1253 185 1257 q 139 1240 150 1250 q 163 1234 150 1239 q 190 1222 176 1229 m 100 1253 q 154 1272 131 1267 q 49 1272 103 1299 q 73 1265 60 1269 q 100 1253 86 1260 z "},"C":{"ha":692,"x_min":0,"x_max":658,"o":"m 454 32 q 276 95 365 69 q 94 158 186 121 q 92 217 89 188 q 88 279 96 247 q 47 293 68 289 q 4 310 26 297 q 2 739 0 524 q 1 1172 4 954 l 6 1179 q 43 1190 25 1182 q 82 1203 61 1199 q 86 1206 83 1204 q 92 1214 89 1208 l 92 1263 l 97 1269 q 328 1261 211 1321 q 563 1179 447 1200 l 567 1172 l 567 1063 q 582 1049 567 1060 q 621 1038 604 1043 q 654 1025 638 1033 l 658 1018 l 658 768 q 514 749 586 722 q 442 775 478 763 q 369 799 406 788 q 367 916 365 857 q 367 1035 368 975 l 360 1043 q 328 1053 346 1047 q 294 1063 311 1058 q 292 678 292 869 q 296 294 292 488 q 363 272 325 279 l 367 279 l 367 442 q 419 466 392 460 q 474 469 446 472 q 531 458 503 467 q 589 439 560 449 q 628 426 601 432 q 651 415 643 421 l 658 406 l 658 160 q 617 142 640 147 q 574 126 594 138 l 567 118 l 567 69 l 563 63 q 510 47 538 57 q 457 32 483 36 l 454 32 l 454 32 m 457 61 q 456 110 453 86 q 450 158 460 135 q 420 167 435 161 q 393 175 406 172 l 386 174 q 386 126 388 149 q 389 82 385 103 q 420 68 406 74 q 450 57 435 63 l 457 61 m 365 92 q 365 141 361 117 q 358 189 368 165 q 328 197 343 192 q 301 206 314 203 l 294 203 q 294 156 296 179 q 296 113 292 133 q 328 99 313 106 q 358 88 343 93 l 365 92 m 274 121 q 274 169 271 144 q 269 217 276 194 q 239 228 254 224 q 208 239 224 232 l 203 235 q 201 187 203 210 q 204 143 200 164 q 236 131 221 135 q 265 118 251 126 l 274 121 m 182 156 q 181 203 178 181 q 178 249 183 225 q 144 260 160 251 q 113 268 128 268 q 113 219 115 243 q 117 171 110 194 q 145 161 131 165 q 174 149 160 157 l 182 156 m 550 154 q 548 200 546 178 q 544 246 550 222 q 513 257 528 251 q 483 269 497 263 l 476 265 l 476 178 l 483 169 q 540 149 517 161 l 550 154 m 457 183 q 456 232 454 208 q 454 276 457 256 q 422 288 438 285 q 393 299 407 292 l 386 296 l 386 203 q 418 192 403 196 q 449 179 433 189 l 457 183 m 365 215 q 364 226 363 221 q 363 236 365 232 l 356 236 q 343 232 349 232 q 333 229 339 232 l 318 224 q 338 218 328 221 q 358 210 349 215 l 365 215 m 283 235 q 310 247 294 243 q 339 254 326 250 q 314 263 325 261 q 292 272 303 265 q 231 253 267 272 q 283 235 254 249 m 182 276 q 181 323 178 300 q 178 369 183 346 q 149 379 163 374 q 122 389 136 385 l 113 389 l 113 296 q 142 285 125 289 q 174 272 158 281 l 182 276 m 550 274 q 549 323 546 299 q 543 371 551 347 q 508 381 524 374 q 476 389 493 389 l 476 300 l 483 292 q 512 281 497 285 q 540 272 526 278 l 550 274 m 90 303 q 89 351 86 326 q 86 400 92 376 q 19 419 40 418 l 19 331 l 26 322 q 55 313 40 317 q 83 300 69 308 l 90 303 m 457 306 l 457 393 l 450 401 q 393 419 413 415 l 386 417 q 386 369 388 392 q 389 325 385 346 q 420 313 406 317 q 450 300 435 308 l 457 306 m 558 389 q 585 399 571 397 q 610 410 600 400 q 583 417 597 411 q 558 426 569 424 q 528 415 544 418 q 504 406 513 413 q 532 398 519 404 q 558 389 544 392 m 182 396 q 181 444 178 419 q 178 492 183 468 q 144 503 160 496 q 113 511 128 510 l 113 419 q 142 407 125 411 q 174 393 158 403 l 182 396 m 469 419 q 495 428 483 425 q 518 439 507 432 q 492 447 504 444 q 467 457 479 450 q 438 447 453 450 q 413 436 422 443 q 440 428 428 435 q 465 419 453 422 l 469 419 m 90 428 q 90 477 86 453 q 83 524 93 501 q 53 533 68 526 q 26 543 39 540 l 19 540 l 19 453 l 26 443 q 55 435 40 442 q 83 424 69 428 l 90 428 m 182 522 l 182 606 l 175 614 q 147 624 161 621 q 118 635 132 628 l 113 632 l 113 540 q 142 527 125 529 q 174 515 158 525 l 182 522 m 90 550 q 90 598 86 574 q 83 646 93 622 q 53 655 68 651 q 26 665 39 658 l 19 661 l 19 574 q 49 558 32 563 q 82 547 67 553 l 90 550 m 182 640 q 181 690 178 665 q 175 738 185 714 q 147 746 161 740 q 118 754 132 751 l 113 753 q 113 705 114 728 q 114 661 111 682 q 146 649 131 654 q 175 636 161 643 l 182 640 m 90 671 q 89 719 88 696 q 88 764 90 742 q 56 776 71 772 q 26 786 40 781 l 19 783 l 19 696 l 26 688 q 55 678 40 685 q 83 667 69 672 l 90 671 m 182 767 l 182 850 l 175 858 q 147 869 161 865 q 118 878 132 872 l 113 875 l 113 783 q 142 772 125 774 q 174 760 158 769 l 182 767 m 550 763 q 549 811 546 786 q 543 858 551 836 q 513 868 528 865 q 485 878 499 871 l 476 875 l 476 788 q 488 778 482 779 q 510 772 497 776 q 540 760 522 767 l 550 763 m 90 794 q 89 842 86 819 q 86 888 92 864 q 51 900 67 893 q 19 907 36 907 l 19 819 l 26 810 q 55 801 40 803 q 83 790 69 799 l 90 794 m 457 794 q 456 842 453 819 q 453 888 458 864 q 419 900 435 892 q 386 907 403 908 l 386 814 q 417 802 400 804 q 449 790 433 800 l 457 794 m 182 885 q 181 933 178 910 q 175 982 185 957 q 147 990 161 983 q 118 999 132 996 l 113 996 q 113 949 114 972 q 114 904 111 926 q 146 892 131 897 q 175 881 161 886 l 182 885 m 550 885 l 550 972 q 538 983 543 982 q 505 992 521 985 q 476 999 489 999 l 476 911 l 483 901 q 512 892 497 896 q 540 881 526 889 l 550 885 m 90 915 q 90 965 86 940 q 83 1013 93 989 q 53 1021 68 1015 q 26 1029 39 1026 l 19 1028 q 20 979 22 1003 q 22 935 18 956 q 83 911 53 921 l 90 915 m 457 914 q 456 962 453 938 q 453 1010 458 986 q 419 1021 435 1014 q 386 1029 403 1028 l 386 938 q 417 925 400 929 q 449 911 433 921 l 457 914 m 560 999 q 587 1009 575 1007 q 613 1017 599 1011 l 610 1021 q 565 1030 588 1025 q 522 1025 543 1035 q 511 1019 518 1019 q 504 1014 504 1018 q 558 996 524 1014 l 560 999 m 182 1008 q 182 1055 181 1032 q 179 1100 183 1078 q 149 1112 164 1108 q 118 1122 133 1115 l 113 1119 l 113 1028 q 142 1015 125 1017 q 174 1003 158 1013 l 182 1008 m 90 1039 l 90 1122 l 83 1132 q 53 1143 68 1138 q 26 1153 39 1149 l 19 1150 l 19 1063 l 26 1054 q 55 1044 40 1047 q 83 1035 69 1042 l 90 1039 m 457 1042 l 457 1124 l 450 1132 q 420 1143 435 1139 q 393 1153 406 1147 l 386 1150 l 386 1058 q 417 1045 400 1047 q 449 1035 433 1043 l 457 1042 m 365 1067 l 365 1156 l 356 1165 q 324 1175 339 1167 q 294 1181 308 1183 l 294 1093 l 301 1085 q 330 1075 315 1078 q 358 1065 344 1072 l 365 1067 m 274 1099 q 274 1147 271 1122 q 268 1194 278 1171 q 234 1205 250 1197 q 203 1213 218 1213 l 203 1124 l 208 1115 q 238 1105 224 1108 q 265 1096 253 1101 l 274 1099 m 182 1129 q 181 1177 178 1153 q 175 1225 185 1201 q 147 1235 161 1232 q 118 1243 132 1238 l 113 1240 q 113 1192 114 1215 q 114 1149 111 1169 q 146 1135 131 1142 q 175 1124 161 1129 l 182 1129 m 465 1150 q 493 1161 479 1157 q 521 1169 507 1165 q 492 1180 506 1178 q 465 1188 478 1182 q 453 1182 458 1182 q 443 1179 449 1182 q 427 1175 435 1181 q 413 1169 419 1169 q 440 1160 428 1165 q 465 1150 453 1156 m 90 1157 q 89 1169 88 1163 q 88 1181 90 1176 l 83 1183 q 64 1176 74 1179 q 46 1169 54 1172 q 65 1162 56 1165 q 83 1156 75 1158 l 90 1157 m 376 1181 q 403 1191 388 1189 q 428 1203 418 1193 q 321 1201 367 1224 q 349 1190 335 1194 q 376 1181 363 1186 m 283 1213 q 310 1222 296 1219 q 336 1235 325 1224 q 308 1242 322 1236 q 283 1249 294 1247 q 254 1239 269 1242 q 231 1229 239 1236 q 257 1222 244 1228 q 283 1213 269 1215 m 193 1240 q 219 1253 204 1250 q 246 1260 233 1256 l 244 1264 q 217 1272 231 1267 q 192 1279 203 1278 q 161 1269 176 1272 q 136 1260 146 1267 q 165 1251 150 1258 q 193 1240 179 1244 z "},"D":{"ha":679,"x_min":0,"x_max":647,"o":"m 360 60 q 183 121 272 93 q 4 181 93 149 q 1 728 0 456 q 1 1276 3 1000 q 231 1271 117 1331 q 346 1222 289 1242 q 461 1190 403 1201 l 468 1182 l 468 1076 q 481 1063 469 1069 q 514 1054 496 1060 q 554 1039 532 1049 l 558 1032 l 558 997 l 558 926 l 569 913 q 611 900 593 906 q 643 889 629 894 l 647 883 l 647 276 l 640 269 q 572 249 597 253 q 565 242 567 246 q 558 232 563 239 l 558 185 q 517 168 540 174 q 474 153 494 163 l 468 144 l 468 96 l 463 90 q 417 74 440 85 q 368 61 393 63 l 360 60 l 360 60 m 360 90 q 358 137 356 115 q 356 181 361 158 q 320 194 338 188 q 290 201 303 201 l 290 114 l 296 106 q 326 94 311 100 q 353 83 340 89 l 360 90 m 271 118 q 270 167 267 143 q 264 214 274 190 q 228 224 246 217 q 200 231 211 231 l 200 144 l 206 136 q 235 126 221 129 q 261 114 249 122 l 271 118 m 179 149 q 179 197 175 174 q 174 243 183 221 q 138 254 154 247 q 108 261 121 261 l 108 174 q 114 168 111 171 q 119 164 117 165 q 146 156 133 163 q 171 144 158 149 l 179 149 m 88 179 l 88 261 l 82 272 q 56 283 69 278 q 26 292 42 288 l 19 289 l 19 203 l 26 194 q 55 185 40 192 q 82 174 69 179 l 88 179 m 450 176 q 450 225 447 201 q 446 272 453 249 q 415 282 431 278 q 385 293 400 286 l 379 288 l 379 204 l 385 196 q 415 185 400 189 q 442 174 429 182 l 450 176 m 360 210 q 359 258 356 233 q 353 304 363 282 q 324 313 338 306 q 296 322 310 319 l 290 319 l 290 232 l 296 224 q 326 215 311 222 q 353 204 340 208 l 360 210 m 261 235 q 271 242 274 233 q 271 254 268 250 l 264 263 q 241 255 253 256 q 224 249 229 254 q 243 242 232 244 q 261 235 254 239 m 179 267 q 179 316 175 292 q 174 363 183 340 q 144 373 158 369 q 117 382 129 376 l 108 381 l 108 293 l 115 285 q 144 276 129 279 q 171 265 158 274 l 179 267 m 542 267 q 541 316 538 292 q 535 363 544 340 q 506 372 521 367 q 479 382 492 376 l 469 381 l 469 293 q 481 283 475 285 q 501 277 489 282 q 532 265 514 272 l 542 267 m 88 297 q 89 347 86 322 q 82 393 92 371 q 53 403 67 397 q 26 413 39 408 l 19 408 l 19 322 q 49 308 32 310 q 81 296 65 306 l 88 297 m 450 297 q 450 347 447 322 q 443 393 453 371 q 415 403 429 400 q 388 413 400 406 l 379 410 l 379 324 q 390 314 383 317 q 442 296 417 308 l 450 297 m 360 331 q 358 342 357 336 q 357 351 360 347 l 350 351 q 332 344 340 349 q 317 339 324 340 q 334 333 325 336 q 350 326 343 329 l 360 331 m 294 354 q 328 368 311 364 q 360 382 346 372 l 360 893 l 353 904 q 324 914 338 908 q 296 924 310 919 l 290 922 q 290 636 293 779 q 294 354 288 493 m 179 392 q 178 438 175 415 q 175 482 181 460 q 144 492 158 490 q 115 504 129 494 l 108 499 l 108 413 q 140 397 122 401 q 174 385 158 393 l 179 392 m 542 389 l 542 475 q 531 486 535 485 q 498 494 514 488 q 469 501 482 501 l 469 414 l 476 406 q 505 397 490 400 q 532 385 519 393 l 542 389 m 88 419 q 89 467 86 443 q 82 515 92 492 q 53 523 67 518 q 26 532 39 528 l 19 529 q 19 483 21 506 q 22 439 18 460 q 52 426 38 432 q 82 414 67 421 l 88 419 m 450 419 q 450 467 447 443 q 443 515 453 492 q 409 525 426 518 q 379 532 392 532 l 379 444 q 390 435 385 436 q 417 426 404 432 q 442 414 429 419 l 450 419 m 179 513 l 179 594 l 174 603 q 144 613 158 608 q 117 622 129 617 l 108 621 l 108 533 q 119 522 113 525 q 171 506 144 519 l 179 513 m 542 510 q 540 557 538 535 q 538 601 543 579 q 506 613 521 607 q 476 625 490 618 l 469 621 q 469 573 471 596 q 472 529 468 550 q 503 517 489 521 q 532 506 518 514 l 542 510 m 88 540 l 88 622 l 82 633 q 53 643 67 638 q 26 653 39 649 l 19 650 l 19 564 l 26 556 q 55 547 40 549 q 82 536 69 544 l 88 540 m 450 539 q 450 586 447 563 q 443 633 453 610 q 415 643 429 639 q 388 653 400 647 l 379 650 l 379 564 l 385 556 q 415 547 400 550 q 442 536 429 544 l 450 539 m 179 632 q 178 677 175 656 q 175 722 181 699 q 144 734 158 731 q 115 744 129 738 l 108 740 q 108 693 111 715 q 113 649 106 671 q 143 637 128 640 q 174 625 158 633 l 179 632 m 542 632 q 540 677 538 656 q 538 722 543 699 q 506 733 521 731 q 476 744 490 736 l 469 740 l 469 653 q 502 637 483 640 q 535 625 521 633 l 542 632 m 88 660 q 89 708 86 683 q 82 754 92 732 q 51 765 64 761 q 26 772 38 769 l 19 769 q 19 723 21 746 q 22 679 18 700 q 52 667 38 672 q 82 656 67 661 l 88 660 m 450 657 q 450 706 447 682 q 446 753 453 729 q 415 763 431 760 q 385 775 400 765 l 379 769 l 379 683 q 411 667 393 671 q 443 656 429 664 l 450 657 m 179 749 q 178 797 175 772 q 175 843 181 821 q 144 853 158 846 q 115 864 129 860 l 108 858 l 108 776 l 115 768 q 144 758 129 761 q 171 746 158 754 l 179 749 m 542 750 q 540 797 538 775 q 538 842 543 818 q 506 853 521 847 q 476 865 490 858 l 469 861 l 469 775 l 476 765 q 532 746 504 760 l 542 750 m 88 781 l 88 864 l 82 874 q 53 884 67 878 q 26 893 39 890 l 19 892 l 19 804 q 31 793 26 794 q 57 786 44 792 q 82 776 69 781 l 88 781 m 450 781 l 450 864 l 443 874 q 415 884 429 881 q 388 893 400 888 l 379 892 l 379 804 q 390 793 386 794 q 442 776 413 792 l 450 781 m 550 861 q 576 872 561 868 q 604 881 592 875 q 578 890 592 886 q 554 897 565 893 q 524 890 538 896 q 496 881 510 883 q 523 872 510 875 q 550 861 536 868 m 179 872 q 178 917 175 896 q 175 963 181 939 q 144 974 158 971 q 115 983 129 978 l 108 981 l 108 893 q 141 878 121 881 q 174 865 161 875 l 179 872 m 88 901 q 88 948 86 926 q 85 993 90 969 q 49 1006 67 999 q 19 1013 32 1013 l 19 926 l 26 917 q 82 896 60 907 l 88 901 m 450 901 q 450 948 447 926 q 446 993 453 969 q 415 1004 431 1001 q 385 1014 400 1007 l 379 1011 l 379 924 q 411 908 393 913 q 443 896 429 903 l 450 901 m 360 931 q 359 978 356 954 q 353 1025 363 1003 q 322 1035 336 1031 q 296 1043 307 1040 l 290 1040 q 290 993 290 1015 q 292 950 289 971 q 353 926 322 936 l 360 931 m 179 989 q 178 1037 175 1013 q 175 1083 181 1061 q 144 1094 158 1090 q 115 1106 129 1097 l 108 1100 l 108 1017 l 115 1008 q 144 998 129 1001 q 171 986 158 994 l 179 989 m 460 1011 q 485 1022 471 1018 q 511 1032 500 1025 q 483 1042 496 1039 q 457 1049 469 1044 q 429 1038 443 1042 q 407 1031 415 1035 q 433 1021 421 1028 q 460 1011 446 1014 m 88 1021 l 88 1103 l 82 1114 q 53 1124 67 1119 q 26 1133 39 1129 l 19 1131 l 19 1044 l 26 1036 q 55 1028 40 1035 q 82 1017 69 1021 l 88 1021 m 360 1051 l 360 1133 l 353 1144 q 324 1154 338 1149 q 296 1164 310 1160 l 290 1161 l 290 1075 q 301 1064 294 1068 q 328 1057 315 1063 q 353 1047 340 1051 l 360 1051 m 271 1079 q 270 1128 267 1104 q 264 1175 274 1151 q 235 1183 250 1178 q 207 1194 221 1189 l 200 1192 l 200 1106 q 210 1094 204 1096 q 232 1088 219 1093 q 261 1076 244 1083 l 271 1079 m 179 1110 q 179 1158 175 1133 q 174 1206 183 1182 q 144 1215 158 1211 q 117 1225 129 1218 l 108 1222 l 108 1135 q 114 1129 111 1132 q 119 1125 117 1126 q 171 1107 146 1119 l 179 1110 m 88 1140 q 89 1188 86 1164 q 82 1236 92 1213 q 53 1244 67 1242 q 26 1254 39 1246 l 19 1250 l 19 1164 q 49 1149 32 1154 q 81 1138 65 1144 l 88 1140 m 371 1161 q 397 1172 379 1171 q 422 1183 414 1174 q 392 1192 407 1185 q 367 1199 378 1199 q 340 1190 353 1192 q 317 1182 326 1188 q 344 1172 331 1174 q 371 1161 357 1169 m 279 1192 q 306 1202 293 1200 q 331 1213 318 1204 q 228 1210 276 1243 q 253 1201 242 1207 q 279 1192 265 1194 m 189 1222 q 216 1232 201 1229 q 240 1244 231 1235 q 213 1251 226 1244 q 189 1260 200 1257 q 170 1253 178 1257 q 154 1249 163 1249 q 144 1244 149 1244 q 136 1242 140 1244 q 163 1232 150 1238 q 189 1222 175 1226 m 97 1253 q 126 1262 113 1256 q 154 1272 140 1268 q 124 1281 139 1275 q 97 1289 110 1286 q 79 1283 88 1288 q 63 1279 71 1279 q 53 1274 58 1275 q 46 1272 49 1274 q 72 1263 60 1268 q 97 1253 85 1257 z "},"E":{"ha":689,"x_min":0,"x_max":657,"o":"m 544 0 q 272 92 407 49 q 0 185 138 136 l 0 1296 q 45 1310 22 1303 q 92 1329 68 1318 q 314 1258 204 1297 q 536 1183 424 1219 q 595 1164 567 1171 q 653 1143 624 1157 l 657 1138 l 657 1010 q 640 1001 650 1007 q 468 1000 556 956 q 293 1058 381 1046 l 289 1051 q 289 917 290 983 q 293 779 288 850 q 427 732 360 753 q 561 688 494 711 q 564 622 565 654 q 564 556 563 590 l 560 549 q 428 529 496 506 q 361 551 394 540 q 296 574 328 563 l 292 571 q 290 430 292 500 q 293 289 288 360 q 463 232 378 260 q 632 175 547 204 q 657 163 657 160 l 657 35 q 549 0 600 7 l 544 0 l 544 0 m 547 26 q 546 76 543 51 q 543 122 549 100 q 510 133 525 126 q 481 143 494 139 l 474 139 l 474 56 l 481 46 q 509 35 494 39 q 538 24 524 32 l 547 26 m 454 58 l 454 143 l 447 154 q 419 165 433 158 q 390 174 404 171 l 383 171 l 383 83 q 396 72 390 74 q 422 65 410 69 q 447 56 435 60 l 454 58 m 364 89 q 363 136 360 114 q 360 182 367 158 q 328 194 343 189 q 299 204 313 200 l 292 203 l 292 114 q 303 103 296 106 q 356 86 319 101 l 364 89 m 272 118 q 272 167 268 143 q 265 215 275 192 q 236 224 251 221 q 208 235 221 228 l 200 232 l 200 144 q 211 133 207 135 q 235 127 222 132 q 264 115 249 122 l 272 118 m 556 140 q 583 152 569 149 q 610 160 597 156 q 584 170 597 165 q 560 178 571 175 q 530 170 544 175 q 503 160 515 165 q 529 151 515 153 q 556 140 543 149 m 181 149 q 180 198 176 174 q 174 246 183 222 q 144 256 158 253 q 115 265 129 258 l 110 261 l 110 174 q 139 158 122 164 q 172 147 156 153 l 181 149 m 465 171 q 492 182 475 181 q 518 193 510 183 q 488 201 503 194 q 461 208 474 208 q 435 199 447 201 q 410 190 422 196 q 438 181 425 182 q 465 171 451 179 m 88 178 l 88 265 l 81 276 q 51 286 67 283 q 24 296 36 289 l 18 292 l 18 204 q 50 188 32 192 q 83 175 68 183 l 88 178 m 374 203 q 400 211 388 210 q 426 222 413 213 q 319 219 371 250 q 347 211 335 218 q 374 203 360 204 m 281 232 q 308 242 294 238 q 336 253 322 246 q 228 253 278 275 q 256 242 243 247 q 281 232 268 238 m 181 272 l 181 356 l 174 367 q 148 376 163 372 q 115 386 133 381 l 110 383 l 110 296 l 115 288 q 145 279 131 286 q 174 268 160 272 l 181 272 m 88 303 l 88 386 l 81 397 q 47 409 61 404 q 24 419 33 414 l 18 415 l 18 326 l 24 318 q 53 310 39 315 q 81 299 67 306 l 88 303 m 181 396 q 179 442 176 419 q 175 488 182 464 q 142 501 157 492 q 110 510 126 510 l 110 417 q 139 403 122 406 q 172 390 156 400 l 181 396 m 88 424 q 87 472 85 447 q 83 521 89 497 q 52 530 68 524 q 26 540 36 536 l 18 538 l 18 450 l 24 442 q 53 431 39 435 q 81 422 68 428 l 88 424 m 181 517 q 180 565 176 540 q 174 613 183 589 q 144 621 158 615 q 115 631 129 626 l 110 628 q 110 580 111 603 q 113 535 108 557 q 143 524 128 529 q 174 511 158 518 l 181 517 m 88 547 q 87 594 86 571 q 86 639 88 617 q 54 651 69 647 q 24 663 39 654 l 18 658 q 17 611 19 635 q 19 567 15 588 q 51 554 36 558 q 81 542 67 550 l 88 547 m 454 547 l 454 631 l 447 642 q 390 661 413 656 l 383 658 l 383 571 l 390 561 q 420 553 406 560 q 447 542 435 547 l 454 547 m 364 578 q 363 624 360 601 q 360 669 367 646 q 299 694 325 681 l 292 689 l 292 601 l 299 593 q 328 585 314 590 q 356 574 342 581 l 364 578 m 272 610 l 272 694 l 265 703 q 236 713 251 708 q 208 722 221 717 l 200 721 q 200 672 201 694 q 203 628 199 649 l 211 621 q 264 604 233 618 l 272 610 m 181 639 l 181 722 l 174 733 q 144 743 158 738 q 115 753 129 749 l 110 751 l 110 663 l 115 654 q 145 645 131 647 q 174 635 160 643 l 181 639 m 465 658 q 488 669 475 667 q 514 676 501 672 l 518 681 q 463 692 492 689 q 413 676 435 696 q 440 669 428 674 q 465 658 451 664 m 88 667 q 87 716 85 692 q 83 764 89 740 q 52 774 68 767 q 26 783 36 781 l 18 782 l 18 694 l 24 685 q 53 674 39 678 q 81 665 68 671 l 88 667 m 374 689 q 399 701 385 697 q 428 710 414 704 q 401 719 414 715 q 378 726 389 722 q 342 717 357 721 q 319 707 328 713 q 374 689 342 706 m 281 721 q 308 731 294 729 q 336 740 322 733 q 281 757 319 747 q 253 748 268 753 q 228 740 239 743 q 256 730 242 733 q 281 721 269 726 m 181 760 q 180 808 176 783 q 174 856 183 833 q 140 867 154 863 q 115 874 126 871 l 110 871 q 110 824 111 847 q 113 779 108 801 q 143 767 128 772 q 174 754 158 761 l 181 760 m 88 788 l 88 875 l 81 888 q 51 895 65 890 q 24 907 38 900 l 18 901 q 17 855 19 878 q 19 810 15 832 q 51 798 36 801 q 81 786 67 794 l 88 788 m 181 882 l 181 967 l 174 978 q 144 988 158 982 q 115 997 129 993 l 110 994 l 110 907 q 121 896 115 897 q 147 889 135 894 q 174 878 160 883 l 181 882 m 88 914 l 88 997 l 81 1007 q 51 1018 67 1013 q 24 1028 36 1024 l 18 1025 l 18 938 q 29 926 24 928 q 50 920 38 925 q 81 908 63 915 l 88 914 m 181 1003 q 180 1052 176 1028 q 174 1100 183 1076 q 144 1109 158 1106 q 115 1118 129 1113 l 110 1115 q 110 1067 111 1090 q 113 1022 108 1044 q 143 1010 128 1015 q 174 999 158 1006 l 181 1003 m 547 1006 q 546 1052 543 1031 q 543 1099 549 1074 q 510 1108 525 1106 q 481 1119 494 1111 l 474 1115 l 474 1028 q 507 1011 489 1015 q 540 999 525 1007 l 547 1006 m 88 1035 l 88 1122 l 79 1133 q 46 1141 63 1133 q 18 1149 29 1149 l 18 1061 l 24 1051 q 53 1041 39 1044 q 81 1029 68 1038 l 88 1035 m 454 1035 q 455 1083 451 1058 q 447 1131 458 1107 q 418 1140 432 1136 q 390 1149 404 1144 l 383 1146 q 384 1099 386 1122 q 386 1054 382 1075 q 418 1042 403 1047 q 447 1029 433 1036 l 454 1035 m 364 1067 l 364 1150 l 358 1158 q 327 1169 343 1165 q 299 1181 311 1172 l 292 1176 q 292 1128 293 1151 q 293 1085 290 1106 q 325 1073 310 1076 q 356 1061 340 1069 l 364 1067 m 272 1096 l 272 1179 l 265 1190 q 230 1202 247 1194 q 200 1210 213 1210 l 200 1122 l 206 1114 q 235 1103 221 1106 q 264 1092 250 1100 l 272 1096 m 556 1115 q 581 1126 567 1124 q 608 1138 596 1129 q 580 1147 593 1143 q 553 1156 567 1150 q 526 1144 540 1149 q 503 1135 511 1139 q 528 1127 515 1132 q 556 1115 542 1122 m 181 1126 q 179 1174 178 1151 q 178 1218 181 1197 q 146 1231 161 1225 q 115 1240 131 1238 l 110 1239 q 110 1190 111 1214 q 113 1146 108 1167 q 143 1133 128 1138 q 174 1122 158 1129 l 181 1126 m 467 1149 q 494 1158 481 1153 q 521 1165 508 1164 q 470 1181 494 1176 q 424 1169 446 1185 q 408 1165 406 1163 q 437 1157 422 1160 q 465 1146 451 1154 l 467 1149 m 88 1157 l 88 1240 l 81 1251 q 51 1262 67 1256 q 24 1271 36 1268 l 18 1269 l 18 1181 q 29 1169 22 1172 q 56 1163 43 1168 q 81 1153 68 1157 l 88 1157 m 374 1176 q 399 1189 385 1186 q 428 1196 414 1192 q 403 1205 414 1203 q 382 1214 393 1207 q 351 1208 365 1214 q 322 1199 338 1201 l 319 1194 q 344 1188 331 1193 q 374 1176 358 1183 m 281 1207 q 310 1219 296 1214 q 336 1226 325 1224 q 228 1226 283 1253 q 253 1219 240 1224 q 281 1207 267 1214 m 192 1239 q 218 1249 201 1247 q 243 1260 235 1251 q 215 1268 229 1261 q 186 1275 200 1275 q 160 1267 174 1269 q 139 1256 146 1265 q 192 1239 157 1253 m 99 1269 q 125 1279 110 1278 q 151 1289 140 1281 q 46 1286 96 1319 q 99 1269 68 1283 z "},"F":{"ha":685,"x_min":0,"x_max":651,"o":"m 178 124 q 92 155 136 143 q 4 185 49 167 q 2 733 0 460 q 1 1283 4 1007 q 322 1249 163 1333 q 483 1178 403 1207 q 644 1135 564 1150 l 651 1126 l 651 1001 q 543 968 594 976 q 416 1010 476 989 q 297 1053 356 1032 l 289 1049 l 289 779 l 294 771 q 425 728 358 750 q 556 685 492 707 l 560 678 l 560 551 q 552 548 554 551 q 544 540 550 544 q 421 526 485 506 q 358 549 389 538 q 297 571 328 560 l 293 569 l 289 563 l 289 158 q 282 154 283 158 q 274 147 281 150 q 229 135 251 146 q 182 124 207 124 l 178 124 l 178 124 m 181 151 l 181 235 l 174 244 q 144 256 158 251 q 117 264 131 261 l 111 263 l 111 175 l 117 167 q 146 158 132 165 q 174 147 160 151 l 181 151 m 92 182 q 90 229 88 207 q 88 274 93 251 q 56 285 71 279 q 26 297 40 290 l 19 293 l 19 206 l 26 197 q 54 190 40 194 q 83 178 68 185 l 92 182 m 181 271 q 180 320 176 296 q 174 367 183 344 q 145 378 160 372 q 117 386 131 383 l 111 382 l 111 294 q 140 281 124 283 q 172 269 157 279 l 181 271 m 92 301 q 91 351 88 326 q 85 397 94 375 q 51 408 67 400 q 19 415 36 415 l 19 328 l 26 319 q 55 309 40 313 q 83 300 69 306 l 92 301 m 181 393 q 180 442 176 418 q 174 489 183 465 q 145 497 160 492 q 117 506 131 503 l 111 504 q 111 456 113 479 q 114 413 110 433 q 144 400 129 406 q 174 389 160 394 l 181 393 m 92 426 l 92 508 q 78 521 86 518 l 69 521 q 47 529 58 525 q 26 539 36 533 l 19 533 q 19 487 21 510 q 22 443 18 464 q 53 431 38 435 q 83 419 68 428 l 92 426 m 181 515 l 181 597 l 174 608 q 145 618 160 613 q 117 628 131 624 l 111 625 l 111 539 l 117 529 q 146 520 132 522 q 174 510 160 518 l 181 515 m 92 543 l 92 629 q 81 640 85 639 q 52 648 67 642 q 29 658 38 654 l 19 656 l 19 569 l 26 560 q 55 551 40 553 q 83 540 69 549 l 92 543 m 451 543 q 451 591 447 567 q 446 638 456 615 q 416 649 431 643 q 389 658 401 654 l 382 653 l 382 567 q 411 552 394 554 q 443 540 428 550 l 451 543 m 363 574 q 362 622 358 599 q 356 668 365 646 q 322 678 338 671 q 290 686 307 686 l 290 600 l 297 590 q 326 581 313 583 q 354 571 340 578 l 363 574 m 271 607 q 271 652 268 631 q 267 697 274 674 q 236 708 251 704 q 207 718 221 713 l 200 714 q 200 668 203 690 q 204 624 197 646 q 235 612 221 615 q 265 600 250 608 l 271 607 m 181 635 q 180 683 176 658 q 174 729 183 707 q 145 738 160 733 q 117 747 131 743 l 111 744 q 111 697 113 721 q 114 653 110 674 q 144 642 129 647 q 174 629 160 636 l 181 635 m 463 656 q 490 665 472 663 q 515 678 507 668 q 408 675 454 697 q 436 664 422 668 q 463 656 450 660 m 92 665 l 92 747 q 83 760 81 760 q 49 770 67 763 q 19 778 32 778 l 19 690 l 26 682 q 55 672 40 675 q 83 660 69 668 l 92 665 m 372 686 q 398 696 383 694 q 424 707 413 697 q 396 715 410 710 q 372 724 382 721 q 343 713 358 715 q 319 703 328 710 q 346 695 333 701 q 372 686 358 689 m 281 717 q 306 726 294 724 q 332 736 318 729 q 304 745 318 742 q 278 753 290 749 q 251 742 265 747 q 228 733 236 738 q 254 725 242 731 q 281 717 267 719 m 181 756 l 181 838 l 174 849 q 145 859 160 853 q 117 868 131 865 l 111 867 l 111 779 q 122 768 117 769 q 148 761 136 767 q 174 751 160 756 l 181 756 m 92 783 q 91 833 88 808 q 85 879 94 857 q 55 888 69 882 q 29 899 40 894 l 19 897 l 19 810 q 31 799 24 801 q 83 782 47 797 l 92 783 m 181 876 q 179 924 176 901 q 175 968 182 946 q 140 981 157 975 q 111 988 124 988 l 111 901 l 117 893 q 150 881 136 886 q 174 871 164 875 l 181 876 m 92 906 q 91 953 88 929 q 85 1001 94 978 q 49 1011 67 1004 q 19 1018 32 1018 l 19 931 l 26 922 q 55 913 40 917 q 83 901 69 910 l 92 906 m 181 996 l 181 1079 l 174 1090 q 145 1100 160 1094 q 117 1110 131 1106 l 111 1107 l 111 1021 l 117 1013 q 146 1003 132 1010 q 174 992 160 997 l 181 996 m 543 994 q 542 1043 539 1018 q 539 1090 544 1068 q 507 1099 522 1093 q 478 1110 492 1106 l 471 1106 l 471 1022 l 478 1014 q 506 1003 492 1007 q 535 992 521 1000 l 543 994 m 92 1028 q 90 1074 88 1051 q 88 1118 93 1096 q 56 1130 71 1125 q 26 1142 40 1135 l 19 1138 l 19 1051 q 31 1040 25 1042 q 57 1033 44 1039 q 83 1022 69 1028 l 92 1028 m 451 1028 l 451 1110 l 446 1121 q 416 1131 431 1125 q 389 1140 401 1136 l 382 1138 l 382 1051 q 393 1040 388 1042 q 419 1033 407 1039 q 446 1022 432 1028 l 451 1028 m 363 1056 q 362 1103 358 1079 q 356 1151 365 1128 q 327 1160 342 1154 q 300 1171 313 1165 l 290 1168 l 290 1081 q 301 1071 296 1072 q 324 1065 311 1069 q 354 1053 338 1060 l 363 1056 m 271 1086 q 272 1134 268 1110 q 265 1181 275 1158 q 235 1190 250 1188 q 208 1200 221 1193 l 200 1199 l 200 1111 q 204 1106 201 1108 q 210 1100 207 1103 q 263 1083 236 1097 l 271 1086 m 551 1107 q 579 1119 565 1115 q 606 1126 593 1122 q 499 1126 554 1153 q 526 1118 513 1121 q 551 1107 540 1115 m 181 1117 q 180 1164 176 1140 q 174 1211 183 1188 q 145 1220 160 1217 q 117 1232 131 1224 l 111 1226 l 111 1140 q 140 1124 124 1129 q 172 1114 157 1119 l 181 1117 m 463 1138 q 490 1148 472 1147 q 515 1158 507 1149 q 485 1168 500 1161 q 458 1175 471 1175 q 432 1166 444 1168 q 408 1157 419 1164 q 436 1147 422 1149 q 463 1138 450 1146 m 92 1149 q 90 1194 88 1172 q 88 1240 93 1217 q 56 1250 71 1247 q 26 1261 40 1253 l 19 1257 l 19 1171 q 51 1154 33 1158 q 85 1142 69 1150 l 92 1149 m 372 1168 q 398 1178 386 1176 q 424 1188 410 1179 q 319 1186 368 1218 q 346 1177 333 1183 q 372 1168 358 1171 m 281 1199 q 314 1210 300 1206 q 335 1218 328 1215 q 228 1218 276 1242 q 254 1208 242 1213 q 281 1199 267 1203 m 189 1229 q 217 1238 203 1233 q 246 1249 231 1243 q 217 1257 231 1251 q 189 1265 203 1263 q 171 1259 179 1264 q 154 1254 163 1254 q 144 1251 149 1251 q 138 1249 140 1250 q 163 1238 151 1243 q 189 1229 175 1233 m 100 1260 q 127 1269 115 1264 q 151 1274 139 1274 l 154 1278 q 46 1278 93 1303 q 72 1269 60 1272 q 97 1260 85 1265 l 100 1260 z "},"G":{"ha":693,"x_min":0,"x_max":661,"o":"m 549 0 q 323 76 436 40 q 96 154 210 113 q 94 215 90 183 q 88 276 99 246 q 4 306 38 297 q 2 737 0 522 q 1 1169 4 951 q 18 1182 1 1171 q 49 1190 32 1182 q 83 1201 65 1199 q 94 1213 90 1204 l 94 1261 l 99 1268 q 331 1258 214 1318 q 564 1175 447 1197 l 568 1168 l 568 1133 l 568 1057 q 608 1040 583 1044 q 657 1024 633 1035 q 658 897 660 960 q 660 768 657 835 q 643 757 660 769 q 508 747 578 719 q 440 773 474 761 q 371 794 406 785 q 369 915 365 854 q 364 1039 372 976 q 333 1049 349 1044 q 303 1061 318 1053 l 296 1058 q 294 835 293 946 q 294 610 296 724 l 299 604 q 341 617 319 608 q 386 628 363 626 q 519 582 453 601 q 654 536 586 563 l 660 529 l 660 178 q 659 101 657 138 q 654 31 661 65 l 647 26 q 601 13 625 25 q 551 0 576 0 l 549 0 l 549 0 m 549 26 q 548 76 546 51 q 544 124 550 100 q 509 136 526 129 q 479 143 492 143 l 479 56 l 486 46 q 515 35 500 40 q 543 25 529 31 l 549 26 m 460 60 q 458 108 457 85 q 457 151 460 131 q 417 167 435 161 q 386 174 400 172 l 386 86 l 393 78 q 422 67 407 71 q 450 56 436 63 l 460 60 m 367 88 q 365 137 363 113 q 363 185 368 161 q 328 196 344 189 q 296 204 313 203 l 296 113 q 326 100 310 104 q 358 86 343 96 l 367 88 m 275 121 q 274 169 271 144 q 268 218 278 194 q 238 226 253 219 q 211 235 224 233 l 204 232 l 204 144 l 211 136 q 240 128 225 135 q 268 117 254 121 l 275 121 m 185 151 q 183 199 181 176 q 181 244 186 221 q 149 256 164 250 q 118 268 133 261 l 113 264 l 113 175 q 122 165 118 167 q 175 147 151 161 l 185 151 m 549 151 l 549 235 l 543 246 q 512 257 526 251 q 486 265 497 263 l 479 264 l 479 175 q 485 169 482 172 q 490 165 488 167 q 517 157 504 163 q 543 147 529 151 l 549 151 m 460 185 l 460 268 l 453 276 q 423 286 438 283 q 396 296 408 289 l 386 294 l 386 206 q 392 200 389 203 q 397 196 394 197 q 422 190 408 194 q 450 178 435 185 l 460 185 m 367 213 q 366 226 365 219 q 363 238 367 233 q 322 222 338 226 q 341 215 332 219 q 358 208 350 211 l 367 213 m 286 232 q 313 245 294 243 q 339 256 331 247 q 308 264 322 257 q 282 271 293 271 q 254 262 268 264 q 232 251 240 260 q 286 232 253 247 m 185 275 q 183 322 181 299 q 181 367 186 344 q 149 378 164 375 q 118 389 133 381 l 113 385 l 113 296 q 144 281 126 285 q 178 268 163 276 l 185 275 m 363 268 q 367 345 368 307 q 367 422 365 383 q 356 433 360 431 q 328 440 343 435 q 303 449 314 446 l 296 446 q 296 367 297 406 q 299 292 294 329 q 331 280 315 283 q 360 268 346 276 l 363 268 m 549 271 q 548 319 546 294 q 544 367 550 344 q 479 386 499 385 l 479 299 l 486 290 q 515 280 500 283 q 543 268 529 276 l 549 271 m 92 303 q 92 352 89 328 q 86 400 96 376 q 56 408 71 403 q 29 417 42 414 l 22 415 q 22 367 24 390 q 24 322 21 344 q 56 310 40 317 q 86 299 71 304 l 92 303 m 460 303 l 460 392 q 447 403 451 400 q 416 410 432 404 q 386 417 400 417 l 386 329 l 393 321 q 422 310 407 314 q 450 299 436 307 l 460 303 m 185 396 q 183 442 181 419 q 181 488 186 464 q 149 499 164 493 q 118 511 133 506 l 113 507 l 113 419 l 118 411 q 147 403 133 408 q 175 392 161 399 l 185 396 m 549 396 q 549 444 546 419 q 543 492 551 468 q 512 501 526 493 q 486 510 497 508 l 479 507 l 479 419 l 486 411 q 515 402 500 408 q 543 392 529 396 l 549 396 m 92 426 q 92 473 90 450 q 90 518 93 496 q 58 530 74 526 q 29 540 43 533 l 22 538 l 22 446 q 53 435 39 438 q 83 422 68 432 l 92 426 m 460 426 q 458 472 456 450 q 454 518 461 494 q 393 543 419 529 l 386 538 q 386 490 388 513 q 389 446 385 467 q 420 435 406 438 q 450 422 435 432 l 460 426 m 367 460 l 367 543 l 360 550 q 331 562 346 557 q 303 571 317 567 l 296 569 l 296 476 q 326 465 310 467 q 358 453 343 463 l 367 460 m 560 507 q 587 519 569 518 q 613 529 604 521 q 583 538 597 531 q 556 544 568 544 q 528 536 542 538 q 507 525 515 535 q 528 519 515 524 q 560 507 542 514 m 185 517 q 184 565 181 540 q 178 613 188 590 q 144 623 160 615 q 113 631 128 631 l 113 543 l 118 533 q 148 524 133 526 q 175 514 163 521 l 185 517 m 468 538 q 494 549 479 547 q 522 557 508 550 q 415 556 461 588 q 440 549 426 554 q 468 538 453 544 m 92 547 l 92 635 l 86 643 q 52 654 67 650 q 29 661 38 658 l 22 660 q 22 611 24 635 q 24 567 21 588 q 56 554 40 558 q 86 543 71 550 l 92 547 m 375 569 q 403 579 390 575 q 431 589 417 583 q 402 599 415 597 q 375 607 389 601 q 364 601 369 601 q 353 597 358 600 q 338 594 346 599 q 322 589 329 589 q 350 578 338 583 q 375 569 363 574 m 185 639 l 185 724 q 175 736 179 731 l 172 738 q 144 744 156 739 q 118 756 132 750 l 113 751 q 113 703 114 726 q 115 660 111 679 q 146 647 131 650 q 175 635 161 643 l 185 639 m 92 668 q 92 717 89 693 q 88 764 94 742 q 54 776 69 767 q 22 785 39 785 l 22 692 q 51 677 35 679 q 83 665 68 675 l 92 668 m 185 760 l 185 847 q 174 858 178 857 q 145 867 160 861 q 121 876 131 872 l 113 874 l 113 786 l 118 778 q 148 768 133 772 q 175 757 163 764 l 185 760 m 549 760 l 549 847 l 540 858 q 508 868 524 861 q 479 874 493 875 l 479 786 l 486 778 q 515 768 500 772 q 543 757 529 764 l 549 760 m 92 793 q 92 840 89 817 q 88 885 94 863 q 60 895 74 889 q 33 904 46 901 l 22 904 l 22 813 q 51 801 35 804 q 83 789 68 797 l 92 793 m 460 790 q 459 840 456 815 q 453 888 463 864 q 419 897 435 890 q 386 904 403 904 l 386 817 l 393 808 q 422 798 407 801 q 450 789 436 794 l 460 790 m 185 883 q 184 931 181 907 q 178 979 188 956 q 142 990 160 982 q 113 997 125 997 l 113 910 l 118 900 q 148 890 133 893 q 175 878 163 886 l 185 883 m 549 883 q 549 931 546 907 q 543 979 551 956 q 513 987 528 982 q 486 999 499 992 l 479 994 q 479 947 481 969 q 481 903 478 924 q 512 890 497 896 q 543 878 526 885 l 549 883 m 92 911 q 92 960 89 935 q 88 1008 94 985 q 54 1019 69 1013 q 22 1028 39 1025 l 22 936 q 51 923 35 926 q 83 910 68 919 l 92 911 m 460 914 l 460 997 q 450 1011 454 1004 l 446 1013 q 418 1019 431 1014 q 393 1031 406 1025 l 386 1025 q 386 978 388 1001 q 389 933 385 954 q 420 922 406 925 q 450 910 435 918 l 460 914 m 560 994 q 586 1007 571 1004 q 614 1014 601 1010 q 590 1023 601 1021 q 568 1032 579 1025 q 535 1026 553 1031 q 507 1013 518 1022 q 531 1006 518 1011 q 560 994 544 1001 m 185 1004 q 184 1052 181 1028 q 178 1100 188 1076 q 148 1109 163 1103 q 121 1121 133 1115 l 113 1118 l 113 1031 q 122 1018 114 1024 q 150 1011 136 1017 q 175 1001 164 1006 l 185 1004 m 92 1038 q 92 1083 89 1061 q 88 1129 94 1106 q 54 1142 69 1133 q 22 1149 39 1150 l 22 1057 q 51 1044 35 1046 q 83 1032 68 1042 l 92 1038 m 460 1035 l 460 1122 q 447 1133 451 1131 q 420 1141 435 1135 q 396 1151 406 1147 l 386 1149 l 386 1061 l 393 1051 q 422 1042 407 1044 q 450 1032 436 1040 l 460 1035 m 367 1068 q 365 1114 363 1092 q 363 1158 368 1136 q 333 1169 347 1164 q 307 1179 319 1175 l 296 1179 l 296 1088 q 326 1075 310 1079 q 358 1064 343 1071 l 367 1068 m 275 1093 q 274 1142 271 1118 q 269 1190 276 1167 q 234 1203 251 1196 q 204 1210 217 1210 l 204 1122 l 211 1114 q 268 1092 251 1099 l 275 1093 m 185 1126 l 185 1215 q 179 1221 182 1218 q 174 1225 176 1224 q 141 1233 157 1226 q 113 1240 125 1240 l 113 1153 l 118 1144 q 148 1134 133 1138 q 175 1122 163 1131 l 185 1126 m 468 1149 q 496 1158 481 1157 q 521 1169 511 1160 q 465 1181 494 1181 q 415 1165 436 1182 q 442 1158 429 1164 q 468 1149 454 1151 m 92 1157 q 91 1170 90 1163 q 88 1182 92 1178 q 67 1174 78 1178 q 49 1168 57 1169 q 67 1161 58 1167 q 83 1153 75 1156 l 92 1157 m 375 1179 q 402 1189 390 1186 q 428 1199 414 1192 q 399 1208 413 1206 q 374 1217 386 1211 q 345 1206 360 1210 q 322 1197 331 1201 q 350 1188 338 1194 q 375 1179 363 1182 m 286 1210 q 313 1219 297 1218 q 339 1232 328 1221 q 294 1244 304 1239 q 231 1228 264 1243 q 283 1210 260 1219 l 286 1210 m 196 1240 q 222 1251 210 1249 q 249 1258 235 1253 q 224 1267 238 1267 q 203 1276 211 1268 q 179 1274 190 1279 q 158 1268 168 1268 q 147 1262 153 1263 q 140 1256 140 1261 q 193 1239 157 1256 l 196 1240 z "},"H":{"ha":693,"x_min":0,"x_max":661,"o":"m 547 0 q 460 31 504 19 q 372 61 415 43 q 369 299 368 179 q 369 540 371 418 l 365 549 q 332 563 351 558 q 294 571 313 567 q 292 365 290 467 q 292 158 293 263 q 202 128 253 129 q 106 149 151 128 q 54 166 79 157 q 4 185 29 175 q 2 559 0 372 q 3 935 4 746 l 3 1293 q 38 1308 19 1300 q 75 1320 56 1315 q 115 1324 94 1325 q 154 1313 135 1322 q 219 1290 186 1303 q 286 1269 251 1278 l 292 1258 l 292 788 q 306 774 293 778 q 331 767 317 774 q 358 754 346 760 l 367 757 q 369 963 371 861 q 369 1169 367 1065 q 376 1174 374 1169 q 385 1181 378 1178 q 519 1189 451 1215 q 657 1143 588 1161 q 658 998 660 1071 q 660 850 657 925 q 659 438 657 640 q 654 31 661 235 l 643 24 q 597 11 619 22 q 551 0 575 0 l 547 0 l 547 0 m 550 29 q 549 76 547 53 q 547 121 550 99 q 515 133 531 129 q 486 143 500 138 l 479 140 q 479 92 481 115 q 481 49 478 69 q 513 36 497 42 q 543 24 528 31 l 550 29 m 460 58 q 458 106 456 83 q 456 151 461 128 q 422 163 438 157 q 393 175 407 169 l 386 172 l 386 83 l 393 75 q 422 66 408 71 q 450 56 436 61 l 460 58 m 185 149 l 185 236 q 174 249 179 246 q 145 256 160 250 q 121 265 131 261 l 113 263 l 113 175 l 119 167 q 148 158 133 160 q 175 147 163 156 l 185 149 m 550 149 q 549 198 546 174 q 543 246 551 222 q 513 256 528 250 q 486 265 499 261 l 479 261 l 479 174 q 508 159 492 161 q 540 147 525 157 l 550 149 m 92 181 q 92 229 89 204 q 86 276 96 254 q 52 289 68 283 q 19 294 36 294 l 19 206 q 31 196 25 197 q 58 187 46 193 q 83 178 71 181 l 92 181 m 460 181 q 459 229 456 204 q 453 276 463 254 q 422 285 438 279 q 396 296 406 292 l 386 294 l 386 206 l 393 197 q 422 187 407 190 q 450 178 436 183 l 460 181 m 185 272 l 185 356 q 175 369 179 363 q 142 379 160 372 q 113 386 125 386 l 113 299 l 119 289 q 148 280 133 283 q 175 268 163 276 l 185 272 m 550 272 q 549 321 546 296 q 543 369 551 346 q 513 377 528 372 q 486 386 499 382 l 479 383 q 479 337 481 360 q 481 292 478 314 q 513 279 497 285 q 543 268 528 274 l 550 272 m 92 301 q 92 350 89 325 q 88 397 94 375 q 57 408 72 404 q 26 419 42 411 l 19 413 l 19 329 l 26 321 q 56 310 42 314 q 83 299 71 307 l 92 301 m 460 306 l 460 389 q 446 401 454 399 l 438 401 q 414 410 425 406 q 393 419 403 414 l 386 414 q 386 367 388 390 q 389 322 385 344 q 420 311 406 315 q 450 299 435 307 l 460 306 m 185 393 q 184 442 181 417 q 178 490 188 467 q 149 498 163 492 q 121 510 135 504 l 113 507 l 113 419 q 124 408 117 411 q 144 402 131 407 q 175 390 157 397 l 185 393 m 550 394 l 550 479 l 543 490 q 513 499 528 493 q 486 510 499 506 l 479 507 l 479 419 l 486 410 q 515 401 500 404 q 543 390 529 399 l 550 394 m 92 424 q 92 472 89 447 q 86 521 96 497 q 56 530 71 526 q 29 540 42 533 l 19 538 l 19 450 q 31 439 24 442 q 83 421 51 438 l 92 424 m 460 424 l 460 511 q 449 522 453 521 q 420 530 435 524 q 396 540 406 536 l 386 538 l 386 450 l 393 440 q 422 432 407 435 q 450 421 436 429 l 460 424 m 185 517 q 184 565 181 540 q 178 613 188 589 q 142 623 160 615 q 113 631 125 631 l 113 542 l 119 533 q 148 523 133 526 q 175 511 163 519 l 185 517 m 550 517 q 549 565 546 540 q 543 613 551 589 q 509 624 524 619 q 486 631 494 628 l 479 628 q 479 580 481 603 q 481 535 478 557 q 513 524 497 529 q 543 511 528 518 l 550 517 m 92 547 q 92 595 89 571 q 86 643 96 619 q 51 653 68 646 q 19 661 33 661 l 19 574 q 31 561 26 563 q 58 553 46 560 q 83 542 71 547 l 92 547 m 460 547 l 460 631 q 450 643 451 643 q 417 653 433 646 q 386 661 400 661 l 386 574 l 393 564 q 422 553 407 557 q 450 542 436 550 l 460 547 m 367 575 q 367 624 364 600 q 363 671 369 649 q 331 681 346 678 q 301 694 315 685 l 294 688 l 294 604 l 301 594 q 330 584 315 588 q 358 574 344 581 l 367 575 m 275 608 q 274 657 271 632 q 268 704 278 682 q 238 714 253 707 q 211 722 224 721 l 204 721 l 204 632 l 211 624 q 240 615 225 621 q 268 604 256 608 l 275 608 m 185 639 q 183 686 181 664 q 181 731 186 708 q 149 743 164 738 q 119 754 133 749 l 113 751 q 113 703 114 726 q 115 658 111 679 q 146 646 131 650 q 175 635 161 642 l 185 639 m 550 639 l 550 722 l 543 733 q 513 743 528 738 q 486 753 499 749 l 479 751 l 479 663 q 490 653 485 653 q 517 644 504 650 q 543 635 529 639 l 550 639 m 92 667 q 92 716 89 692 q 86 764 96 740 q 56 775 71 771 q 29 783 42 779 l 19 782 l 19 694 l 26 685 q 56 676 42 679 q 83 665 71 674 l 92 667 m 460 667 q 459 716 456 692 q 453 764 463 740 q 423 773 438 767 q 396 783 408 779 l 386 782 l 386 694 q 399 682 392 683 q 424 675 410 681 q 450 665 438 669 l 460 667 m 367 700 q 363 724 360 726 q 336 714 346 717 q 324 710 326 711 q 342 703 333 707 q 358 696 350 699 l 367 700 m 286 721 q 313 731 296 729 q 339 742 331 733 q 309 750 324 743 q 282 757 294 757 q 254 749 268 750 q 232 738 240 747 q 286 721 253 735 m 185 761 q 183 808 181 786 q 181 854 186 831 q 149 865 164 863 q 119 875 133 868 l 113 871 l 113 783 q 144 767 126 772 q 178 754 163 763 l 185 761 m 550 761 q 548 808 546 786 q 544 854 550 831 q 509 867 526 860 q 479 874 492 874 l 479 786 l 486 778 q 543 754 524 764 l 550 761 m 92 793 q 92 839 89 817 q 88 885 94 861 q 57 896 72 893 q 26 907 42 899 l 19 901 l 19 814 q 52 799 33 803 q 86 786 71 794 l 92 793 m 460 790 l 460 878 q 449 889 453 888 q 416 897 432 890 q 386 904 400 904 l 386 817 l 393 808 q 422 798 407 801 q 450 786 436 794 l 460 790 m 185 882 q 183 929 181 907 q 181 975 186 951 q 149 986 164 981 q 119 999 133 992 l 113 994 l 113 907 l 119 897 q 147 890 133 894 q 175 878 161 885 l 185 882 m 550 882 l 550 967 l 543 978 q 513 988 528 982 q 486 997 499 993 l 479 994 l 479 907 l 486 897 q 515 890 500 896 q 543 878 529 883 l 550 882 m 92 911 q 92 960 89 935 q 86 1008 96 985 q 56 1018 71 1014 q 29 1026 42 1022 l 19 1025 l 19 938 q 31 926 24 929 q 83 908 51 925 l 92 911 m 460 914 q 458 960 456 938 q 456 1006 461 982 q 422 1017 438 1013 q 393 1029 407 1022 l 386 1025 l 386 938 q 399 926 392 929 q 424 919 413 925 q 450 908 436 914 l 460 914 m 185 1003 q 184 1052 181 1028 q 178 1100 188 1076 q 144 1110 160 1103 q 113 1118 129 1118 l 113 1029 l 119 1021 q 148 1010 133 1014 q 175 1001 163 1007 l 185 1003 m 550 1003 q 549 1052 546 1028 q 543 1100 551 1076 q 513 1109 528 1106 q 486 1119 499 1113 l 479 1115 l 479 1026 q 508 1012 492 1017 q 540 1001 525 1007 l 550 1003 m 92 1036 q 92 1083 89 1061 q 88 1129 94 1106 q 57 1139 72 1136 q 26 1150 42 1142 l 19 1146 l 19 1058 q 52 1042 33 1046 q 86 1029 71 1038 l 92 1036 m 460 1036 q 458 1083 456 1061 q 456 1129 461 1106 q 422 1139 438 1136 q 393 1150 407 1142 l 386 1146 l 386 1058 q 419 1042 401 1046 q 453 1029 438 1038 l 460 1036 m 558 1118 q 587 1127 572 1122 q 615 1138 601 1132 q 585 1146 600 1140 q 558 1156 571 1151 q 531 1144 544 1149 q 506 1138 517 1140 q 533 1127 521 1132 q 558 1118 544 1122 m 185 1126 l 185 1210 q 175 1222 179 1217 l 172 1225 q 144 1232 157 1226 q 119 1243 132 1238 l 113 1239 q 113 1190 114 1214 q 115 1146 111 1167 q 146 1133 131 1138 q 175 1122 161 1129 l 185 1126 m 468 1149 q 494 1158 482 1153 q 521 1164 507 1164 l 522 1168 q 494 1176 508 1171 q 465 1186 479 1182 q 438 1175 453 1179 q 413 1168 424 1171 q 440 1158 428 1161 q 465 1149 453 1154 l 468 1149 m 92 1157 q 92 1205 90 1182 q 90 1249 93 1228 q 58 1260 74 1257 q 29 1271 43 1264 l 19 1269 q 20 1221 22 1244 q 22 1176 18 1197 q 53 1165 39 1168 q 83 1153 68 1163 l 92 1157 m 193 1239 q 220 1249 204 1246 q 249 1258 236 1253 q 224 1267 235 1264 q 203 1275 214 1269 q 140 1256 176 1275 q 193 1239 163 1253 m 101 1269 q 129 1280 115 1276 q 156 1289 143 1283 q 49 1289 104 1315 q 75 1279 61 1282 q 101 1269 89 1276 z "},"I":{"ha":692,"x_min":0,"x_max":660,"o":"m 549 0 q 278 92 414 51 q 4 186 142 133 q 1 253 0 219 q 1 321 3 286 q 44 337 22 329 q 87 347 65 344 q 130 347 108 350 q 174 329 151 343 l 181 329 q 183 710 186 522 q 185 1094 181 899 l 178 1100 q 93 1130 135 1117 q 7 1160 51 1143 l 1 1165 l 1 1293 q 122 1319 57 1336 q 186 1301 154 1311 q 250 1281 218 1292 q 453 1213 354 1244 q 653 1147 551 1182 l 658 1138 l 658 1011 q 479 1000 571 961 q 476 616 476 807 q 481 231 475 425 q 562 201 521 214 q 643 175 603 189 q 657 167 656 169 q 658 103 660 136 q 658 38 657 69 l 654 31 q 606 15 631 25 q 557 3 582 4 l 549 0 l 549 0 m 549 29 q 549 77 546 53 q 542 125 551 101 q 512 135 526 132 q 485 144 497 138 l 479 142 l 479 53 q 508 38 492 43 q 540 26 525 32 l 549 29 m 460 60 q 459 109 456 85 q 453 156 463 133 q 417 166 435 158 q 386 174 399 174 l 386 86 l 393 76 q 422 67 407 71 q 450 56 436 63 l 460 60 m 367 90 l 367 174 l 360 185 q 324 197 342 189 q 294 204 307 204 l 294 115 q 306 106 297 111 q 332 97 319 103 q 358 86 344 90 l 367 90 m 275 121 l 275 204 l 268 215 q 210 235 236 229 l 204 232 l 204 144 l 210 136 q 240 128 225 135 q 268 115 254 121 l 275 121 m 557 143 q 587 152 572 146 q 614 163 601 158 q 585 171 600 165 q 557 181 571 176 q 535 172 549 176 q 504 163 522 168 q 532 152 519 157 q 557 143 544 147 m 182 151 l 182 235 l 175 246 q 140 258 154 253 q 118 268 125 264 l 113 264 l 113 175 l 118 167 q 147 159 133 164 q 175 147 161 154 l 182 151 m 465 174 q 494 183 481 179 q 522 192 508 188 q 499 200 513 200 q 476 208 486 200 q 442 201 460 207 q 413 192 424 196 q 435 185 422 189 q 465 174 447 181 m 92 185 l 92 268 l 86 276 q 56 287 71 283 q 29 296 42 290 l 19 294 q 20 247 22 269 q 22 203 18 224 l 31 196 q 83 178 51 194 l 92 185 m 367 215 l 367 299 l 360 307 q 331 318 346 314 q 303 328 317 322 l 294 325 l 294 236 q 306 226 300 228 q 358 208 326 225 l 367 215 m 275 243 q 274 290 271 268 q 269 336 276 313 q 236 349 251 340 q 204 358 221 358 l 204 265 q 234 252 217 254 q 265 239 251 250 l 275 243 m 182 275 q 181 294 178 297 l 175 296 q 155 288 165 290 q 140 282 144 286 q 158 277 150 282 q 175 269 167 272 l 182 275 m 101 294 q 129 306 115 304 q 156 314 143 307 q 131 324 144 319 q 101 332 117 328 q 74 322 88 328 q 49 314 60 317 q 75 303 61 307 q 101 294 89 300 m 367 336 q 365 383 363 360 q 363 428 368 406 q 331 439 346 436 q 301 450 315 442 l 294 446 l 294 358 q 327 342 308 346 q 360 329 346 338 l 367 336 m 275 364 q 274 413 271 389 q 268 461 278 438 q 238 469 253 464 q 210 479 224 475 l 204 476 q 204 428 206 451 q 206 383 203 406 q 238 372 222 378 q 268 360 253 367 l 275 364 m 367 460 l 367 543 l 360 551 q 331 561 346 557 q 303 571 317 565 l 294 568 q 294 521 296 544 q 296 476 292 497 l 306 469 q 358 453 328 467 l 367 460 m 275 488 l 275 571 l 268 582 q 238 592 253 586 q 210 603 224 599 l 204 600 l 204 511 l 210 503 q 240 494 225 496 q 268 483 254 492 l 275 488 m 367 579 q 365 626 363 604 q 363 672 368 649 q 331 684 346 681 q 301 694 315 688 l 294 690 q 294 642 297 665 q 299 597 292 619 q 331 585 315 589 q 360 574 346 581 l 367 579 m 275 608 q 274 658 271 633 q 268 704 278 682 q 235 715 249 711 q 210 722 221 719 l 204 721 q 204 672 206 696 q 206 628 203 649 q 238 615 222 621 q 268 604 253 610 l 275 608 m 367 699 q 365 748 363 724 q 363 794 368 772 q 301 817 331 803 l 294 813 q 294 765 296 788 q 296 721 292 742 q 328 709 313 713 q 358 696 343 706 l 367 699 m 275 731 l 275 815 l 268 825 q 238 836 253 831 q 210 846 224 842 l 204 843 l 204 756 q 215 744 208 747 q 242 738 231 743 q 268 726 254 732 l 275 731 m 367 824 q 365 870 363 847 q 363 915 368 893 q 331 927 346 924 q 301 938 315 931 l 294 933 l 294 846 q 327 829 307 832 q 360 817 347 826 l 367 824 m 275 851 q 274 901 271 876 q 268 949 278 925 q 238 958 253 956 q 210 967 224 961 l 204 964 q 204 916 206 939 q 206 872 203 893 q 238 860 222 865 q 268 847 253 854 l 275 851 m 367 944 l 367 1028 l 360 1039 q 324 1051 342 1043 q 294 1058 307 1058 l 294 971 l 301 961 q 330 952 315 956 q 358 940 344 949 l 367 944 m 275 975 q 274 1022 272 999 q 272 1068 275 1044 q 240 1080 256 1074 q 210 1089 225 1086 l 204 1088 q 204 1039 206 1063 q 206 994 203 1015 q 238 983 222 986 q 268 971 253 979 l 275 975 m 549 1006 l 549 1089 l 542 1100 q 512 1110 526 1104 q 485 1121 497 1117 l 479 1118 l 479 1029 q 490 1019 485 1021 q 517 1011 504 1017 q 542 1001 529 1006 l 549 1006 m 460 1036 q 458 1083 456 1061 q 454 1129 461 1106 q 422 1141 438 1135 q 393 1151 407 1147 l 386 1149 l 386 1061 q 397 1049 390 1053 q 424 1042 410 1047 q 450 1032 438 1036 l 460 1036 m 367 1065 q 367 1113 363 1089 q 360 1161 371 1138 q 331 1172 346 1168 q 303 1182 317 1175 l 294 1179 l 294 1092 q 306 1081 301 1082 q 330 1074 317 1079 q 358 1063 343 1069 l 367 1065 m 275 1096 l 275 1183 l 268 1192 q 238 1203 253 1197 q 210 1210 224 1208 l 204 1208 l 204 1121 q 234 1105 217 1110 q 265 1094 251 1100 l 275 1096 m 560 1118 q 587 1128 569 1128 q 613 1140 604 1129 q 583 1148 597 1140 q 556 1156 568 1156 q 529 1147 542 1149 q 504 1138 517 1144 q 533 1128 519 1129 q 560 1118 546 1126 m 182 1125 l 182 1213 l 175 1224 q 145 1232 160 1229 q 118 1243 131 1235 l 113 1239 l 113 1151 q 144 1134 126 1139 q 178 1122 163 1129 l 182 1125 m 468 1149 q 494 1158 482 1157 q 521 1168 507 1160 q 414 1165 463 1199 q 442 1158 429 1164 q 468 1149 454 1151 m 92 1160 q 90 1206 88 1185 q 88 1251 93 1228 q 56 1262 71 1258 q 26 1274 40 1265 l 19 1269 l 19 1182 q 52 1165 33 1169 q 86 1153 71 1161 l 92 1160 m 375 1179 q 403 1188 390 1185 q 431 1199 417 1192 q 322 1199 369 1221 q 347 1190 333 1194 q 375 1179 360 1185 m 283 1210 q 312 1220 297 1215 q 340 1229 326 1225 q 310 1238 325 1232 q 283 1247 296 1243 q 265 1240 272 1244 q 249 1236 257 1236 q 238 1231 243 1232 q 231 1229 233 1231 q 257 1220 244 1225 q 283 1210 269 1215 m 193 1240 q 219 1250 207 1244 q 246 1256 232 1256 l 249 1261 q 139 1261 186 1283 q 165 1249 153 1253 q 192 1240 178 1246 l 193 1240 m 101 1269 q 128 1282 113 1279 q 156 1292 144 1285 q 126 1299 140 1294 q 99 1308 111 1304 q 72 1299 86 1303 q 49 1289 57 1296 q 101 1269 72 1283 z "},"J":{"ha":693,"x_min":0,"x_max":661,"o":"m 457 32 q 276 94 365 67 q 97 156 186 122 q 93 185 93 169 q 94 215 93 200 q 94 246 96 231 q 88 278 93 261 q 47 293 68 286 q 4 308 26 300 q 1 433 0 371 q 1 561 3 494 l 6 568 q 146 585 75 613 q 217 560 182 571 q 288 538 251 549 l 292 531 l 292 301 l 296 293 q 329 279 310 283 q 367 271 349 275 q 368 650 369 463 q 369 1031 367 838 l 369 1174 q 375 1177 371 1175 q 383 1183 379 1179 q 429 1197 406 1186 q 476 1210 453 1207 q 565 1178 521 1192 q 654 1147 608 1164 q 658 653 661 899 q 658 160 656 408 q 617 142 640 147 q 574 126 594 138 l 567 117 l 567 69 l 563 63 q 515 45 539 54 q 465 32 490 36 l 457 32 l 457 32 m 457 58 q 456 108 453 83 q 453 156 458 132 q 417 167 435 161 q 386 174 399 174 l 386 88 l 393 79 q 422 68 407 74 q 450 57 436 63 l 457 58 m 367 92 q 367 139 365 115 q 364 183 368 163 q 294 204 319 203 l 294 117 l 301 108 q 330 98 315 101 q 358 88 344 94 l 367 92 m 274 119 q 274 169 271 144 q 269 217 276 193 q 236 227 251 221 q 204 236 221 233 l 204 144 q 234 132 217 136 q 265 117 251 128 l 274 119 m 182 153 q 182 201 178 176 q 175 250 186 226 q 147 258 161 251 q 118 267 132 265 l 113 265 l 113 176 l 118 168 q 148 160 133 167 q 175 149 163 153 l 182 153 m 550 156 q 548 201 546 179 q 544 247 550 224 q 510 258 526 250 q 479 267 494 267 q 479 217 482 242 q 483 171 476 193 q 512 161 497 165 q 540 149 526 157 l 550 156 m 457 183 l 457 267 l 450 278 q 420 288 435 283 q 393 297 406 293 l 386 296 l 386 207 q 397 197 392 199 q 424 189 411 194 q 450 179 436 183 l 457 183 m 367 214 q 366 228 365 221 q 363 239 367 235 q 341 230 353 231 q 322 221 329 229 q 340 217 332 222 q 358 210 349 213 l 367 214 m 286 233 q 312 246 297 243 q 338 254 326 249 q 283 268 311 265 q 232 251 254 271 q 260 244 247 250 q 286 233 272 238 m 182 274 q 181 322 178 297 q 178 371 183 347 q 147 380 163 374 q 121 390 131 386 l 113 388 l 113 300 l 118 290 q 148 281 133 285 q 175 271 163 278 l 182 274 m 550 276 q 548 322 546 300 q 544 368 550 344 q 516 378 529 372 q 490 388 503 383 l 479 388 l 479 296 q 508 283 492 288 q 540 271 525 279 l 550 276 m 92 307 q 91 353 88 331 q 88 399 94 375 q 56 410 71 407 q 26 421 40 413 l 19 417 l 19 328 q 52 313 33 317 q 86 300 71 308 l 92 307 m 457 301 q 456 351 453 326 q 453 399 458 375 q 417 412 435 406 q 386 418 399 418 l 386 331 l 393 322 q 422 312 407 315 q 450 300 436 308 l 457 301 m 182 397 q 182 444 181 421 q 181 489 183 467 q 149 501 164 497 q 118 511 133 506 l 113 508 l 113 421 l 118 411 q 148 403 133 410 q 175 392 163 397 l 182 397 m 550 394 q 548 442 546 418 q 544 492 550 467 q 510 502 526 496 q 479 511 494 508 l 479 418 q 508 406 492 410 q 540 392 525 401 l 550 394 m 92 428 q 91 474 88 451 q 88 519 94 496 q 56 531 71 525 q 26 544 40 536 l 19 539 l 19 451 l 26 443 q 83 424 58 435 l 92 428 m 457 428 q 456 476 453 451 q 450 524 460 500 q 420 532 435 525 q 393 542 406 539 l 386 539 l 386 451 l 393 443 q 422 434 407 440 q 450 424 436 428 l 457 428 m 193 508 q 219 520 204 518 q 249 528 235 522 q 224 537 235 535 q 203 546 213 539 q 169 540 188 544 q 140 525 151 536 q 193 508 161 524 m 550 521 l 550 606 l 543 614 q 513 623 528 619 q 485 633 499 626 l 479 632 l 479 539 q 508 527 492 529 q 540 515 525 525 l 550 521 m 101 539 q 128 550 113 547 q 156 558 143 553 q 130 568 143 565 q 106 576 117 571 q 74 569 89 575 q 46 558 60 563 q 74 550 60 553 q 101 539 88 547 m 457 549 q 456 597 453 572 q 453 644 458 621 q 422 654 438 647 q 396 665 406 661 l 386 663 l 386 575 l 393 565 q 422 555 407 558 q 450 546 436 551 l 457 549 m 550 640 q 549 690 546 665 q 543 738 551 714 q 513 746 528 740 q 485 754 499 751 l 479 753 q 478 703 481 726 q 481 660 476 681 q 513 647 497 653 q 543 636 528 642 l 550 640 m 457 671 q 456 719 454 696 q 454 763 458 742 q 422 776 438 771 q 393 785 407 781 l 386 782 l 386 694 l 393 686 q 422 678 407 685 q 450 667 436 671 l 457 671 m 550 765 l 550 849 l 543 857 q 513 868 528 864 q 485 878 499 872 l 479 875 l 479 782 q 508 770 492 772 q 540 758 525 768 l 550 765 m 457 792 q 456 840 453 815 q 453 889 458 865 q 419 899 435 892 q 386 906 403 906 l 386 818 l 393 810 q 422 800 407 804 q 450 789 436 796 l 457 792 m 550 885 q 549 933 546 908 q 543 981 551 957 q 513 990 528 986 q 485 997 499 993 l 479 996 q 478 948 481 971 q 481 904 476 925 q 513 892 497 897 q 543 879 528 886 l 550 885 m 457 915 q 456 963 453 939 q 450 1011 460 988 q 421 1019 435 1014 q 393 1031 407 1024 l 386 1026 q 386 978 388 1001 q 389 935 385 956 q 420 922 406 928 q 450 910 435 917 l 457 915 m 550 1004 q 548 1053 546 1029 q 544 1101 550 1078 q 510 1113 526 1104 q 479 1121 494 1121 l 479 1029 q 508 1015 492 1017 q 540 1003 525 1013 l 550 1004 m 457 1038 l 457 1121 l 450 1132 q 420 1142 435 1136 q 393 1151 406 1149 l 386 1150 l 386 1061 l 393 1053 q 422 1044 407 1046 q 450 1033 436 1042 l 457 1038 m 557 1119 q 586 1130 572 1128 q 613 1139 600 1132 q 504 1139 560 1165 q 532 1128 518 1132 q 557 1119 546 1125 m 468 1150 q 495 1161 481 1157 q 521 1171 510 1165 q 413 1169 460 1192 q 441 1159 428 1161 q 468 1150 454 1157 z "},"K":{"ha":699,"x_min":0,"x_max":665,"o":"m 551 0 q 463 31 507 18 q 374 63 418 44 q 372 186 367 125 q 364 311 376 247 q 334 319 349 317 q 301 333 319 322 l 294 329 q 293 245 292 288 q 293 160 294 203 l 289 153 q 147 136 218 108 q 76 162 111 150 q 4 185 40 174 l 0 192 l 0 1306 l 4 1313 q 35 1323 19 1317 q 65 1334 50 1329 q 97 1340 81 1339 q 129 1338 113 1342 q 210 1309 171 1322 q 288 1281 249 1296 l 293 1274 q 292 1128 294 1201 q 297 979 290 1054 q 330 988 314 982 q 364 1001 346 994 l 371 1011 l 371 1183 q 378 1187 376 1183 q 386 1194 379 1190 q 522 1204 456 1231 q 592 1178 557 1190 q 663 1156 626 1167 q 664 1028 665 1092 q 665 899 663 965 q 628 883 649 892 q 586 869 607 874 l 578 867 l 571 857 l 571 683 q 533 666 556 674 q 492 653 511 658 q 481 642 485 649 l 481 607 l 486 600 q 525 586 504 592 q 567 571 546 581 l 571 564 l 571 333 q 585 318 574 322 q 660 293 607 315 l 665 288 l 665 163 q 664 95 663 128 q 660 31 665 63 q 610 14 638 25 q 556 0 582 3 l 551 0 l 551 0 m 553 29 q 553 77 551 54 q 551 122 554 100 q 519 134 535 128 q 489 144 503 140 l 482 143 l 482 49 q 514 38 499 40 q 544 25 529 35 l 553 29 m 460 60 l 460 144 l 453 156 q 423 166 438 160 q 396 175 408 172 l 389 174 l 389 85 l 396 75 q 424 66 410 68 q 453 56 439 64 l 460 60 m 182 150 q 182 200 178 175 q 175 249 186 225 q 145 258 160 256 q 118 268 131 261 l 111 264 l 111 175 q 141 160 124 165 q 174 149 158 156 l 182 150 m 553 153 q 552 201 550 178 q 549 247 554 224 q 482 267 503 265 l 482 174 q 512 161 494 165 q 544 149 529 157 l 553 153 m 92 182 l 92 271 q 86 276 89 274 q 81 282 83 279 q 47 291 64 285 q 18 297 31 297 l 18 208 l 25 200 q 53 190 39 193 q 82 178 68 186 l 92 182 m 460 182 q 460 232 457 207 q 453 279 463 257 q 426 289 440 285 q 396 297 411 293 l 389 296 q 389 247 390 269 q 390 203 388 224 q 422 190 407 196 q 453 178 438 183 l 460 182 m 567 267 q 592 276 579 272 q 615 288 604 281 q 590 295 603 293 q 565 304 576 297 q 535 294 550 297 q 508 285 519 290 q 536 276 524 283 q 563 267 549 269 l 567 267 m 182 275 q 182 324 178 300 q 175 374 186 349 q 145 382 160 375 q 118 390 131 389 l 111 389 l 111 300 l 118 290 q 147 283 132 289 q 175 271 163 276 l 182 275 m 92 307 q 90 353 88 331 q 88 400 93 376 q 54 412 69 406 q 25 424 39 418 l 18 419 l 18 331 q 29 319 22 322 q 82 301 54 318 l 92 307 m 460 307 l 460 390 l 453 401 q 423 413 438 407 q 396 422 408 418 l 389 419 l 389 331 q 400 319 396 321 q 426 313 414 318 q 453 301 439 307 l 460 307 m 369 340 l 369 424 q 357 435 363 433 q 331 443 343 436 q 304 453 318 450 l 294 451 l 294 363 q 307 351 300 354 q 360 333 331 347 l 369 340 m 182 400 q 181 447 178 424 q 178 493 185 469 q 147 504 163 499 q 119 515 131 510 l 111 514 l 111 424 l 118 415 q 147 405 132 408 q 175 396 163 401 l 182 400 m 92 431 q 90 478 88 456 q 88 524 93 500 q 54 535 69 532 q 25 547 39 538 l 18 542 l 18 453 q 51 436 32 440 q 85 424 69 432 l 92 431 m 460 426 q 460 476 457 451 q 456 524 463 500 q 389 544 411 542 l 389 456 l 396 447 q 424 435 410 439 q 453 424 439 432 l 460 426 m 369 460 l 369 549 q 357 560 360 558 q 325 568 342 561 q 294 575 308 575 l 294 486 l 301 478 q 332 467 317 471 q 360 456 347 463 l 369 460 m 182 521 q 182 569 181 546 q 181 615 183 593 q 148 628 164 624 q 118 638 132 632 l 111 636 l 111 547 l 118 538 q 147 529 132 536 q 175 518 163 522 l 182 521 m 469 544 q 498 554 483 547 q 526 564 513 561 q 497 573 511 567 q 469 582 482 579 q 441 571 456 575 q 415 564 426 567 q 443 553 431 558 q 469 544 456 549 m 92 553 q 90 600 88 578 q 88 646 93 622 q 54 658 69 653 q 25 671 39 664 l 18 667 l 18 578 l 25 568 q 54 560 40 565 q 82 549 68 556 l 92 553 m 369 583 q 368 631 365 608 q 364 678 371 654 q 332 689 347 683 q 301 701 317 694 l 294 697 q 296 649 297 672 q 297 604 294 625 q 330 592 314 596 q 360 579 346 589 l 369 583 m 275 617 l 275 701 l 268 711 q 239 721 254 717 q 211 731 224 725 l 204 729 l 204 636 q 235 623 218 625 q 267 611 251 621 l 275 617 m 182 646 q 181 694 178 671 q 178 740 185 717 q 147 751 163 746 q 119 763 131 757 l 111 760 l 111 671 l 118 663 q 147 653 132 656 q 175 642 163 650 l 182 646 m 92 675 q 91 725 88 700 q 85 774 94 750 q 50 783 65 776 q 18 790 35 790 l 18 701 l 25 693 q 53 683 39 686 q 82 672 68 679 l 92 675 m 460 678 l 460 763 l 453 774 q 423 783 438 779 q 396 793 408 786 l 389 789 l 389 700 q 419 685 403 690 q 451 672 435 679 l 460 678 m 369 708 q 368 756 365 733 q 364 801 371 778 q 332 813 347 810 q 301 824 317 815 l 294 819 l 294 731 q 329 715 311 719 q 363 701 347 710 l 369 708 m 275 735 l 275 757 l 268 763 q 250 754 261 754 q 232 749 239 754 q 251 740 240 743 q 268 733 261 738 l 275 735 m 182 768 q 182 817 178 793 q 175 867 186 842 q 145 874 160 868 q 118 883 131 881 l 111 882 q 112 833 114 857 q 114 789 110 810 q 145 776 131 782 q 175 764 160 771 l 182 768 m 92 800 l 92 883 q 82 897 83 897 l 78 899 q 50 906 63 900 q 25 918 38 913 l 18 913 q 18 864 19 888 q 19 819 17 840 q 51 808 36 811 q 82 796 67 804 l 92 800 m 460 800 q 460 847 458 824 q 457 893 461 871 q 425 906 440 901 q 396 915 410 910 l 389 913 l 389 824 l 396 815 q 424 806 410 813 q 453 796 439 800 l 460 800 m 369 831 q 368 878 365 856 q 364 925 371 900 q 332 936 347 931 q 301 949 317 942 l 294 944 l 294 856 l 301 846 q 360 826 331 840 l 369 831 m 182 893 l 182 978 l 175 988 q 145 999 160 993 q 118 1008 131 1004 l 111 1006 l 111 918 l 118 908 q 147 899 132 901 q 175 889 163 897 l 182 893 m 553 896 l 553 979 l 547 988 q 516 999 531 994 q 489 1008 501 1003 l 482 1006 l 482 913 q 512 900 494 903 q 544 889 529 897 l 553 896 m 92 922 l 92 1011 q 86 1017 89 1014 q 81 1022 83 1019 q 51 1030 67 1024 q 28 1039 36 1036 l 18 1038 l 18 949 l 25 939 q 53 930 39 932 q 82 919 68 928 l 92 922 m 460 922 l 460 1011 l 451 1022 q 419 1031 435 1024 q 389 1038 404 1039 l 389 949 l 396 939 q 424 930 410 932 q 453 919 439 928 l 460 922 m 369 956 q 367 975 363 978 l 360 978 q 340 969 350 972 q 324 961 329 967 q 360 951 332 961 l 369 956 m 182 1015 q 182 1065 178 1040 q 175 1113 186 1089 q 140 1124 154 1119 q 118 1131 125 1128 l 111 1128 q 112 1080 114 1103 q 114 1035 110 1057 q 175 1011 144 1021 l 182 1015 m 553 1015 q 553 1065 550 1040 q 547 1113 557 1089 q 516 1122 531 1115 q 489 1131 501 1128 l 482 1128 q 482 1080 483 1103 q 485 1035 481 1057 q 515 1022 500 1028 q 547 1011 531 1017 l 553 1015 m 92 1046 q 91 1096 88 1071 q 85 1144 94 1121 q 48 1154 65 1147 q 18 1161 31 1161 l 18 1072 l 25 1064 q 53 1053 39 1057 q 82 1042 68 1050 l 92 1046 m 460 1046 q 460 1096 457 1071 q 453 1144 463 1121 q 423 1152 438 1147 q 396 1161 408 1157 l 389 1158 q 389 1111 390 1135 q 390 1065 388 1088 q 422 1053 407 1060 q 453 1042 438 1047 l 460 1046 m 565 1128 q 588 1139 575 1136 q 613 1146 601 1142 l 615 1150 q 588 1160 601 1156 q 563 1168 575 1165 q 533 1157 547 1161 q 507 1149 519 1153 q 565 1128 538 1142 m 182 1139 l 182 1224 l 175 1235 q 145 1246 160 1240 q 118 1254 131 1251 l 111 1253 l 111 1164 q 122 1153 118 1154 q 150 1145 138 1151 q 175 1135 163 1139 l 182 1139 m 471 1158 q 497 1172 482 1169 q 526 1179 513 1175 q 502 1188 513 1186 q 481 1197 492 1190 q 447 1190 464 1194 q 418 1178 429 1186 q 442 1170 429 1175 q 471 1158 456 1165 m 92 1168 q 91 1217 88 1193 q 85 1267 94 1242 q 55 1275 69 1269 q 28 1286 40 1281 l 18 1283 l 18 1194 q 29 1183 22 1188 q 82 1167 46 1182 l 92 1168 m 193 1253 q 220 1264 203 1263 q 247 1275 238 1265 q 217 1283 232 1276 q 189 1290 203 1290 q 163 1281 175 1283 q 138 1274 150 1279 q 166 1263 153 1264 q 193 1253 179 1261 m 100 1283 q 128 1294 115 1292 q 154 1303 140 1296 q 47 1301 94 1335 q 74 1293 61 1300 q 100 1283 86 1286 z "},"L":{"ha":688,"x_min":0,"x_max":656,"o":"m 544 0 q 272 91 407 47 q 0 183 138 135 q 15 1300 0 1289 q 143 1311 81 1338 q 274 1269 206 1285 l 283 1265 l 289 1256 l 289 1019 l 289 293 l 299 285 q 473 229 386 257 q 649 167 560 201 l 656 158 l 656 35 q 553 0 606 7 l 544 0 l 544 0 m 546 26 q 547 75 543 51 q 539 122 550 99 q 509 133 524 129 q 482 143 494 136 l 474 140 l 474 53 q 485 42 481 43 q 509 35 496 40 q 538 24 522 31 l 546 26 m 454 58 q 453 106 450 83 q 450 151 456 128 q 421 162 435 156 q 394 171 407 168 l 383 171 l 383 79 q 414 67 397 71 q 444 56 431 63 l 454 58 m 363 88 l 363 175 l 353 186 q 321 194 336 188 q 292 201 306 201 l 292 114 l 299 106 q 327 94 313 99 q 356 86 342 89 l 363 88 m 272 118 l 272 206 q 261 217 265 214 q 228 225 244 218 q 200 232 213 232 l 200 144 l 206 136 q 235 126 221 129 q 263 114 250 122 l 272 118 m 554 140 q 581 151 569 149 q 608 160 593 153 q 501 158 554 190 q 529 149 517 156 q 554 140 542 143 m 179 149 q 180 198 176 174 q 174 246 183 222 q 144 254 158 249 q 117 263 129 260 l 110 261 q 110 213 111 236 q 113 168 108 190 q 143 156 128 163 q 174 144 158 150 l 179 149 m 463 171 q 490 179 475 176 q 515 193 504 182 q 488 200 501 194 q 463 208 474 206 q 444 201 453 206 q 428 197 435 197 q 417 192 422 193 q 410 190 413 192 q 431 183 418 188 q 463 171 444 178 m 88 179 q 87 227 86 204 q 86 272 88 250 q 54 285 69 281 q 24 293 39 289 l 18 292 l 18 203 l 24 194 q 53 186 39 193 q 82 175 68 179 l 88 179 m 371 201 q 399 211 385 204 q 428 222 414 218 q 398 230 413 225 q 371 239 383 235 q 343 228 357 232 q 318 222 329 225 q 344 211 332 217 q 371 201 357 206 m 278 232 q 308 241 293 236 q 336 250 322 246 l 333 254 q 306 261 319 256 q 281 269 292 267 q 250 258 265 261 q 226 250 235 256 q 253 241 240 246 q 278 232 265 236 m 179 274 l 179 357 l 174 367 q 144 376 158 372 q 117 386 129 381 l 110 383 l 110 292 q 139 280 122 282 q 171 267 156 278 l 179 274 m 88 300 q 87 349 85 325 q 83 397 89 374 q 52 406 68 400 q 26 417 36 413 l 18 414 l 18 326 l 24 318 q 53 308 39 313 q 82 299 68 304 l 88 300 m 179 393 q 180 441 176 417 q 174 489 183 465 q 144 497 158 492 q 117 506 129 503 l 110 504 q 110 456 111 479 q 113 411 108 433 q 143 400 128 406 q 174 388 158 394 l 179 393 m 88 422 q 88 472 85 447 q 82 519 90 496 q 24 539 49 525 l 18 535 q 18 487 19 510 q 19 443 17 464 q 51 431 36 436 q 82 418 67 425 l 88 422 m 179 514 q 179 562 176 538 q 175 608 182 586 q 142 621 157 613 q 110 629 126 629 l 110 538 q 139 523 122 525 q 171 511 156 521 l 179 514 m 88 546 l 88 629 l 82 639 q 52 650 67 644 q 24 660 38 656 l 18 658 l 18 569 l 24 561 q 53 552 39 554 q 82 542 68 550 l 88 546 m 179 636 l 179 724 l 174 732 q 144 741 158 736 q 117 750 129 746 l 110 747 q 110 700 111 724 q 113 656 108 676 q 143 643 128 647 q 174 632 158 639 l 179 636 m 88 667 q 88 716 85 692 q 82 763 90 740 q 52 772 67 767 q 24 782 38 776 l 18 779 q 18 730 19 753 q 19 686 17 707 q 51 674 36 679 q 82 663 67 668 l 88 667 m 179 760 q 179 807 176 785 q 175 853 182 829 q 142 864 157 856 q 110 872 126 872 q 110 823 113 847 q 114 776 107 799 q 143 766 128 771 q 171 753 158 761 l 179 760 m 88 789 l 88 872 l 82 883 q 52 893 67 888 q 24 903 38 899 l 18 900 l 18 813 q 29 803 22 806 q 56 794 43 800 q 82 785 68 789 l 88 789 m 179 881 q 179 928 176 906 q 175 974 182 950 q 147 983 161 978 q 121 993 133 989 l 110 993 l 110 900 q 139 889 122 893 q 171 876 156 885 l 179 881 m 88 907 q 87 956 85 932 q 83 1004 89 981 q 48 1017 65 1010 q 18 1024 31 1024 l 18 936 l 24 926 q 53 917 39 921 q 82 906 68 914 l 88 907 m 179 1000 q 179 1048 176 1024 q 175 1096 182 1072 q 142 1107 157 1100 q 110 1115 126 1114 l 110 1024 q 139 1011 122 1015 q 171 997 156 1007 l 179 1000 m 88 1032 l 88 1115 l 82 1126 q 52 1137 67 1131 q 24 1146 38 1143 l 18 1144 l 18 1057 l 24 1047 q 53 1040 39 1046 q 82 1028 68 1033 l 88 1032 m 179 1125 q 179 1171 176 1149 q 175 1217 182 1193 q 142 1229 157 1221 q 110 1236 126 1238 l 110 1144 q 139 1131 122 1133 q 171 1121 156 1129 l 179 1125 m 88 1153 q 87 1202 85 1178 q 83 1250 89 1226 q 52 1259 68 1253 q 26 1269 36 1265 l 18 1267 l 18 1179 l 24 1171 q 53 1160 39 1164 q 82 1151 68 1157 l 88 1153 m 189 1236 q 217 1245 203 1242 q 243 1256 231 1249 q 136 1256 181 1283 q 163 1247 150 1251 q 189 1236 175 1242 m 96 1267 q 126 1277 111 1271 q 154 1286 140 1283 q 124 1294 139 1289 q 96 1304 110 1300 q 69 1293 83 1297 q 44 1286 56 1289 q 71 1277 58 1282 q 96 1267 83 1272 z "},"M":{"ha":699,"x_min":0,"x_max":665,"o":"m 554 1 q 510 19 532 14 q 465 35 489 24 q 465 245 463 140 q 461 458 467 350 q 336 447 400 425 q 272 469 304 458 q 208 492 240 481 l 204 490 q 203 341 201 415 q 203 192 204 267 q 197 188 201 189 q 186 182 192 186 q 4 189 99 142 l 0 196 l 0 1139 q 4 1315 0 1313 q 18 1324 8 1318 q 196 1317 101 1361 l 203 1308 l 203 1201 q 215 1186 206 1190 q 292 1161 238 1185 l 296 1156 l 296 1047 l 300 1039 q 367 1017 333 1018 l 372 1024 l 372 1064 q 376 1068 375 1065 q 385 1075 378 1071 q 419 1083 401 1076 q 447 1094 438 1090 q 458 1100 456 1097 q 465 1110 460 1103 l 465 1156 l 469 1161 q 661 1161 558 1213 l 665 1156 l 665 114 l 665 40 q 651 26 660 31 q 605 13 629 26 q 558 1 581 0 l 554 1 l 554 1 m 556 31 q 555 78 551 56 q 551 125 558 100 q 519 138 535 133 q 490 149 504 142 l 482 144 q 483 96 485 119 q 485 51 482 72 q 517 39 501 43 q 547 26 532 35 l 556 31 m 556 158 l 556 242 q 544 254 549 253 q 517 262 532 256 q 492 271 501 268 l 482 269 l 482 181 l 490 172 q 519 161 504 164 q 547 151 533 158 l 556 158 m 90 185 l 90 274 l 85 283 q 54 293 69 288 q 26 300 39 299 l 19 299 l 19 208 q 50 194 33 199 q 83 182 67 189 l 90 185 m 556 281 l 556 365 l 547 376 q 517 384 532 379 q 490 396 503 389 l 482 392 q 483 343 485 367 q 485 299 482 319 q 517 285 501 289 q 547 274 532 282 l 556 281 m 90 310 l 90 394 l 85 406 q 26 425 50 419 l 19 424 l 19 333 l 26 325 q 56 316 42 322 q 85 306 71 310 l 90 310 m 556 403 q 555 450 551 428 q 551 496 558 472 q 519 509 535 503 q 490 518 504 515 l 482 517 l 482 428 q 493 417 486 419 q 516 410 503 414 q 547 399 529 406 l 556 403 m 90 432 q 91 481 88 457 q 85 529 94 506 q 54 540 69 535 q 26 550 39 546 l 19 544 l 19 457 q 50 441 33 444 q 83 431 67 438 l 90 432 m 369 463 l 369 551 l 363 560 q 333 571 347 565 q 306 579 318 576 l 299 576 l 299 488 q 328 472 311 476 q 360 461 346 467 l 369 463 m 278 496 q 277 543 274 521 q 274 589 281 565 q 242 601 257 597 q 211 611 226 604 l 204 608 l 204 518 q 238 501 219 506 q 271 490 257 497 l 278 496 m 556 525 q 556 575 551 550 q 550 624 560 600 q 513 633 531 626 q 482 640 496 640 l 482 551 l 490 543 q 519 533 504 536 q 547 521 533 529 l 556 525 m 90 556 q 91 606 88 581 q 85 654 94 631 q 54 663 69 657 q 26 672 39 668 l 19 669 q 20 622 22 644 q 22 576 18 599 q 54 563 39 569 q 85 551 69 557 l 90 556 m 369 588 l 369 672 l 363 683 q 306 703 338 694 l 299 700 l 299 611 l 306 603 q 334 594 319 601 q 363 583 349 588 l 369 588 m 278 618 q 277 666 274 643 q 274 713 281 689 q 242 724 257 718 q 211 736 226 729 l 204 732 l 204 643 l 211 635 q 269 614 242 628 l 278 618 m 556 650 q 555 697 551 674 q 551 743 558 719 q 519 756 535 750 q 490 767 504 761 l 482 763 l 482 674 q 493 664 488 665 q 521 656 508 661 q 547 646 533 650 l 556 650 m 90 679 q 91 728 88 703 q 85 776 94 753 q 54 788 69 782 q 26 796 39 793 l 19 794 l 19 706 l 26 696 q 56 687 42 689 q 85 676 71 685 l 90 679 m 369 710 q 369 758 365 733 q 363 808 372 783 q 333 818 347 813 q 306 828 318 824 l 299 824 l 299 733 q 328 719 311 722 q 360 707 346 715 l 369 710 m 278 740 q 278 790 274 765 q 271 839 282 815 q 237 849 253 842 q 204 857 221 857 l 204 767 l 211 758 q 241 748 226 753 q 269 739 256 743 l 278 740 m 556 774 q 555 821 551 799 q 551 868 558 843 q 519 879 535 876 q 490 890 504 882 l 482 885 l 482 796 q 516 779 497 783 q 550 767 535 775 l 556 774 m 90 803 q 91 852 88 828 q 85 901 94 876 q 54 910 69 904 q 26 919 39 915 l 19 917 q 20 868 22 892 q 22 824 18 844 q 54 811 39 817 q 85 799 69 806 l 90 803 m 463 803 q 463 852 460 828 q 456 901 465 876 q 420 912 438 904 q 389 919 403 919 l 389 829 q 400 818 396 819 q 427 810 414 817 q 454 799 440 804 l 463 803 m 369 835 q 369 884 365 860 q 363 932 372 908 q 333 940 347 935 q 306 950 318 946 l 299 949 q 297 899 299 922 q 300 854 296 875 q 332 842 317 847 q 363 829 347 836 l 369 835 m 278 865 q 277 913 274 890 q 274 958 281 935 q 242 971 257 965 q 211 983 226 976 l 204 979 q 204 931 206 954 q 207 885 203 907 q 239 873 224 876 q 269 861 254 869 l 278 865 m 185 897 l 185 982 l 178 992 q 148 1003 163 999 q 119 1013 133 1007 l 111 1010 q 111 961 113 985 q 114 917 110 938 q 145 905 129 908 q 175 892 161 901 l 185 897 m 556 897 q 555 944 551 921 q 551 990 558 967 q 519 1002 535 996 q 490 1014 504 1008 l 482 1010 q 483 961 485 985 q 485 917 482 938 q 517 904 501 908 q 547 892 532 900 l 556 897 m 90 928 l 90 1013 l 85 1024 q 54 1034 69 1028 q 26 1043 39 1040 l 19 1042 l 19 953 q 31 942 25 943 q 58 933 46 939 q 85 924 71 928 l 90 928 m 463 926 q 463 975 460 950 q 456 1024 465 1000 q 426 1034 440 1029 q 399 1043 411 1039 l 389 1042 l 389 953 q 400 942 394 943 q 454 924 429 938 l 463 926 m 369 958 q 369 971 367 965 q 367 982 371 976 l 360 982 q 342 974 350 978 q 325 968 333 969 q 343 961 335 965 q 360 956 351 957 l 369 958 m 288 979 q 314 990 299 986 q 343 999 329 993 q 233 997 282 1029 q 258 991 244 996 q 288 979 272 986 m 185 1021 q 183 1069 181 1046 q 181 1115 186 1092 q 147 1126 163 1124 q 118 1136 132 1129 l 111 1132 q 112 1085 115 1107 q 115 1039 108 1063 q 147 1026 132 1031 q 178 1014 163 1022 l 185 1021 m 556 1018 q 556 1068 551 1043 q 550 1117 560 1093 q 515 1127 531 1119 q 482 1135 499 1135 l 482 1046 l 490 1038 q 519 1026 504 1031 q 547 1017 533 1021 l 556 1018 m 90 1050 q 91 1100 88 1075 q 85 1149 94 1125 q 54 1157 69 1154 q 26 1165 39 1160 l 19 1164 q 20 1115 22 1139 q 22 1071 18 1092 q 54 1058 39 1064 q 85 1046 69 1051 l 90 1050 m 456 1046 q 463 1058 464 1050 q 463 1071 461 1065 l 456 1075 q 436 1067 446 1068 q 418 1061 426 1067 q 438 1053 429 1056 q 456 1046 447 1050 m 193 1135 q 221 1144 208 1140 q 247 1156 233 1147 q 218 1164 232 1161 q 192 1172 204 1167 q 163 1161 178 1165 q 140 1153 149 1157 q 167 1144 154 1150 q 193 1135 179 1138 m 563 1135 q 592 1144 578 1138 q 621 1156 607 1151 q 591 1163 606 1157 q 563 1172 576 1168 q 510 1156 536 1158 q 536 1144 524 1150 q 563 1135 549 1139 m 90 1175 l 90 1260 l 85 1271 q 54 1281 69 1275 q 26 1290 39 1286 l 19 1288 l 19 1199 q 31 1188 26 1189 q 58 1181 46 1186 q 85 1171 71 1175 l 90 1175 m 103 1288 q 130 1299 113 1299 q 156 1310 147 1300 q 126 1319 140 1313 q 97 1326 111 1326 q 72 1317 85 1319 q 47 1308 58 1314 q 75 1299 61 1303 q 103 1288 89 1294 z "},"N":{"ha":700,"x_min":0,"x_max":663,"o":"m 549 0 q 505 17 526 10 q 460 33 483 25 l 460 392 q 447 407 457 403 q 372 432 414 413 l 367 438 l 367 549 l 361 557 q 328 567 346 558 q 294 578 311 576 q 292 370 290 474 q 292 163 293 267 l 283 153 q 143 136 213 111 q 74 163 108 150 q 4 186 40 175 l 0 193 l 0 944 l 0 1303 q 31 1317 14 1310 q 64 1330 47 1325 q 99 1336 81 1335 q 133 1331 117 1338 q 209 1304 171 1315 q 288 1276 247 1293 l 292 1271 l 292 1040 l 296 1032 q 335 1015 313 1019 q 381 1000 358 1011 q 382 944 383 972 q 382 885 381 915 l 389 876 q 419 865 404 869 q 451 851 435 860 l 458 857 q 460 1001 461 929 q 460 1149 458 1074 l 464 1156 q 654 1156 557 1201 l 660 1149 l 660 608 q 660 315 654 454 q 662 176 663 246 q 654 31 661 106 q 648 26 653 31 q 639 26 643 21 q 596 10 618 21 q 551 0 574 0 l 549 0 l 549 0 m 551 29 l 551 117 q 540 128 547 125 q 508 137 524 129 q 478 144 492 144 l 478 56 l 485 47 q 513 36 499 40 q 542 25 528 32 l 551 29 m 181 151 q 181 200 178 175 q 175 249 185 225 q 145 258 160 254 q 117 268 131 263 l 108 265 l 108 178 q 119 167 113 169 q 144 160 131 165 q 172 149 157 156 l 181 151 m 551 153 q 550 199 547 176 q 546 246 553 222 q 514 257 529 251 q 485 271 499 263 l 478 265 l 478 178 q 489 167 483 168 q 542 149 518 163 l 551 153 m 88 183 l 88 268 l 82 279 q 51 289 67 283 q 25 299 36 294 l 18 297 l 18 208 l 25 200 q 53 190 39 193 q 82 179 68 188 l 88 183 m 181 276 q 181 324 178 301 q 176 369 183 346 q 144 381 160 378 q 115 392 129 383 l 108 388 l 108 299 q 141 283 122 288 q 175 271 160 278 l 181 276 m 551 276 q 550 324 547 301 q 546 369 553 346 q 514 381 529 378 q 485 392 499 383 l 478 388 l 478 299 q 510 283 492 288 q 544 271 529 278 l 551 276 m 88 306 q 88 354 85 329 q 82 403 92 379 q 48 414 63 410 q 25 421 33 418 l 18 418 q 17 370 19 393 q 19 325 15 347 q 51 313 36 318 q 82 301 67 307 l 88 306 m 181 396 q 181 445 178 421 q 176 493 183 469 q 144 503 160 497 q 115 514 129 510 l 108 510 l 108 425 l 115 417 q 144 406 129 408 q 172 394 158 403 l 181 396 m 551 399 q 550 446 547 424 q 546 492 553 468 q 514 503 529 497 q 485 515 499 508 l 478 511 l 478 424 l 485 414 q 514 406 500 411 q 542 394 528 401 l 551 399 m 88 429 l 88 514 l 82 525 q 51 535 67 529 q 25 544 36 540 l 18 543 l 18 454 q 29 443 22 446 q 56 435 43 440 q 82 425 68 431 l 88 429 m 458 429 l 458 514 l 451 525 q 421 535 436 531 q 394 544 406 539 l 385 543 l 385 454 q 396 443 390 444 q 449 425 422 439 l 458 429 m 181 522 q 181 569 178 547 q 176 615 183 592 q 144 627 160 624 q 115 638 129 631 l 108 633 l 108 544 q 142 528 121 531 q 175 515 163 525 l 181 522 m 551 521 q 551 569 547 544 q 544 618 554 594 q 510 628 526 621 q 478 636 494 636 l 478 547 l 485 538 q 513 527 499 531 q 542 518 528 524 l 551 521 m 88 553 q 88 600 85 578 q 83 647 90 622 q 48 659 65 653 q 18 665 31 665 l 18 578 l 25 569 q 82 547 65 554 l 88 553 m 458 553 q 457 600 454 578 q 453 647 460 622 q 421 657 436 654 q 392 668 406 660 l 385 664 l 385 576 q 418 559 400 564 q 451 547 436 554 l 458 553 m 365 582 q 365 631 361 607 q 358 679 368 656 q 324 690 339 686 q 300 697 310 694 l 294 694 q 294 647 296 669 q 296 603 292 624 q 328 590 313 596 q 358 578 343 583 l 365 582 m 181 642 q 181 690 178 665 q 176 739 183 715 q 143 750 158 744 q 115 761 128 756 l 108 754 l 108 671 l 115 663 q 144 652 129 656 q 172 640 158 649 l 181 642 m 551 644 q 550 691 547 668 q 546 738 553 714 q 514 749 529 743 q 485 761 499 754 l 478 757 q 478 709 479 732 q 481 664 476 686 q 511 652 496 656 q 542 640 526 649 l 551 644 m 88 675 l 88 760 l 82 771 q 51 781 67 775 q 25 790 36 786 l 18 788 l 18 699 l 25 690 q 53 682 39 689 q 82 671 68 675 l 88 675 m 449 671 q 458 678 461 668 q 458 690 456 688 l 451 699 q 430 691 440 693 q 414 685 419 689 q 432 679 424 686 q 449 671 440 672 m 365 706 l 365 790 l 358 801 q 328 811 343 806 q 300 821 314 817 l 294 819 l 294 731 q 306 719 299 722 q 332 712 319 718 q 358 701 344 706 l 365 706 m 274 735 q 274 783 269 758 q 267 832 278 808 q 238 842 253 836 q 210 851 224 847 l 201 850 l 201 761 l 208 753 q 238 743 222 746 q 265 732 253 740 l 274 735 m 181 767 q 181 815 178 790 q 175 864 185 839 q 145 873 160 869 q 117 883 131 876 l 108 881 l 108 793 q 119 782 114 783 q 144 776 131 781 q 172 764 157 771 l 181 767 m 551 767 l 551 854 q 540 865 547 863 q 511 874 526 868 q 488 883 496 879 l 478 881 l 478 793 l 485 783 q 513 774 499 776 q 542 764 528 772 l 551 767 m 88 797 q 88 846 85 821 q 82 894 92 871 q 51 903 67 900 q 25 914 36 906 l 18 910 l 18 821 q 47 806 31 811 q 79 794 64 801 l 88 797 m 376 819 q 403 831 386 829 q 429 842 421 832 q 374 851 401 849 q 321 839 347 853 q 349 829 335 831 q 376 819 363 828 m 274 858 q 274 908 269 883 q 267 956 278 932 q 231 967 249 960 q 201 974 214 974 l 201 885 l 208 876 q 238 866 222 869 q 265 854 253 863 l 274 858 m 181 890 q 181 939 178 914 q 175 988 185 964 q 138 997 156 990 q 108 1004 121 1004 l 108 917 l 115 907 q 144 897 129 900 q 172 885 158 893 l 181 890 m 551 892 l 551 976 l 542 988 q 513 995 526 990 q 485 1007 499 1000 l 478 1003 q 478 954 479 978 q 481 910 476 931 q 511 897 496 901 q 542 885 526 893 l 551 892 m 88 921 q 88 970 85 946 q 82 1018 92 994 q 51 1027 67 1019 q 25 1036 36 1035 l 18 1033 l 18 944 l 25 936 q 53 927 39 933 q 82 917 68 921 l 88 921 m 286 974 q 313 984 300 982 q 339 992 325 986 q 315 1001 328 1000 q 292 1010 301 1001 q 269 1006 279 1013 q 249 1000 258 1000 q 237 995 243 996 q 231 989 231 994 q 283 972 253 986 l 286 974 m 181 1011 q 181 1060 178 1036 q 175 1108 185 1085 q 145 1119 160 1115 q 117 1129 131 1122 l 108 1126 l 108 1039 q 119 1026 115 1028 q 172 1010 140 1025 l 181 1011 m 551 1011 q 551 1060 547 1036 q 544 1108 554 1085 q 515 1118 529 1113 q 488 1129 500 1124 l 478 1126 l 478 1039 l 485 1029 q 513 1019 499 1022 q 542 1010 528 1017 l 551 1011 m 88 1042 q 88 1092 85 1067 q 82 1140 92 1117 q 51 1151 67 1144 q 25 1160 36 1157 l 18 1156 l 18 1067 q 47 1051 31 1054 q 79 1040 64 1049 l 88 1042 m 560 1126 q 587 1137 574 1135 q 613 1147 600 1139 q 507 1144 556 1179 q 533 1135 521 1142 q 560 1126 546 1129 m 181 1135 q 181 1185 178 1160 q 175 1233 185 1210 q 138 1243 156 1236 q 108 1250 121 1250 l 108 1161 q 114 1156 111 1158 q 119 1151 117 1153 q 146 1142 133 1149 q 172 1131 158 1135 l 181 1135 m 88 1167 l 88 1250 l 82 1261 q 53 1273 67 1268 q 25 1281 39 1278 l 18 1279 q 17 1231 19 1254 q 19 1186 15 1208 q 51 1174 36 1179 q 82 1161 67 1168 l 88 1167 m 190 1249 q 219 1260 206 1256 q 246 1268 233 1265 q 217 1279 233 1274 q 188 1289 201 1285 q 161 1278 174 1282 q 138 1268 149 1274 q 162 1260 149 1265 q 190 1249 175 1256 m 100 1279 q 126 1292 111 1289 q 154 1300 142 1294 q 148 1302 151 1301 q 139 1306 144 1303 q 46 1297 86 1329 q 74 1290 61 1296 q 100 1279 86 1283 z "}}}
